%FSLAX45Y45*%
G04 Gerber Fmt 4.5, Leading zero omitted, Abs format (unit mm)*
G04 Created by KiCad (PCBNEW (6.0.4)) date 2022-06-19 17:23:50*
%MOMM*%
%LPD*%
G01*
G04 APERTURE LIST*
%TA.AperFunction,Profile*%
%ADD10C,0.100000*%
%TD*%
%ADD11C,0.200000*%
%ADD12C,0.040000*%
%ADD13C,0.095000*%
%ADD14C,0.100000*%
%ADD15C,0.130000*%
%ADD16C,0.170000*%
G04 APERTURE END LIST*
D10*
X18313400Y-8331200D02*
X11785600Y-8331200D01*
X11785600Y-8331200D02*
X11785600Y-10160000D01*
X11785600Y-10160000D02*
X18313400Y-10160000D01*
X18313400Y-10160000D02*
X18313400Y-8331200D01*
D11*
D12*
X12465522Y-9986652D02*
X12505522Y-10026652D01*
X12505522Y-9986652D02*
X12465522Y-10026652D01*
X12680000Y-9987600D02*
X12720000Y-10027600D01*
X12720000Y-9987600D02*
X12680000Y-10027600D01*
X12872850Y-9987600D02*
X12912850Y-10027600D01*
X12912850Y-9987600D02*
X12872850Y-10027600D01*
X13074114Y-9634510D02*
X13114114Y-9674510D01*
X13114114Y-9634510D02*
X13074114Y-9674510D01*
X13467400Y-9403400D02*
X13507400Y-9443400D01*
X13507400Y-9403400D02*
X13467400Y-9443400D01*
X14077000Y-9380600D02*
X14117000Y-9420600D01*
X14117000Y-9380600D02*
X14077000Y-9420600D01*
X14535157Y-9037450D02*
X14575157Y-9077450D01*
X14575157Y-9037450D02*
X14535157Y-9077450D01*
X14862487Y-9413750D02*
X14902487Y-9453750D01*
X14902487Y-9413750D02*
X14862487Y-9453750D01*
X15550200Y-9022400D02*
X15590200Y-9062400D01*
X15590200Y-9022400D02*
X15550200Y-9062400D01*
X16744000Y-9566150D02*
X16784000Y-9606150D01*
X16784000Y-9566150D02*
X16744000Y-9606150D01*
X16747300Y-8743000D02*
X16787300Y-8783000D01*
X16787300Y-8743000D02*
X16747300Y-8783000D01*
X17356100Y-8939600D02*
X17396100Y-8979600D01*
X17396100Y-8939600D02*
X17356100Y-8979600D01*
X17531400Y-9566150D02*
X17571400Y-9606150D01*
X17571400Y-9566150D02*
X17531400Y-9606150D01*
X18014000Y-9120000D02*
X18054000Y-9160000D01*
X18054000Y-9120000D02*
X18014000Y-9160000D01*
D13*
X17829200Y-8991600D02*
G75*
G03*
X17829200Y-8991600I-47500J0D01*
G01*
X17829200Y-9241600D02*
G75*
G03*
X17829200Y-9241600I-47500J0D01*
G01*
X17829200Y-9491600D02*
G75*
G03*
X17829200Y-9491600I-47500J0D01*
G01*
D14*
X13944600Y-8433600D02*
X13944600Y-8533600D01*
X13894600Y-8483600D02*
X13994600Y-8483600D01*
X13944600Y-9957600D02*
X13944600Y-10057600D01*
X13894600Y-10007600D02*
X13994600Y-10007600D01*
X14071600Y-8814600D02*
X14071600Y-8914600D01*
X14021600Y-8864600D02*
X14121600Y-8864600D01*
X14075600Y-9576600D02*
X14075600Y-9676600D01*
X14025600Y-9626600D02*
X14125600Y-9626600D01*
X14198600Y-8433600D02*
X14198600Y-8533600D01*
X14148600Y-8483600D02*
X14248600Y-8483600D01*
X14198600Y-9957600D02*
X14198600Y-10057600D01*
X14148600Y-10007600D02*
X14248600Y-10007600D01*
X14321600Y-8814600D02*
X14321600Y-8914600D01*
X14271600Y-8864600D02*
X14371600Y-8864600D01*
X14325600Y-9576600D02*
X14325600Y-9676600D01*
X14275600Y-9626600D02*
X14375600Y-9626600D01*
X14452600Y-8433600D02*
X14452600Y-8533600D01*
X14402600Y-8483600D02*
X14502600Y-8483600D01*
X14452600Y-9957600D02*
X14452600Y-10057600D01*
X14402600Y-10007600D02*
X14502600Y-10007600D01*
X14706600Y-8433600D02*
X14706600Y-8533600D01*
X14656600Y-8483600D02*
X14756600Y-8483600D01*
X14706600Y-9957600D02*
X14706600Y-10057600D01*
X14656600Y-10007600D02*
X14756600Y-10007600D01*
X14960600Y-8433600D02*
X14960600Y-8533600D01*
X14910600Y-8483600D02*
X15010600Y-8483600D01*
X14960600Y-9957600D02*
X14960600Y-10057600D01*
X14910600Y-10007600D02*
X15010600Y-10007600D01*
X15091600Y-8814600D02*
X15091600Y-8914600D01*
X15041600Y-8864600D02*
X15141600Y-8864600D01*
X15091600Y-9576600D02*
X15091600Y-9676600D01*
X15041600Y-9626600D02*
X15141600Y-9626600D01*
X15214600Y-8433600D02*
X15214600Y-8533600D01*
X15164600Y-8483600D02*
X15264600Y-8483600D01*
X15214600Y-9957600D02*
X15214600Y-10057600D01*
X15164600Y-10007600D02*
X15264600Y-10007600D01*
X15341600Y-8814600D02*
X15341600Y-8914600D01*
X15291600Y-8864600D02*
X15391600Y-8864600D01*
X15341600Y-9576600D02*
X15341600Y-9676600D01*
X15291600Y-9626600D02*
X15391600Y-9626600D01*
X15468600Y-8433600D02*
X15468600Y-8533600D01*
X15418600Y-8483600D02*
X15518600Y-8483600D01*
X15468600Y-9957600D02*
X15468600Y-10057600D01*
X15418600Y-10007600D02*
X15518600Y-10007600D01*
X15722600Y-8433600D02*
X15722600Y-8533600D01*
X15672600Y-8483600D02*
X15772600Y-8483600D01*
X15722600Y-9957600D02*
X15722600Y-10057600D01*
X15672600Y-10007600D02*
X15772600Y-10007600D01*
X15976600Y-8433600D02*
X15976600Y-8533600D01*
X15926600Y-8483600D02*
X16026600Y-8483600D01*
X15976600Y-9957600D02*
X15976600Y-10057600D01*
X15926600Y-10007600D02*
X16026600Y-10007600D01*
X16103600Y-8814600D02*
X16103600Y-8914600D01*
X16053600Y-8864600D02*
X16153600Y-8864600D01*
X16107600Y-9576600D02*
X16107600Y-9676600D01*
X16057600Y-9626600D02*
X16157600Y-9626600D01*
X16230600Y-8433600D02*
X16230600Y-8533600D01*
X16180600Y-8483600D02*
X16280600Y-8483600D01*
X16230600Y-9957600D02*
X16230600Y-10057600D01*
X16180600Y-10007600D02*
X16280600Y-10007600D01*
X16353600Y-8814600D02*
X16353600Y-8914600D01*
X16303600Y-8864600D02*
X16403600Y-8864600D01*
X16357600Y-9576600D02*
X16357600Y-9676600D01*
X16307600Y-9626600D02*
X16407600Y-9626600D01*
X16484600Y-8433600D02*
X16484600Y-8533600D01*
X16434600Y-8483600D02*
X16534600Y-8483600D01*
X16484600Y-9957600D02*
X16484600Y-10057600D01*
X16434600Y-10007600D02*
X16534600Y-10007600D01*
X16738600Y-8433600D02*
X16738600Y-8533600D01*
X16688600Y-8483600D02*
X16788600Y-8483600D01*
X16738600Y-9957600D02*
X16738600Y-10057600D01*
X16688600Y-10007600D02*
X16788600Y-10007600D01*
X16992600Y-8433600D02*
X16992600Y-8533600D01*
X16942600Y-8483600D02*
X17042600Y-8483600D01*
X16992600Y-9957600D02*
X16992600Y-10057600D01*
X16942600Y-10007600D02*
X17042600Y-10007600D01*
X17095900Y-9096000D02*
X17095900Y-9196000D01*
X17045900Y-9146000D02*
X17145900Y-9146000D01*
X17095900Y-9346000D02*
X17095900Y-9446000D01*
X17045900Y-9396000D02*
X17145900Y-9396000D01*
X17246600Y-8433600D02*
X17246600Y-8533600D01*
X17196600Y-8483600D02*
X17296600Y-8483600D01*
X17246600Y-9957600D02*
X17246600Y-10057600D01*
X17196600Y-10007600D02*
X17296600Y-10007600D01*
X17500600Y-8433600D02*
X17500600Y-8533600D01*
X17450600Y-8483600D02*
X17550600Y-8483600D01*
X17500600Y-9957600D02*
X17500600Y-10057600D01*
X17450600Y-10007600D02*
X17550600Y-10007600D01*
D15*
X12517362Y-9037562D02*
X12517362Y-8945638D01*
X12425438Y-8945638D01*
X12425438Y-9037562D01*
X12517362Y-9037562D01*
X12517362Y-9545562D02*
X12517362Y-9453638D01*
X12425438Y-9453638D01*
X12425438Y-9545562D01*
X12517362Y-9545562D01*
D16*
X13309600Y-8741100D02*
X13394600Y-8656100D01*
X13309600Y-8571100D01*
X13224600Y-8656100D01*
X13309600Y-8741100D01*
X13309600Y-9107100D02*
X13394600Y-9022100D01*
X13309600Y-8937100D01*
X13224600Y-9022100D01*
X13309600Y-9107100D01*
X13309600Y-9554100D02*
X13394600Y-9469100D01*
X13309600Y-9384100D01*
X13224600Y-9469100D01*
X13309600Y-9554100D01*
X13309600Y-9920100D02*
X13394600Y-9835100D01*
X13309600Y-9750100D01*
X13224600Y-9835100D01*
X13309600Y-9920100D01*
D11*
X12038219Y-10475476D02*
X12038219Y-10275476D01*
X12085838Y-10275476D01*
X12114409Y-10285000D01*
X12133457Y-10304048D01*
X12142981Y-10323095D01*
X12152505Y-10361190D01*
X12152505Y-10389762D01*
X12142981Y-10427857D01*
X12133457Y-10446905D01*
X12114409Y-10465952D01*
X12085838Y-10475476D01*
X12038219Y-10475476D01*
X12238219Y-10475476D02*
X12238219Y-10342143D01*
X12238219Y-10380238D02*
X12247743Y-10361190D01*
X12257267Y-10351667D01*
X12276314Y-10342143D01*
X12295362Y-10342143D01*
X12362028Y-10475476D02*
X12362028Y-10342143D01*
X12362028Y-10275476D02*
X12352505Y-10285000D01*
X12362028Y-10294524D01*
X12371552Y-10285000D01*
X12362028Y-10275476D01*
X12362028Y-10294524D01*
X12485838Y-10475476D02*
X12466790Y-10465952D01*
X12457267Y-10446905D01*
X12457267Y-10275476D01*
X12590600Y-10475476D02*
X12571552Y-10465952D01*
X12562028Y-10446905D01*
X12562028Y-10275476D01*
X12819171Y-10475476D02*
X12819171Y-10275476D01*
X12885838Y-10418333D01*
X12952505Y-10275476D01*
X12952505Y-10475476D01*
X13133457Y-10475476D02*
X13133457Y-10370714D01*
X13123933Y-10351667D01*
X13104886Y-10342143D01*
X13066790Y-10342143D01*
X13047743Y-10351667D01*
X13133457Y-10465952D02*
X13114409Y-10475476D01*
X13066790Y-10475476D01*
X13047743Y-10465952D01*
X13038219Y-10446905D01*
X13038219Y-10427857D01*
X13047743Y-10408810D01*
X13066790Y-10399286D01*
X13114409Y-10399286D01*
X13133457Y-10389762D01*
X13228695Y-10342143D02*
X13228695Y-10542143D01*
X13228695Y-10351667D02*
X13247743Y-10342143D01*
X13285838Y-10342143D01*
X13304886Y-10351667D01*
X13314409Y-10361190D01*
X13323933Y-10380238D01*
X13323933Y-10437381D01*
X13314409Y-10456429D01*
X13304886Y-10465952D01*
X13285838Y-10475476D01*
X13247743Y-10475476D01*
X13228695Y-10465952D01*
X13409648Y-10456429D02*
X13419171Y-10465952D01*
X13409648Y-10475476D01*
X13400124Y-10465952D01*
X13409648Y-10456429D01*
X13409648Y-10475476D01*
X13409648Y-10351667D02*
X13419171Y-10361190D01*
X13409648Y-10370714D01*
X13400124Y-10361190D01*
X13409648Y-10351667D01*
X13409648Y-10370714D01*
D12*
X11740600Y-10785000D02*
X11780600Y-10825000D01*
X11780600Y-10785000D02*
X11740600Y-10825000D01*
D11*
X12076314Y-10695476D02*
X12095362Y-10695476D01*
X12114409Y-10705000D01*
X12123933Y-10714524D01*
X12133457Y-10733571D01*
X12142981Y-10771667D01*
X12142981Y-10819286D01*
X12133457Y-10857381D01*
X12123933Y-10876429D01*
X12114409Y-10885952D01*
X12095362Y-10895476D01*
X12076314Y-10895476D01*
X12057267Y-10885952D01*
X12047743Y-10876429D01*
X12038219Y-10857381D01*
X12028695Y-10819286D01*
X12028695Y-10771667D01*
X12038219Y-10733571D01*
X12047743Y-10714524D01*
X12057267Y-10705000D01*
X12076314Y-10695476D01*
X12228695Y-10876429D02*
X12238219Y-10885952D01*
X12228695Y-10895476D01*
X12219171Y-10885952D01*
X12228695Y-10876429D01*
X12228695Y-10895476D01*
X12409648Y-10762143D02*
X12409648Y-10895476D01*
X12362028Y-10685952D02*
X12314409Y-10828810D01*
X12438219Y-10828810D01*
X12552505Y-10695476D02*
X12571552Y-10695476D01*
X12590600Y-10705000D01*
X12600124Y-10714524D01*
X12609648Y-10733571D01*
X12619171Y-10771667D01*
X12619171Y-10819286D01*
X12609648Y-10857381D01*
X12600124Y-10876429D01*
X12590600Y-10885952D01*
X12571552Y-10895476D01*
X12552505Y-10895476D01*
X12533457Y-10885952D01*
X12523933Y-10876429D01*
X12514409Y-10857381D01*
X12504886Y-10819286D01*
X12504886Y-10771667D01*
X12514409Y-10733571D01*
X12523933Y-10714524D01*
X12533457Y-10705000D01*
X12552505Y-10695476D01*
X12742981Y-10695476D02*
X12762028Y-10695476D01*
X12781076Y-10705000D01*
X12790600Y-10714524D01*
X12800124Y-10733571D01*
X12809648Y-10771667D01*
X12809648Y-10819286D01*
X12800124Y-10857381D01*
X12790600Y-10876429D01*
X12781076Y-10885952D01*
X12762028Y-10895476D01*
X12742981Y-10895476D01*
X12723933Y-10885952D01*
X12714409Y-10876429D01*
X12704886Y-10857381D01*
X12695362Y-10819286D01*
X12695362Y-10771667D01*
X12704886Y-10733571D01*
X12714409Y-10714524D01*
X12723933Y-10705000D01*
X12742981Y-10695476D01*
X12895362Y-10895476D02*
X12895362Y-10762143D01*
X12895362Y-10781190D02*
X12904886Y-10771667D01*
X12923933Y-10762143D01*
X12952505Y-10762143D01*
X12971552Y-10771667D01*
X12981076Y-10790714D01*
X12981076Y-10895476D01*
X12981076Y-10790714D02*
X12990600Y-10771667D01*
X13009648Y-10762143D01*
X13038219Y-10762143D01*
X13057267Y-10771667D01*
X13066790Y-10790714D01*
X13066790Y-10895476D01*
X13162028Y-10895476D02*
X13162028Y-10762143D01*
X13162028Y-10781190D02*
X13171552Y-10771667D01*
X13190600Y-10762143D01*
X13219171Y-10762143D01*
X13238219Y-10771667D01*
X13247743Y-10790714D01*
X13247743Y-10895476D01*
X13247743Y-10790714D02*
X13257267Y-10771667D01*
X13276314Y-10762143D01*
X13304886Y-10762143D01*
X13323933Y-10771667D01*
X13333457Y-10790714D01*
X13333457Y-10895476D01*
X13723933Y-10685952D02*
X13552505Y-10943095D01*
X13981076Y-10695476D02*
X14000124Y-10695476D01*
X14019171Y-10705000D01*
X14028695Y-10714524D01*
X14038219Y-10733571D01*
X14047743Y-10771667D01*
X14047743Y-10819286D01*
X14038219Y-10857381D01*
X14028695Y-10876429D01*
X14019171Y-10885952D01*
X14000124Y-10895476D01*
X13981076Y-10895476D01*
X13962028Y-10885952D01*
X13952505Y-10876429D01*
X13942981Y-10857381D01*
X13933457Y-10819286D01*
X13933457Y-10771667D01*
X13942981Y-10733571D01*
X13952505Y-10714524D01*
X13962028Y-10705000D01*
X13981076Y-10695476D01*
X14133457Y-10876429D02*
X14142981Y-10885952D01*
X14133457Y-10895476D01*
X14123933Y-10885952D01*
X14133457Y-10876429D01*
X14133457Y-10895476D01*
X14266790Y-10695476D02*
X14285838Y-10695476D01*
X14304886Y-10705000D01*
X14314409Y-10714524D01*
X14323933Y-10733571D01*
X14333457Y-10771667D01*
X14333457Y-10819286D01*
X14323933Y-10857381D01*
X14314409Y-10876429D01*
X14304886Y-10885952D01*
X14285838Y-10895476D01*
X14266790Y-10895476D01*
X14247743Y-10885952D01*
X14238219Y-10876429D01*
X14228695Y-10857381D01*
X14219171Y-10819286D01*
X14219171Y-10771667D01*
X14228695Y-10733571D01*
X14238219Y-10714524D01*
X14247743Y-10705000D01*
X14266790Y-10695476D01*
X14523933Y-10895476D02*
X14409648Y-10895476D01*
X14466790Y-10895476D02*
X14466790Y-10695476D01*
X14447743Y-10724048D01*
X14428695Y-10743095D01*
X14409648Y-10752619D01*
X14704886Y-10695476D02*
X14609648Y-10695476D01*
X14600124Y-10790714D01*
X14609648Y-10781190D01*
X14628695Y-10771667D01*
X14676314Y-10771667D01*
X14695362Y-10781190D01*
X14704886Y-10790714D01*
X14714409Y-10809762D01*
X14714409Y-10857381D01*
X14704886Y-10876429D01*
X14695362Y-10885952D01*
X14676314Y-10895476D01*
X14628695Y-10895476D01*
X14609648Y-10885952D01*
X14600124Y-10876429D01*
X14781076Y-10695476D02*
X14914409Y-10695476D01*
X14828695Y-10895476D01*
X14981076Y-10695476D02*
X14981076Y-10733571D01*
X15057267Y-10695476D02*
X15057267Y-10733571D01*
X15352505Y-10971667D02*
X15342981Y-10962143D01*
X15323933Y-10933571D01*
X15314409Y-10914524D01*
X15304886Y-10885952D01*
X15295362Y-10838333D01*
X15295362Y-10800238D01*
X15304886Y-10752619D01*
X15314409Y-10724048D01*
X15323933Y-10705000D01*
X15342981Y-10676429D01*
X15352505Y-10666905D01*
X15533457Y-10895476D02*
X15419171Y-10895476D01*
X15476314Y-10895476D02*
X15476314Y-10695476D01*
X15457267Y-10724048D01*
X15438219Y-10743095D01*
X15419171Y-10752619D01*
X15704886Y-10762143D02*
X15704886Y-10895476D01*
X15657267Y-10685952D02*
X15609648Y-10828810D01*
X15733457Y-10828810D01*
X15962028Y-10895476D02*
X15962028Y-10695476D01*
X16047743Y-10895476D02*
X16047743Y-10790714D01*
X16038219Y-10771667D01*
X16019171Y-10762143D01*
X15990600Y-10762143D01*
X15971552Y-10771667D01*
X15962028Y-10781190D01*
X16171552Y-10895476D02*
X16152505Y-10885952D01*
X16142981Y-10876429D01*
X16133457Y-10857381D01*
X16133457Y-10800238D01*
X16142981Y-10781190D01*
X16152505Y-10771667D01*
X16171552Y-10762143D01*
X16200124Y-10762143D01*
X16219171Y-10771667D01*
X16228695Y-10781190D01*
X16238219Y-10800238D01*
X16238219Y-10857381D01*
X16228695Y-10876429D01*
X16219171Y-10885952D01*
X16200124Y-10895476D01*
X16171552Y-10895476D01*
X16352505Y-10895476D02*
X16333457Y-10885952D01*
X16323933Y-10866905D01*
X16323933Y-10695476D01*
X16504886Y-10885952D02*
X16485838Y-10895476D01*
X16447743Y-10895476D01*
X16428695Y-10885952D01*
X16419171Y-10866905D01*
X16419171Y-10790714D01*
X16428695Y-10771667D01*
X16447743Y-10762143D01*
X16485838Y-10762143D01*
X16504886Y-10771667D01*
X16514409Y-10790714D01*
X16514409Y-10809762D01*
X16419171Y-10828810D01*
X16590600Y-10885952D02*
X16609648Y-10895476D01*
X16647743Y-10895476D01*
X16666790Y-10885952D01*
X16676314Y-10866905D01*
X16676314Y-10857381D01*
X16666790Y-10838333D01*
X16647743Y-10828810D01*
X16619171Y-10828810D01*
X16600124Y-10819286D01*
X16590600Y-10800238D01*
X16590600Y-10790714D01*
X16600124Y-10771667D01*
X16619171Y-10762143D01*
X16647743Y-10762143D01*
X16666790Y-10771667D01*
X16742981Y-10971667D02*
X16752505Y-10962143D01*
X16771552Y-10933571D01*
X16781076Y-10914524D01*
X16790600Y-10885952D01*
X16800124Y-10838333D01*
X16800124Y-10800238D01*
X16790600Y-10752619D01*
X16781076Y-10724048D01*
X16771552Y-10705000D01*
X16752505Y-10676429D01*
X16742981Y-10666905D01*
D13*
X11780600Y-11069000D02*
G75*
G03*
X11780600Y-11069000I-47500J0D01*
G01*
D11*
X12076314Y-10959476D02*
X12095362Y-10959476D01*
X12114409Y-10969000D01*
X12123933Y-10978524D01*
X12133457Y-10997571D01*
X12142981Y-11035667D01*
X12142981Y-11083286D01*
X12133457Y-11121381D01*
X12123933Y-11140429D01*
X12114409Y-11149952D01*
X12095362Y-11159476D01*
X12076314Y-11159476D01*
X12057267Y-11149952D01*
X12047743Y-11140429D01*
X12038219Y-11121381D01*
X12028695Y-11083286D01*
X12028695Y-11035667D01*
X12038219Y-10997571D01*
X12047743Y-10978524D01*
X12057267Y-10969000D01*
X12076314Y-10959476D01*
X12228695Y-11140429D02*
X12238219Y-11149952D01*
X12228695Y-11159476D01*
X12219171Y-11149952D01*
X12228695Y-11140429D01*
X12228695Y-11159476D01*
X12333457Y-11159476D02*
X12371552Y-11159476D01*
X12390600Y-11149952D01*
X12400124Y-11140429D01*
X12419171Y-11111857D01*
X12428695Y-11073762D01*
X12428695Y-10997571D01*
X12419171Y-10978524D01*
X12409648Y-10969000D01*
X12390600Y-10959476D01*
X12352505Y-10959476D01*
X12333457Y-10969000D01*
X12323933Y-10978524D01*
X12314409Y-10997571D01*
X12314409Y-11045190D01*
X12323933Y-11064238D01*
X12333457Y-11073762D01*
X12352505Y-11083286D01*
X12390600Y-11083286D01*
X12409648Y-11073762D01*
X12419171Y-11064238D01*
X12428695Y-11045190D01*
X12609648Y-10959476D02*
X12514409Y-10959476D01*
X12504886Y-11054714D01*
X12514409Y-11045190D01*
X12533457Y-11035667D01*
X12581076Y-11035667D01*
X12600124Y-11045190D01*
X12609648Y-11054714D01*
X12619171Y-11073762D01*
X12619171Y-11121381D01*
X12609648Y-11140429D01*
X12600124Y-11149952D01*
X12581076Y-11159476D01*
X12533457Y-11159476D01*
X12514409Y-11149952D01*
X12504886Y-11140429D01*
X12742981Y-10959476D02*
X12762028Y-10959476D01*
X12781076Y-10969000D01*
X12790600Y-10978524D01*
X12800124Y-10997571D01*
X12809648Y-11035667D01*
X12809648Y-11083286D01*
X12800124Y-11121381D01*
X12790600Y-11140429D01*
X12781076Y-11149952D01*
X12762028Y-11159476D01*
X12742981Y-11159476D01*
X12723933Y-11149952D01*
X12714409Y-11140429D01*
X12704886Y-11121381D01*
X12695362Y-11083286D01*
X12695362Y-11035667D01*
X12704886Y-10997571D01*
X12714409Y-10978524D01*
X12723933Y-10969000D01*
X12742981Y-10959476D01*
X12895362Y-11159476D02*
X12895362Y-11026143D01*
X12895362Y-11045190D02*
X12904886Y-11035667D01*
X12923933Y-11026143D01*
X12952505Y-11026143D01*
X12971552Y-11035667D01*
X12981076Y-11054714D01*
X12981076Y-11159476D01*
X12981076Y-11054714D02*
X12990600Y-11035667D01*
X13009648Y-11026143D01*
X13038219Y-11026143D01*
X13057267Y-11035667D01*
X13066790Y-11054714D01*
X13066790Y-11159476D01*
X13162028Y-11159476D02*
X13162028Y-11026143D01*
X13162028Y-11045190D02*
X13171552Y-11035667D01*
X13190600Y-11026143D01*
X13219171Y-11026143D01*
X13238219Y-11035667D01*
X13247743Y-11054714D01*
X13247743Y-11159476D01*
X13247743Y-11054714D02*
X13257267Y-11035667D01*
X13276314Y-11026143D01*
X13304886Y-11026143D01*
X13323933Y-11035667D01*
X13333457Y-11054714D01*
X13333457Y-11159476D01*
X13723933Y-10949952D02*
X13552505Y-11207095D01*
X13981076Y-10959476D02*
X14000124Y-10959476D01*
X14019171Y-10969000D01*
X14028695Y-10978524D01*
X14038219Y-10997571D01*
X14047743Y-11035667D01*
X14047743Y-11083286D01*
X14038219Y-11121381D01*
X14028695Y-11140429D01*
X14019171Y-11149952D01*
X14000124Y-11159476D01*
X13981076Y-11159476D01*
X13962028Y-11149952D01*
X13952505Y-11140429D01*
X13942981Y-11121381D01*
X13933457Y-11083286D01*
X13933457Y-11035667D01*
X13942981Y-10997571D01*
X13952505Y-10978524D01*
X13962028Y-10969000D01*
X13981076Y-10959476D01*
X14133457Y-11140429D02*
X14142981Y-11149952D01*
X14133457Y-11159476D01*
X14123933Y-11149952D01*
X14133457Y-11140429D01*
X14133457Y-11159476D01*
X14266790Y-10959476D02*
X14285838Y-10959476D01*
X14304886Y-10969000D01*
X14314409Y-10978524D01*
X14323933Y-10997571D01*
X14333457Y-11035667D01*
X14333457Y-11083286D01*
X14323933Y-11121381D01*
X14314409Y-11140429D01*
X14304886Y-11149952D01*
X14285838Y-11159476D01*
X14266790Y-11159476D01*
X14247743Y-11149952D01*
X14238219Y-11140429D01*
X14228695Y-11121381D01*
X14219171Y-11083286D01*
X14219171Y-11035667D01*
X14228695Y-10997571D01*
X14238219Y-10978524D01*
X14247743Y-10969000D01*
X14266790Y-10959476D01*
X14400124Y-10959476D02*
X14523933Y-10959476D01*
X14457267Y-11035667D01*
X14485838Y-11035667D01*
X14504886Y-11045190D01*
X14514409Y-11054714D01*
X14523933Y-11073762D01*
X14523933Y-11121381D01*
X14514409Y-11140429D01*
X14504886Y-11149952D01*
X14485838Y-11159476D01*
X14428695Y-11159476D01*
X14409648Y-11149952D01*
X14400124Y-11140429D01*
X14590600Y-10959476D02*
X14723933Y-10959476D01*
X14638219Y-11159476D01*
X14885838Y-11026143D02*
X14885838Y-11159476D01*
X14838219Y-10949952D02*
X14790600Y-11092810D01*
X14914409Y-11092810D01*
X14981076Y-10959476D02*
X14981076Y-10997571D01*
X15057267Y-10959476D02*
X15057267Y-10997571D01*
X15352505Y-11235667D02*
X15342981Y-11226143D01*
X15323933Y-11197571D01*
X15314409Y-11178524D01*
X15304886Y-11149952D01*
X15295362Y-11102333D01*
X15295362Y-11064238D01*
X15304886Y-11016619D01*
X15314409Y-10988048D01*
X15323933Y-10969000D01*
X15342981Y-10940429D01*
X15352505Y-10930905D01*
X15409648Y-10959476D02*
X15533457Y-10959476D01*
X15466790Y-11035667D01*
X15495362Y-11035667D01*
X15514409Y-11045190D01*
X15523933Y-11054714D01*
X15533457Y-11073762D01*
X15533457Y-11121381D01*
X15523933Y-11140429D01*
X15514409Y-11149952D01*
X15495362Y-11159476D01*
X15438219Y-11159476D01*
X15419171Y-11149952D01*
X15409648Y-11140429D01*
X15771552Y-11159476D02*
X15771552Y-10959476D01*
X15857267Y-11159476D02*
X15857267Y-11054714D01*
X15847743Y-11035667D01*
X15828695Y-11026143D01*
X15800124Y-11026143D01*
X15781076Y-11035667D01*
X15771552Y-11045190D01*
X15981076Y-11159476D02*
X15962028Y-11149952D01*
X15952505Y-11140429D01*
X15942981Y-11121381D01*
X15942981Y-11064238D01*
X15952505Y-11045190D01*
X15962028Y-11035667D01*
X15981076Y-11026143D01*
X16009648Y-11026143D01*
X16028695Y-11035667D01*
X16038219Y-11045190D01*
X16047743Y-11064238D01*
X16047743Y-11121381D01*
X16038219Y-11140429D01*
X16028695Y-11149952D01*
X16009648Y-11159476D01*
X15981076Y-11159476D01*
X16162028Y-11159476D02*
X16142981Y-11149952D01*
X16133457Y-11130905D01*
X16133457Y-10959476D01*
X16314409Y-11149952D02*
X16295362Y-11159476D01*
X16257267Y-11159476D01*
X16238219Y-11149952D01*
X16228695Y-11130905D01*
X16228695Y-11054714D01*
X16238219Y-11035667D01*
X16257267Y-11026143D01*
X16295362Y-11026143D01*
X16314409Y-11035667D01*
X16323933Y-11054714D01*
X16323933Y-11073762D01*
X16228695Y-11092810D01*
X16400124Y-11149952D02*
X16419171Y-11159476D01*
X16457267Y-11159476D01*
X16476314Y-11149952D01*
X16485838Y-11130905D01*
X16485838Y-11121381D01*
X16476314Y-11102333D01*
X16457267Y-11092810D01*
X16428695Y-11092810D01*
X16409648Y-11083286D01*
X16400124Y-11064238D01*
X16400124Y-11054714D01*
X16409648Y-11035667D01*
X16428695Y-11026143D01*
X16457267Y-11026143D01*
X16476314Y-11035667D01*
X16552505Y-11235667D02*
X16562028Y-11226143D01*
X16581076Y-11197571D01*
X16590600Y-11178524D01*
X16600124Y-11149952D01*
X16609648Y-11102333D01*
X16609648Y-11064238D01*
X16600124Y-11016619D01*
X16590600Y-10988048D01*
X16581076Y-10969000D01*
X16562028Y-10940429D01*
X16552505Y-10930905D01*
D14*
X11730600Y-11283000D02*
X11730600Y-11383000D01*
X11680600Y-11333000D02*
X11780600Y-11333000D01*
D11*
X12142981Y-11423476D02*
X12028695Y-11423476D01*
X12085838Y-11423476D02*
X12085838Y-11223476D01*
X12066790Y-11252048D01*
X12047743Y-11271095D01*
X12028695Y-11280619D01*
X12228695Y-11404428D02*
X12238219Y-11413952D01*
X12228695Y-11423476D01*
X12219171Y-11413952D01*
X12228695Y-11404428D01*
X12228695Y-11423476D01*
X12362028Y-11223476D02*
X12381076Y-11223476D01*
X12400124Y-11233000D01*
X12409648Y-11242524D01*
X12419171Y-11261571D01*
X12428695Y-11299667D01*
X12428695Y-11347286D01*
X12419171Y-11385381D01*
X12409648Y-11404428D01*
X12400124Y-11413952D01*
X12381076Y-11423476D01*
X12362028Y-11423476D01*
X12342981Y-11413952D01*
X12333457Y-11404428D01*
X12323933Y-11385381D01*
X12314409Y-11347286D01*
X12314409Y-11299667D01*
X12323933Y-11261571D01*
X12333457Y-11242524D01*
X12342981Y-11233000D01*
X12362028Y-11223476D01*
X12552505Y-11223476D02*
X12571552Y-11223476D01*
X12590600Y-11233000D01*
X12600124Y-11242524D01*
X12609648Y-11261571D01*
X12619171Y-11299667D01*
X12619171Y-11347286D01*
X12609648Y-11385381D01*
X12600124Y-11404428D01*
X12590600Y-11413952D01*
X12571552Y-11423476D01*
X12552505Y-11423476D01*
X12533457Y-11413952D01*
X12523933Y-11404428D01*
X12514409Y-11385381D01*
X12504886Y-11347286D01*
X12504886Y-11299667D01*
X12514409Y-11261571D01*
X12523933Y-11242524D01*
X12533457Y-11233000D01*
X12552505Y-11223476D01*
X12742981Y-11223476D02*
X12762028Y-11223476D01*
X12781076Y-11233000D01*
X12790600Y-11242524D01*
X12800124Y-11261571D01*
X12809648Y-11299667D01*
X12809648Y-11347286D01*
X12800124Y-11385381D01*
X12790600Y-11404428D01*
X12781076Y-11413952D01*
X12762028Y-11423476D01*
X12742981Y-11423476D01*
X12723933Y-11413952D01*
X12714409Y-11404428D01*
X12704886Y-11385381D01*
X12695362Y-11347286D01*
X12695362Y-11299667D01*
X12704886Y-11261571D01*
X12714409Y-11242524D01*
X12723933Y-11233000D01*
X12742981Y-11223476D01*
X12895362Y-11423476D02*
X12895362Y-11290143D01*
X12895362Y-11309190D02*
X12904886Y-11299667D01*
X12923933Y-11290143D01*
X12952505Y-11290143D01*
X12971552Y-11299667D01*
X12981076Y-11318714D01*
X12981076Y-11423476D01*
X12981076Y-11318714D02*
X12990600Y-11299667D01*
X13009648Y-11290143D01*
X13038219Y-11290143D01*
X13057267Y-11299667D01*
X13066790Y-11318714D01*
X13066790Y-11423476D01*
X13162028Y-11423476D02*
X13162028Y-11290143D01*
X13162028Y-11309190D02*
X13171552Y-11299667D01*
X13190600Y-11290143D01*
X13219171Y-11290143D01*
X13238219Y-11299667D01*
X13247743Y-11318714D01*
X13247743Y-11423476D01*
X13247743Y-11318714D02*
X13257267Y-11299667D01*
X13276314Y-11290143D01*
X13304886Y-11290143D01*
X13323933Y-11299667D01*
X13333457Y-11318714D01*
X13333457Y-11423476D01*
X13723933Y-11213952D02*
X13552505Y-11471095D01*
X13981076Y-11223476D02*
X14000124Y-11223476D01*
X14019171Y-11233000D01*
X14028695Y-11242524D01*
X14038219Y-11261571D01*
X14047743Y-11299667D01*
X14047743Y-11347286D01*
X14038219Y-11385381D01*
X14028695Y-11404428D01*
X14019171Y-11413952D01*
X14000124Y-11423476D01*
X13981076Y-11423476D01*
X13962028Y-11413952D01*
X13952505Y-11404428D01*
X13942981Y-11385381D01*
X13933457Y-11347286D01*
X13933457Y-11299667D01*
X13942981Y-11261571D01*
X13952505Y-11242524D01*
X13962028Y-11233000D01*
X13981076Y-11223476D01*
X14133457Y-11404428D02*
X14142981Y-11413952D01*
X14133457Y-11423476D01*
X14123933Y-11413952D01*
X14133457Y-11404428D01*
X14133457Y-11423476D01*
X14266790Y-11223476D02*
X14285838Y-11223476D01*
X14304886Y-11233000D01*
X14314409Y-11242524D01*
X14323933Y-11261571D01*
X14333457Y-11299667D01*
X14333457Y-11347286D01*
X14323933Y-11385381D01*
X14314409Y-11404428D01*
X14304886Y-11413952D01*
X14285838Y-11423476D01*
X14266790Y-11423476D01*
X14247743Y-11413952D01*
X14238219Y-11404428D01*
X14228695Y-11385381D01*
X14219171Y-11347286D01*
X14219171Y-11299667D01*
X14228695Y-11261571D01*
X14238219Y-11242524D01*
X14247743Y-11233000D01*
X14266790Y-11223476D01*
X14400124Y-11223476D02*
X14523933Y-11223476D01*
X14457267Y-11299667D01*
X14485838Y-11299667D01*
X14504886Y-11309190D01*
X14514409Y-11318714D01*
X14523933Y-11337762D01*
X14523933Y-11385381D01*
X14514409Y-11404428D01*
X14504886Y-11413952D01*
X14485838Y-11423476D01*
X14428695Y-11423476D01*
X14409648Y-11413952D01*
X14400124Y-11404428D01*
X14619171Y-11423476D02*
X14657267Y-11423476D01*
X14676314Y-11413952D01*
X14685838Y-11404428D01*
X14704886Y-11375857D01*
X14714409Y-11337762D01*
X14714409Y-11261571D01*
X14704886Y-11242524D01*
X14695362Y-11233000D01*
X14676314Y-11223476D01*
X14638219Y-11223476D01*
X14619171Y-11233000D01*
X14609648Y-11242524D01*
X14600124Y-11261571D01*
X14600124Y-11309190D01*
X14609648Y-11328238D01*
X14619171Y-11337762D01*
X14638219Y-11347286D01*
X14676314Y-11347286D01*
X14695362Y-11337762D01*
X14704886Y-11328238D01*
X14714409Y-11309190D01*
X14885838Y-11290143D02*
X14885838Y-11423476D01*
X14838219Y-11213952D02*
X14790600Y-11356809D01*
X14914409Y-11356809D01*
X14981076Y-11223476D02*
X14981076Y-11261571D01*
X15057267Y-11223476D02*
X15057267Y-11261571D01*
X15352505Y-11499667D02*
X15342981Y-11490143D01*
X15323933Y-11461571D01*
X15314409Y-11442524D01*
X15304886Y-11413952D01*
X15295362Y-11366333D01*
X15295362Y-11328238D01*
X15304886Y-11280619D01*
X15314409Y-11252048D01*
X15323933Y-11233000D01*
X15342981Y-11204428D01*
X15352505Y-11194905D01*
X15514409Y-11290143D02*
X15514409Y-11423476D01*
X15466790Y-11213952D02*
X15419171Y-11356809D01*
X15542981Y-11356809D01*
X15704886Y-11290143D02*
X15704886Y-11423476D01*
X15657267Y-11213952D02*
X15609648Y-11356809D01*
X15733457Y-11356809D01*
X15962028Y-11423476D02*
X15962028Y-11223476D01*
X16047743Y-11423476D02*
X16047743Y-11318714D01*
X16038219Y-11299667D01*
X16019171Y-11290143D01*
X15990600Y-11290143D01*
X15971552Y-11299667D01*
X15962028Y-11309190D01*
X16171552Y-11423476D02*
X16152505Y-11413952D01*
X16142981Y-11404428D01*
X16133457Y-11385381D01*
X16133457Y-11328238D01*
X16142981Y-11309190D01*
X16152505Y-11299667D01*
X16171552Y-11290143D01*
X16200124Y-11290143D01*
X16219171Y-11299667D01*
X16228695Y-11309190D01*
X16238219Y-11328238D01*
X16238219Y-11385381D01*
X16228695Y-11404428D01*
X16219171Y-11413952D01*
X16200124Y-11423476D01*
X16171552Y-11423476D01*
X16352505Y-11423476D02*
X16333457Y-11413952D01*
X16323933Y-11394905D01*
X16323933Y-11223476D01*
X16504886Y-11413952D02*
X16485838Y-11423476D01*
X16447743Y-11423476D01*
X16428695Y-11413952D01*
X16419171Y-11394905D01*
X16419171Y-11318714D01*
X16428695Y-11299667D01*
X16447743Y-11290143D01*
X16485838Y-11290143D01*
X16504886Y-11299667D01*
X16514409Y-11318714D01*
X16514409Y-11337762D01*
X16419171Y-11356809D01*
X16590600Y-11413952D02*
X16609648Y-11423476D01*
X16647743Y-11423476D01*
X16666790Y-11413952D01*
X16676314Y-11394905D01*
X16676314Y-11385381D01*
X16666790Y-11366333D01*
X16647743Y-11356809D01*
X16619171Y-11356809D01*
X16600124Y-11347286D01*
X16590600Y-11328238D01*
X16590600Y-11318714D01*
X16600124Y-11299667D01*
X16619171Y-11290143D01*
X16647743Y-11290143D01*
X16666790Y-11299667D01*
X16742981Y-11499667D02*
X16752505Y-11490143D01*
X16771552Y-11461571D01*
X16781076Y-11442524D01*
X16790600Y-11413952D01*
X16800124Y-11366333D01*
X16800124Y-11328238D01*
X16790600Y-11280619D01*
X16781076Y-11252048D01*
X16771552Y-11233000D01*
X16752505Y-11204428D01*
X16742981Y-11194905D01*
D15*
X11761562Y-11642962D02*
X11761562Y-11551038D01*
X11669638Y-11551038D01*
X11669638Y-11642962D01*
X11761562Y-11642962D01*
D11*
X12142981Y-11687476D02*
X12028695Y-11687476D01*
X12085838Y-11687476D02*
X12085838Y-11487476D01*
X12066790Y-11516048D01*
X12047743Y-11535095D01*
X12028695Y-11544619D01*
X12228695Y-11668428D02*
X12238219Y-11677952D01*
X12228695Y-11687476D01*
X12219171Y-11677952D01*
X12228695Y-11668428D01*
X12228695Y-11687476D01*
X12304886Y-11487476D02*
X12428695Y-11487476D01*
X12362028Y-11563667D01*
X12390600Y-11563667D01*
X12409648Y-11573190D01*
X12419171Y-11582714D01*
X12428695Y-11601762D01*
X12428695Y-11649381D01*
X12419171Y-11668428D01*
X12409648Y-11677952D01*
X12390600Y-11687476D01*
X12333457Y-11687476D01*
X12314409Y-11677952D01*
X12304886Y-11668428D01*
X12552505Y-11487476D02*
X12571552Y-11487476D01*
X12590600Y-11497000D01*
X12600124Y-11506524D01*
X12609648Y-11525571D01*
X12619171Y-11563667D01*
X12619171Y-11611286D01*
X12609648Y-11649381D01*
X12600124Y-11668428D01*
X12590600Y-11677952D01*
X12571552Y-11687476D01*
X12552505Y-11687476D01*
X12533457Y-11677952D01*
X12523933Y-11668428D01*
X12514409Y-11649381D01*
X12504886Y-11611286D01*
X12504886Y-11563667D01*
X12514409Y-11525571D01*
X12523933Y-11506524D01*
X12533457Y-11497000D01*
X12552505Y-11487476D01*
X12742981Y-11487476D02*
X12762028Y-11487476D01*
X12781076Y-11497000D01*
X12790600Y-11506524D01*
X12800124Y-11525571D01*
X12809648Y-11563667D01*
X12809648Y-11611286D01*
X12800124Y-11649381D01*
X12790600Y-11668428D01*
X12781076Y-11677952D01*
X12762028Y-11687476D01*
X12742981Y-11687476D01*
X12723933Y-11677952D01*
X12714409Y-11668428D01*
X12704886Y-11649381D01*
X12695362Y-11611286D01*
X12695362Y-11563667D01*
X12704886Y-11525571D01*
X12714409Y-11506524D01*
X12723933Y-11497000D01*
X12742981Y-11487476D01*
X12895362Y-11687476D02*
X12895362Y-11554143D01*
X12895362Y-11573190D02*
X12904886Y-11563667D01*
X12923933Y-11554143D01*
X12952505Y-11554143D01*
X12971552Y-11563667D01*
X12981076Y-11582714D01*
X12981076Y-11687476D01*
X12981076Y-11582714D02*
X12990600Y-11563667D01*
X13009648Y-11554143D01*
X13038219Y-11554143D01*
X13057267Y-11563667D01*
X13066790Y-11582714D01*
X13066790Y-11687476D01*
X13162028Y-11687476D02*
X13162028Y-11554143D01*
X13162028Y-11573190D02*
X13171552Y-11563667D01*
X13190600Y-11554143D01*
X13219171Y-11554143D01*
X13238219Y-11563667D01*
X13247743Y-11582714D01*
X13247743Y-11687476D01*
X13247743Y-11582714D02*
X13257267Y-11563667D01*
X13276314Y-11554143D01*
X13304886Y-11554143D01*
X13323933Y-11563667D01*
X13333457Y-11582714D01*
X13333457Y-11687476D01*
X13723933Y-11477952D02*
X13552505Y-11735095D01*
X13981076Y-11487476D02*
X14000124Y-11487476D01*
X14019171Y-11497000D01*
X14028695Y-11506524D01*
X14038219Y-11525571D01*
X14047743Y-11563667D01*
X14047743Y-11611286D01*
X14038219Y-11649381D01*
X14028695Y-11668428D01*
X14019171Y-11677952D01*
X14000124Y-11687476D01*
X13981076Y-11687476D01*
X13962028Y-11677952D01*
X13952505Y-11668428D01*
X13942981Y-11649381D01*
X13933457Y-11611286D01*
X13933457Y-11563667D01*
X13942981Y-11525571D01*
X13952505Y-11506524D01*
X13962028Y-11497000D01*
X13981076Y-11487476D01*
X14133457Y-11668428D02*
X14142981Y-11677952D01*
X14133457Y-11687476D01*
X14123933Y-11677952D01*
X14133457Y-11668428D01*
X14133457Y-11687476D01*
X14266790Y-11487476D02*
X14285838Y-11487476D01*
X14304886Y-11497000D01*
X14314409Y-11506524D01*
X14323933Y-11525571D01*
X14333457Y-11563667D01*
X14333457Y-11611286D01*
X14323933Y-11649381D01*
X14314409Y-11668428D01*
X14304886Y-11677952D01*
X14285838Y-11687476D01*
X14266790Y-11687476D01*
X14247743Y-11677952D01*
X14238219Y-11668428D01*
X14228695Y-11649381D01*
X14219171Y-11611286D01*
X14219171Y-11563667D01*
X14228695Y-11525571D01*
X14238219Y-11506524D01*
X14247743Y-11497000D01*
X14266790Y-11487476D01*
X14514409Y-11487476D02*
X14419171Y-11487476D01*
X14409648Y-11582714D01*
X14419171Y-11573190D01*
X14438219Y-11563667D01*
X14485838Y-11563667D01*
X14504886Y-11573190D01*
X14514409Y-11582714D01*
X14523933Y-11601762D01*
X14523933Y-11649381D01*
X14514409Y-11668428D01*
X14504886Y-11677952D01*
X14485838Y-11687476D01*
X14438219Y-11687476D01*
X14419171Y-11677952D01*
X14409648Y-11668428D01*
X14714409Y-11687476D02*
X14600124Y-11687476D01*
X14657267Y-11687476D02*
X14657267Y-11487476D01*
X14638219Y-11516048D01*
X14619171Y-11535095D01*
X14600124Y-11544619D01*
X14790600Y-11506524D02*
X14800124Y-11497000D01*
X14819171Y-11487476D01*
X14866790Y-11487476D01*
X14885838Y-11497000D01*
X14895362Y-11506524D01*
X14904886Y-11525571D01*
X14904886Y-11544619D01*
X14895362Y-11573190D01*
X14781076Y-11687476D01*
X14904886Y-11687476D01*
X14981076Y-11487476D02*
X14981076Y-11525571D01*
X15057267Y-11487476D02*
X15057267Y-11525571D01*
X15352505Y-11763667D02*
X15342981Y-11754143D01*
X15323933Y-11725571D01*
X15314409Y-11706524D01*
X15304886Y-11677952D01*
X15295362Y-11630333D01*
X15295362Y-11592238D01*
X15304886Y-11544619D01*
X15314409Y-11516048D01*
X15323933Y-11497000D01*
X15342981Y-11468428D01*
X15352505Y-11458905D01*
X15419171Y-11506524D02*
X15428695Y-11497000D01*
X15447743Y-11487476D01*
X15495362Y-11487476D01*
X15514409Y-11497000D01*
X15523933Y-11506524D01*
X15533457Y-11525571D01*
X15533457Y-11544619D01*
X15523933Y-11573190D01*
X15409648Y-11687476D01*
X15533457Y-11687476D01*
X15771552Y-11687476D02*
X15771552Y-11487476D01*
X15857267Y-11687476D02*
X15857267Y-11582714D01*
X15847743Y-11563667D01*
X15828695Y-11554143D01*
X15800124Y-11554143D01*
X15781076Y-11563667D01*
X15771552Y-11573190D01*
X15981076Y-11687476D02*
X15962028Y-11677952D01*
X15952505Y-11668428D01*
X15942981Y-11649381D01*
X15942981Y-11592238D01*
X15952505Y-11573190D01*
X15962028Y-11563667D01*
X15981076Y-11554143D01*
X16009648Y-11554143D01*
X16028695Y-11563667D01*
X16038219Y-11573190D01*
X16047743Y-11592238D01*
X16047743Y-11649381D01*
X16038219Y-11668428D01*
X16028695Y-11677952D01*
X16009648Y-11687476D01*
X15981076Y-11687476D01*
X16162028Y-11687476D02*
X16142981Y-11677952D01*
X16133457Y-11658905D01*
X16133457Y-11487476D01*
X16314409Y-11677952D02*
X16295362Y-11687476D01*
X16257267Y-11687476D01*
X16238219Y-11677952D01*
X16228695Y-11658905D01*
X16228695Y-11582714D01*
X16238219Y-11563667D01*
X16257267Y-11554143D01*
X16295362Y-11554143D01*
X16314409Y-11563667D01*
X16323933Y-11582714D01*
X16323933Y-11601762D01*
X16228695Y-11620809D01*
X16400124Y-11677952D02*
X16419171Y-11687476D01*
X16457267Y-11687476D01*
X16476314Y-11677952D01*
X16485838Y-11658905D01*
X16485838Y-11649381D01*
X16476314Y-11630333D01*
X16457267Y-11620809D01*
X16428695Y-11620809D01*
X16409648Y-11611286D01*
X16400124Y-11592238D01*
X16400124Y-11582714D01*
X16409648Y-11563667D01*
X16428695Y-11554143D01*
X16457267Y-11554143D01*
X16476314Y-11563667D01*
X16552505Y-11763667D02*
X16562028Y-11754143D01*
X16581076Y-11725571D01*
X16590600Y-11706524D01*
X16600124Y-11677952D01*
X16609648Y-11630333D01*
X16609648Y-11592238D01*
X16600124Y-11544619D01*
X16590600Y-11516048D01*
X16581076Y-11497000D01*
X16562028Y-11468428D01*
X16552505Y-11458905D01*
D16*
X11695600Y-11946000D02*
X11780600Y-11861000D01*
X11695600Y-11776000D01*
X11610600Y-11861000D01*
X11695600Y-11946000D01*
D11*
X12142981Y-11951476D02*
X12028695Y-11951476D01*
X12085838Y-11951476D02*
X12085838Y-11751476D01*
X12066790Y-11780048D01*
X12047743Y-11799095D01*
X12028695Y-11808619D01*
X12228695Y-11932428D02*
X12238219Y-11941952D01*
X12228695Y-11951476D01*
X12219171Y-11941952D01*
X12228695Y-11932428D01*
X12228695Y-11951476D01*
X12304886Y-11751476D02*
X12438219Y-11751476D01*
X12352505Y-11951476D01*
X12552505Y-11751476D02*
X12571552Y-11751476D01*
X12590600Y-11761000D01*
X12600124Y-11770524D01*
X12609648Y-11789571D01*
X12619171Y-11827667D01*
X12619171Y-11875286D01*
X12609648Y-11913381D01*
X12600124Y-11932428D01*
X12590600Y-11941952D01*
X12571552Y-11951476D01*
X12552505Y-11951476D01*
X12533457Y-11941952D01*
X12523933Y-11932428D01*
X12514409Y-11913381D01*
X12504886Y-11875286D01*
X12504886Y-11827667D01*
X12514409Y-11789571D01*
X12523933Y-11770524D01*
X12533457Y-11761000D01*
X12552505Y-11751476D01*
X12742981Y-11751476D02*
X12762028Y-11751476D01*
X12781076Y-11761000D01*
X12790600Y-11770524D01*
X12800124Y-11789571D01*
X12809648Y-11827667D01*
X12809648Y-11875286D01*
X12800124Y-11913381D01*
X12790600Y-11932428D01*
X12781076Y-11941952D01*
X12762028Y-11951476D01*
X12742981Y-11951476D01*
X12723933Y-11941952D01*
X12714409Y-11932428D01*
X12704886Y-11913381D01*
X12695362Y-11875286D01*
X12695362Y-11827667D01*
X12704886Y-11789571D01*
X12714409Y-11770524D01*
X12723933Y-11761000D01*
X12742981Y-11751476D01*
X12895362Y-11951476D02*
X12895362Y-11818143D01*
X12895362Y-11837190D02*
X12904886Y-11827667D01*
X12923933Y-11818143D01*
X12952505Y-11818143D01*
X12971552Y-11827667D01*
X12981076Y-11846714D01*
X12981076Y-11951476D01*
X12981076Y-11846714D02*
X12990600Y-11827667D01*
X13009648Y-11818143D01*
X13038219Y-11818143D01*
X13057267Y-11827667D01*
X13066790Y-11846714D01*
X13066790Y-11951476D01*
X13162028Y-11951476D02*
X13162028Y-11818143D01*
X13162028Y-11837190D02*
X13171552Y-11827667D01*
X13190600Y-11818143D01*
X13219171Y-11818143D01*
X13238219Y-11827667D01*
X13247743Y-11846714D01*
X13247743Y-11951476D01*
X13247743Y-11846714D02*
X13257267Y-11827667D01*
X13276314Y-11818143D01*
X13304886Y-11818143D01*
X13323933Y-11827667D01*
X13333457Y-11846714D01*
X13333457Y-11951476D01*
X13723933Y-11741952D02*
X13552505Y-11999095D01*
X13981076Y-11751476D02*
X14000124Y-11751476D01*
X14019171Y-11761000D01*
X14028695Y-11770524D01*
X14038219Y-11789571D01*
X14047743Y-11827667D01*
X14047743Y-11875286D01*
X14038219Y-11913381D01*
X14028695Y-11932428D01*
X14019171Y-11941952D01*
X14000124Y-11951476D01*
X13981076Y-11951476D01*
X13962028Y-11941952D01*
X13952505Y-11932428D01*
X13942981Y-11913381D01*
X13933457Y-11875286D01*
X13933457Y-11827667D01*
X13942981Y-11789571D01*
X13952505Y-11770524D01*
X13962028Y-11761000D01*
X13981076Y-11751476D01*
X14133457Y-11932428D02*
X14142981Y-11941952D01*
X14133457Y-11951476D01*
X14123933Y-11941952D01*
X14133457Y-11932428D01*
X14133457Y-11951476D01*
X14266790Y-11751476D02*
X14285838Y-11751476D01*
X14304886Y-11761000D01*
X14314409Y-11770524D01*
X14323933Y-11789571D01*
X14333457Y-11827667D01*
X14333457Y-11875286D01*
X14323933Y-11913381D01*
X14314409Y-11932428D01*
X14304886Y-11941952D01*
X14285838Y-11951476D01*
X14266790Y-11951476D01*
X14247743Y-11941952D01*
X14238219Y-11932428D01*
X14228695Y-11913381D01*
X14219171Y-11875286D01*
X14219171Y-11827667D01*
X14228695Y-11789571D01*
X14238219Y-11770524D01*
X14247743Y-11761000D01*
X14266790Y-11751476D01*
X14504886Y-11751476D02*
X14466790Y-11751476D01*
X14447743Y-11761000D01*
X14438219Y-11770524D01*
X14419171Y-11799095D01*
X14409648Y-11837190D01*
X14409648Y-11913381D01*
X14419171Y-11932428D01*
X14428695Y-11941952D01*
X14447743Y-11951476D01*
X14485838Y-11951476D01*
X14504886Y-11941952D01*
X14514409Y-11932428D01*
X14523933Y-11913381D01*
X14523933Y-11865762D01*
X14514409Y-11846714D01*
X14504886Y-11837190D01*
X14485838Y-11827667D01*
X14447743Y-11827667D01*
X14428695Y-11837190D01*
X14419171Y-11846714D01*
X14409648Y-11865762D01*
X14695362Y-11751476D02*
X14657267Y-11751476D01*
X14638219Y-11761000D01*
X14628695Y-11770524D01*
X14609648Y-11799095D01*
X14600124Y-11837190D01*
X14600124Y-11913381D01*
X14609648Y-11932428D01*
X14619171Y-11941952D01*
X14638219Y-11951476D01*
X14676314Y-11951476D01*
X14695362Y-11941952D01*
X14704886Y-11932428D01*
X14714409Y-11913381D01*
X14714409Y-11865762D01*
X14704886Y-11846714D01*
X14695362Y-11837190D01*
X14676314Y-11827667D01*
X14638219Y-11827667D01*
X14619171Y-11837190D01*
X14609648Y-11846714D01*
X14600124Y-11865762D01*
X14809648Y-11951476D02*
X14847743Y-11951476D01*
X14866790Y-11941952D01*
X14876314Y-11932428D01*
X14895362Y-11903857D01*
X14904886Y-11865762D01*
X14904886Y-11789571D01*
X14895362Y-11770524D01*
X14885838Y-11761000D01*
X14866790Y-11751476D01*
X14828695Y-11751476D01*
X14809648Y-11761000D01*
X14800124Y-11770524D01*
X14790600Y-11789571D01*
X14790600Y-11837190D01*
X14800124Y-11856238D01*
X14809648Y-11865762D01*
X14828695Y-11875286D01*
X14866790Y-11875286D01*
X14885838Y-11865762D01*
X14895362Y-11856238D01*
X14904886Y-11837190D01*
X14981076Y-11751476D02*
X14981076Y-11789571D01*
X15057267Y-11751476D02*
X15057267Y-11789571D01*
X15352505Y-12027667D02*
X15342981Y-12018143D01*
X15323933Y-11989571D01*
X15314409Y-11970524D01*
X15304886Y-11941952D01*
X15295362Y-11894333D01*
X15295362Y-11856238D01*
X15304886Y-11808619D01*
X15314409Y-11780048D01*
X15323933Y-11761000D01*
X15342981Y-11732428D01*
X15352505Y-11722905D01*
X15514409Y-11818143D02*
X15514409Y-11951476D01*
X15466790Y-11741952D02*
X15419171Y-11884809D01*
X15542981Y-11884809D01*
X15771552Y-11951476D02*
X15771552Y-11751476D01*
X15857267Y-11951476D02*
X15857267Y-11846714D01*
X15847743Y-11827667D01*
X15828695Y-11818143D01*
X15800124Y-11818143D01*
X15781076Y-11827667D01*
X15771552Y-11837190D01*
X15981076Y-11951476D02*
X15962028Y-11941952D01*
X15952505Y-11932428D01*
X15942981Y-11913381D01*
X15942981Y-11856238D01*
X15952505Y-11837190D01*
X15962028Y-11827667D01*
X15981076Y-11818143D01*
X16009648Y-11818143D01*
X16028695Y-11827667D01*
X16038219Y-11837190D01*
X16047743Y-11856238D01*
X16047743Y-11913381D01*
X16038219Y-11932428D01*
X16028695Y-11941952D01*
X16009648Y-11951476D01*
X15981076Y-11951476D01*
X16162028Y-11951476D02*
X16142981Y-11941952D01*
X16133457Y-11922905D01*
X16133457Y-11751476D01*
X16314409Y-11941952D02*
X16295362Y-11951476D01*
X16257267Y-11951476D01*
X16238219Y-11941952D01*
X16228695Y-11922905D01*
X16228695Y-11846714D01*
X16238219Y-11827667D01*
X16257267Y-11818143D01*
X16295362Y-11818143D01*
X16314409Y-11827667D01*
X16323933Y-11846714D01*
X16323933Y-11865762D01*
X16228695Y-11884809D01*
X16400124Y-11941952D02*
X16419171Y-11951476D01*
X16457267Y-11951476D01*
X16476314Y-11941952D01*
X16485838Y-11922905D01*
X16485838Y-11913381D01*
X16476314Y-11894333D01*
X16457267Y-11884809D01*
X16428695Y-11884809D01*
X16409648Y-11875286D01*
X16400124Y-11856238D01*
X16400124Y-11846714D01*
X16409648Y-11827667D01*
X16428695Y-11818143D01*
X16457267Y-11818143D01*
X16476314Y-11827667D01*
X16552505Y-12027667D02*
X16562028Y-12018143D01*
X16581076Y-11989571D01*
X16590600Y-11970524D01*
X16600124Y-11941952D01*
X16609648Y-11894333D01*
X16609648Y-11856238D01*
X16600124Y-11808619D01*
X16590600Y-11780048D01*
X16581076Y-11761000D01*
X16562028Y-11732428D01*
X16552505Y-11722905D01*
M02*
