G04 #@! TF.GenerationSoftware,KiCad,Pcbnew,(6.0.4)*
G04 #@! TF.CreationDate,2022-06-19T17:23:47+02:00*
G04 #@! TF.ProjectId,Klipper nano expander,4b6c6970-7065-4722-906e-616e6f206578,1.0*
G04 #@! TF.SameCoordinates,Original*
G04 #@! TF.FileFunction,Legend,Bot*
G04 #@! TF.FilePolarity,Positive*
%FSLAX46Y46*%
G04 Gerber Fmt 4.6, Leading zero omitted, Abs format (unit mm)*
G04 Created by KiCad (PCBNEW (6.0.4)) date 2022-06-19 17:23:47*
%MOMM*%
%LPD*%
G01*
G04 APERTURE LIST*
G04 Aperture macros list*
%AMRoundRect*
0 Rectangle with rounded corners*
0 $1 Rounding radius*
0 $2 $3 $4 $5 $6 $7 $8 $9 X,Y pos of 4 corners*
0 Add a 4 corners polygon primitive as box body*
4,1,4,$2,$3,$4,$5,$6,$7,$8,$9,$2,$3,0*
0 Add four circle primitives for the rounded corners*
1,1,$1+$1,$2,$3*
1,1,$1+$1,$4,$5*
1,1,$1+$1,$6,$7*
1,1,$1+$1,$8,$9*
0 Add four rect primitives between the rounded corners*
20,1,$1+$1,$2,$3,$4,$5,0*
20,1,$1+$1,$4,$5,$6,$7,0*
20,1,$1+$1,$6,$7,$8,$9,0*
20,1,$1+$1,$8,$9,$2,$3,0*%
G04 Aperture macros list end*
%ADD10C,0.100000*%
%ADD11C,0.200000*%
%ADD12C,0.300000*%
%ADD13C,0.150000*%
%ADD14C,0.120000*%
%ADD15RoundRect,0.250000X-0.600000X-0.750000X0.600000X-0.750000X0.600000X0.750000X-0.600000X0.750000X0*%
%ADD16O,1.700000X2.000000*%
%ADD17RoundRect,0.250000X-0.725000X0.600000X-0.725000X-0.600000X0.725000X-0.600000X0.725000X0.600000X0*%
%ADD18O,1.950000X1.700000*%
%ADD19C,2.000000*%
%ADD20C,2.500000*%
%ADD21RoundRect,0.250000X0.600000X0.750000X-0.600000X0.750000X-0.600000X-0.750000X0.600000X-0.750000X0*%
%ADD22R,2.600000X2.600000*%
%ADD23C,2.600000*%
%ADD24RoundRect,0.250000X-0.750000X0.600000X-0.750000X-0.600000X0.750000X-0.600000X0.750000X0.600000X0*%
%ADD25O,2.000000X1.700000*%
%ADD26RoundRect,0.250000X0.450000X-0.262500X0.450000X0.262500X-0.450000X0.262500X-0.450000X-0.262500X0*%
%ADD27RoundRect,0.250000X0.250000X0.475000X-0.250000X0.475000X-0.250000X-0.475000X0.250000X-0.475000X0*%
%ADD28RoundRect,0.250000X-0.250000X-0.475000X0.250000X-0.475000X0.250000X0.475000X-0.250000X0.475000X0*%
%ADD29RoundRect,0.150000X0.587500X0.150000X-0.587500X0.150000X-0.587500X-0.150000X0.587500X-0.150000X0*%
%ADD30RoundRect,0.250000X-0.450000X0.262500X-0.450000X-0.262500X0.450000X-0.262500X0.450000X0.262500X0*%
%ADD31RoundRect,0.250000X0.262500X0.450000X-0.262500X0.450000X-0.262500X-0.450000X0.262500X-0.450000X0*%
%ADD32RoundRect,0.250000X-0.262500X-0.450000X0.262500X-0.450000X0.262500X0.450000X-0.262500X0.450000X0*%
%ADD33C,1.780000*%
%ADD34R,1.600000X1.600000*%
%ADD35O,1.600000X1.600000*%
%ADD36RoundRect,0.250000X0.475000X-0.250000X0.475000X0.250000X-0.475000X0.250000X-0.475000X-0.250000X0*%
%ADD37RoundRect,0.150000X-0.587500X-0.150000X0.587500X-0.150000X0.587500X0.150000X-0.587500X0.150000X0*%
G04 APERTURE END LIST*
D10*
X121669285Y-98527428D02*
X120859761Y-98527428D01*
X120764523Y-98563142D01*
X120716904Y-98598857D01*
X120669285Y-98670285D01*
X120669285Y-98777428D01*
X120716904Y-98848857D01*
X121050238Y-98527428D02*
X121002619Y-98598857D01*
X121002619Y-98741714D01*
X121050238Y-98813142D01*
X121097857Y-98848857D01*
X121193095Y-98884571D01*
X121478809Y-98884571D01*
X121574047Y-98848857D01*
X121621666Y-98813142D01*
X121669285Y-98741714D01*
X121669285Y-98598857D01*
X121621666Y-98527428D01*
X121002619Y-98170285D02*
X121669285Y-98170285D01*
X122002619Y-98170285D02*
X121955000Y-98206000D01*
X121907380Y-98170285D01*
X121955000Y-98134571D01*
X122002619Y-98170285D01*
X121907380Y-98170285D01*
X121669285Y-97920285D02*
X121669285Y-97634571D01*
X122002619Y-97813142D02*
X121145476Y-97813142D01*
X121050238Y-97777428D01*
X121002619Y-97706000D01*
X121002619Y-97634571D01*
X121002619Y-97384571D02*
X122002619Y-97384571D01*
X121002619Y-97063142D02*
X121526428Y-97063142D01*
X121621666Y-97098857D01*
X121669285Y-97170285D01*
X121669285Y-97277428D01*
X121621666Y-97348857D01*
X121574047Y-97384571D01*
X121669285Y-96384571D02*
X121002619Y-96384571D01*
X121669285Y-96706000D02*
X121145476Y-96706000D01*
X121050238Y-96670285D01*
X121002619Y-96598857D01*
X121002619Y-96491714D01*
X121050238Y-96420285D01*
X121097857Y-96384571D01*
X121002619Y-96027428D02*
X122002619Y-96027428D01*
X121621666Y-96027428D02*
X121669285Y-95956000D01*
X121669285Y-95813142D01*
X121621666Y-95741714D01*
X121574047Y-95706000D01*
X121478809Y-95670285D01*
X121193095Y-95670285D01*
X121097857Y-95706000D01*
X121050238Y-95741714D01*
X121002619Y-95813142D01*
X121002619Y-95956000D01*
X121050238Y-96027428D01*
X121097857Y-95348857D02*
X121050238Y-95313142D01*
X121002619Y-95348857D01*
X121050238Y-95384571D01*
X121097857Y-95348857D01*
X121002619Y-95348857D01*
X121050238Y-94670285D02*
X121002619Y-94741714D01*
X121002619Y-94884571D01*
X121050238Y-94956000D01*
X121097857Y-94991714D01*
X121193095Y-95027428D01*
X121478809Y-95027428D01*
X121574047Y-94991714D01*
X121621666Y-94956000D01*
X121669285Y-94884571D01*
X121669285Y-94741714D01*
X121621666Y-94670285D01*
X121002619Y-94241714D02*
X121050238Y-94313142D01*
X121097857Y-94348857D01*
X121193095Y-94384571D01*
X121478809Y-94384571D01*
X121574047Y-94348857D01*
X121621666Y-94313142D01*
X121669285Y-94241714D01*
X121669285Y-94134571D01*
X121621666Y-94063142D01*
X121574047Y-94027428D01*
X121478809Y-93991714D01*
X121193095Y-93991714D01*
X121097857Y-94027428D01*
X121050238Y-94063142D01*
X121002619Y-94134571D01*
X121002619Y-94241714D01*
X121002619Y-93670285D02*
X121669285Y-93670285D01*
X121574047Y-93670285D02*
X121621666Y-93634571D01*
X121669285Y-93563142D01*
X121669285Y-93456000D01*
X121621666Y-93384571D01*
X121526428Y-93348857D01*
X121002619Y-93348857D01*
X121526428Y-93348857D02*
X121621666Y-93313142D01*
X121669285Y-93241714D01*
X121669285Y-93134571D01*
X121621666Y-93063142D01*
X121526428Y-93027428D01*
X121002619Y-93027428D01*
X122050238Y-92134571D02*
X120764523Y-92777428D01*
X121002619Y-91777428D02*
X121050238Y-91848857D01*
X121097857Y-91884571D01*
X121193095Y-91920285D01*
X121478809Y-91920285D01*
X121574047Y-91884571D01*
X121621666Y-91848857D01*
X121669285Y-91777428D01*
X121669285Y-91670285D01*
X121621666Y-91598857D01*
X121574047Y-91563142D01*
X121478809Y-91527428D01*
X121193095Y-91527428D01*
X121097857Y-91563142D01*
X121050238Y-91598857D01*
X121002619Y-91670285D01*
X121002619Y-91777428D01*
X121002619Y-91206000D02*
X121669285Y-91206000D01*
X121478809Y-91206000D02*
X121574047Y-91170285D01*
X121621666Y-91134571D01*
X121669285Y-91063142D01*
X121669285Y-90991714D01*
X121002619Y-90634571D02*
X121050238Y-90706000D01*
X121097857Y-90741714D01*
X121193095Y-90777428D01*
X121478809Y-90777428D01*
X121574047Y-90741714D01*
X121621666Y-90706000D01*
X121669285Y-90634571D01*
X121669285Y-90527428D01*
X121621666Y-90456000D01*
X121574047Y-90420285D01*
X121478809Y-90384571D01*
X121193095Y-90384571D01*
X121097857Y-90420285D01*
X121050238Y-90456000D01*
X121002619Y-90527428D01*
X121002619Y-90634571D01*
X121002619Y-90063142D02*
X122002619Y-90063142D01*
X121621666Y-90063142D02*
X121669285Y-89991714D01*
X121669285Y-89848857D01*
X121621666Y-89777428D01*
X121574047Y-89741714D01*
X121478809Y-89706000D01*
X121193095Y-89706000D01*
X121097857Y-89741714D01*
X121050238Y-89777428D01*
X121002619Y-89848857D01*
X121002619Y-89991714D01*
X121050238Y-90063142D01*
X121002619Y-89063142D02*
X121526428Y-89063142D01*
X121621666Y-89098857D01*
X121669285Y-89170285D01*
X121669285Y-89313142D01*
X121621666Y-89384571D01*
X121050238Y-89063142D02*
X121002619Y-89134571D01*
X121002619Y-89313142D01*
X121050238Y-89384571D01*
X121145476Y-89420285D01*
X121240714Y-89420285D01*
X121335952Y-89384571D01*
X121383571Y-89313142D01*
X121383571Y-89134571D01*
X121431190Y-89063142D01*
X121002619Y-88706000D02*
X121669285Y-88706000D01*
X121478809Y-88706000D02*
X121574047Y-88670285D01*
X121621666Y-88634571D01*
X121669285Y-88563142D01*
X121669285Y-88491714D01*
X121002619Y-87920285D02*
X122002619Y-87920285D01*
X121050238Y-87920285D02*
X121002619Y-87991714D01*
X121002619Y-88134571D01*
X121050238Y-88206000D01*
X121097857Y-88241714D01*
X121193095Y-88277428D01*
X121478809Y-88277428D01*
X121574047Y-88241714D01*
X121621666Y-88206000D01*
X121669285Y-88134571D01*
X121669285Y-87991714D01*
X121621666Y-87920285D01*
X121050238Y-87277428D02*
X121002619Y-87348857D01*
X121002619Y-87491714D01*
X121050238Y-87563142D01*
X121145476Y-87598857D01*
X121526428Y-87598857D01*
X121621666Y-87563142D01*
X121669285Y-87491714D01*
X121669285Y-87348857D01*
X121621666Y-87277428D01*
X121526428Y-87241714D01*
X121431190Y-87241714D01*
X121335952Y-87598857D01*
X121669285Y-87027428D02*
X121669285Y-86741714D01*
X122002619Y-86920285D02*
X121145476Y-86920285D01*
X121050238Y-86884571D01*
X121002619Y-86813142D01*
X121002619Y-86741714D01*
X122050238Y-85956000D02*
X120764523Y-86598857D01*
X119392619Y-98652428D02*
X120392619Y-98652428D01*
X119773571Y-98581000D02*
X119392619Y-98366714D01*
X120059285Y-98366714D02*
X119678333Y-98652428D01*
X119392619Y-97938142D02*
X119440238Y-98009571D01*
X119535476Y-98045285D01*
X120392619Y-98045285D01*
X119392619Y-97652428D02*
X120059285Y-97652428D01*
X120392619Y-97652428D02*
X120345000Y-97688142D01*
X120297380Y-97652428D01*
X120345000Y-97616714D01*
X120392619Y-97652428D01*
X120297380Y-97652428D01*
X120059285Y-97295285D02*
X119059285Y-97295285D01*
X120011666Y-97295285D02*
X120059285Y-97223857D01*
X120059285Y-97081000D01*
X120011666Y-97009571D01*
X119964047Y-96973857D01*
X119868809Y-96938142D01*
X119583095Y-96938142D01*
X119487857Y-96973857D01*
X119440238Y-97009571D01*
X119392619Y-97081000D01*
X119392619Y-97223857D01*
X119440238Y-97295285D01*
X120059285Y-96616714D02*
X119059285Y-96616714D01*
X120011666Y-96616714D02*
X120059285Y-96545285D01*
X120059285Y-96402428D01*
X120011666Y-96331000D01*
X119964047Y-96295285D01*
X119868809Y-96259571D01*
X119583095Y-96259571D01*
X119487857Y-96295285D01*
X119440238Y-96331000D01*
X119392619Y-96402428D01*
X119392619Y-96545285D01*
X119440238Y-96616714D01*
X119440238Y-95652428D02*
X119392619Y-95723857D01*
X119392619Y-95866714D01*
X119440238Y-95938142D01*
X119535476Y-95973857D01*
X119916428Y-95973857D01*
X120011666Y-95938142D01*
X120059285Y-95866714D01*
X120059285Y-95723857D01*
X120011666Y-95652428D01*
X119916428Y-95616714D01*
X119821190Y-95616714D01*
X119725952Y-95973857D01*
X119392619Y-95295285D02*
X120059285Y-95295285D01*
X119868809Y-95295285D02*
X119964047Y-95259571D01*
X120011666Y-95223857D01*
X120059285Y-95152428D01*
X120059285Y-95081000D01*
X119297380Y-95009571D02*
X119297380Y-94438142D01*
X120059285Y-94259571D02*
X119392619Y-94259571D01*
X119964047Y-94259571D02*
X120011666Y-94223857D01*
X120059285Y-94152428D01*
X120059285Y-94045285D01*
X120011666Y-93973857D01*
X119916428Y-93938142D01*
X119392619Y-93938142D01*
X119392619Y-93259571D02*
X119916428Y-93259571D01*
X120011666Y-93295285D01*
X120059285Y-93366714D01*
X120059285Y-93509571D01*
X120011666Y-93581000D01*
X119440238Y-93259571D02*
X119392619Y-93331000D01*
X119392619Y-93509571D01*
X119440238Y-93581000D01*
X119535476Y-93616714D01*
X119630714Y-93616714D01*
X119725952Y-93581000D01*
X119773571Y-93509571D01*
X119773571Y-93331000D01*
X119821190Y-93259571D01*
X120059285Y-92902428D02*
X119392619Y-92902428D01*
X119964047Y-92902428D02*
X120011666Y-92866714D01*
X120059285Y-92795285D01*
X120059285Y-92688142D01*
X120011666Y-92616714D01*
X119916428Y-92581000D01*
X119392619Y-92581000D01*
X119392619Y-92116714D02*
X119440238Y-92188142D01*
X119487857Y-92223857D01*
X119583095Y-92259571D01*
X119868809Y-92259571D01*
X119964047Y-92223857D01*
X120011666Y-92188142D01*
X120059285Y-92116714D01*
X120059285Y-92009571D01*
X120011666Y-91938142D01*
X119964047Y-91902428D01*
X119868809Y-91866714D01*
X119583095Y-91866714D01*
X119487857Y-91902428D01*
X119440238Y-91938142D01*
X119392619Y-92009571D01*
X119392619Y-92116714D01*
X119297380Y-91723857D02*
X119297380Y-91152428D01*
X119440238Y-90688142D02*
X119392619Y-90759571D01*
X119392619Y-90902428D01*
X119440238Y-90973857D01*
X119535476Y-91009571D01*
X119916428Y-91009571D01*
X120011666Y-90973857D01*
X120059285Y-90902428D01*
X120059285Y-90759571D01*
X120011666Y-90688142D01*
X119916428Y-90652428D01*
X119821190Y-90652428D01*
X119725952Y-91009571D01*
X119392619Y-90402428D02*
X120059285Y-90009571D01*
X120059285Y-90402428D02*
X119392619Y-90009571D01*
X120059285Y-89723857D02*
X119059285Y-89723857D01*
X120011666Y-89723857D02*
X120059285Y-89652428D01*
X120059285Y-89509571D01*
X120011666Y-89438142D01*
X119964047Y-89402428D01*
X119868809Y-89366714D01*
X119583095Y-89366714D01*
X119487857Y-89402428D01*
X119440238Y-89438142D01*
X119392619Y-89509571D01*
X119392619Y-89652428D01*
X119440238Y-89723857D01*
X119392619Y-88723857D02*
X119916428Y-88723857D01*
X120011666Y-88759571D01*
X120059285Y-88831000D01*
X120059285Y-88973857D01*
X120011666Y-89045285D01*
X119440238Y-88723857D02*
X119392619Y-88795285D01*
X119392619Y-88973857D01*
X119440238Y-89045285D01*
X119535476Y-89081000D01*
X119630714Y-89081000D01*
X119725952Y-89045285D01*
X119773571Y-88973857D01*
X119773571Y-88795285D01*
X119821190Y-88723857D01*
X120059285Y-88366714D02*
X119392619Y-88366714D01*
X119964047Y-88366714D02*
X120011666Y-88331000D01*
X120059285Y-88259571D01*
X120059285Y-88152428D01*
X120011666Y-88081000D01*
X119916428Y-88045285D01*
X119392619Y-88045285D01*
X119392619Y-87366714D02*
X120392619Y-87366714D01*
X119440238Y-87366714D02*
X119392619Y-87438142D01*
X119392619Y-87581000D01*
X119440238Y-87652428D01*
X119487857Y-87688142D01*
X119583095Y-87723857D01*
X119868809Y-87723857D01*
X119964047Y-87688142D01*
X120011666Y-87652428D01*
X120059285Y-87581000D01*
X120059285Y-87438142D01*
X120011666Y-87366714D01*
X119440238Y-86723857D02*
X119392619Y-86795285D01*
X119392619Y-86938142D01*
X119440238Y-87009571D01*
X119535476Y-87045285D01*
X119916428Y-87045285D01*
X120011666Y-87009571D01*
X120059285Y-86938142D01*
X120059285Y-86795285D01*
X120011666Y-86723857D01*
X119916428Y-86688142D01*
X119821190Y-86688142D01*
X119725952Y-87045285D01*
X119392619Y-86366714D02*
X120059285Y-86366714D01*
X119868809Y-86366714D02*
X119964047Y-86331000D01*
X120011666Y-86295285D01*
X120059285Y-86223857D01*
X120059285Y-86152428D01*
D11*
X129638619Y-93820666D02*
X130638619Y-93820666D01*
X129638619Y-93249238D01*
X130638619Y-93249238D01*
X129638619Y-92344476D02*
X130162428Y-92344476D01*
X130257666Y-92392095D01*
X130305285Y-92487333D01*
X130305285Y-92677809D01*
X130257666Y-92773047D01*
X129686238Y-92344476D02*
X129638619Y-92439714D01*
X129638619Y-92677809D01*
X129686238Y-92773047D01*
X129781476Y-92820666D01*
X129876714Y-92820666D01*
X129971952Y-92773047D01*
X130019571Y-92677809D01*
X130019571Y-92439714D01*
X130067190Y-92344476D01*
X130305285Y-91868285D02*
X129638619Y-91868285D01*
X130210047Y-91868285D02*
X130257666Y-91820666D01*
X130305285Y-91725428D01*
X130305285Y-91582571D01*
X130257666Y-91487333D01*
X130162428Y-91439714D01*
X129638619Y-91439714D01*
X129638619Y-90820666D02*
X129686238Y-90915904D01*
X129733857Y-90963523D01*
X129829095Y-91011142D01*
X130114809Y-91011142D01*
X130210047Y-90963523D01*
X130257666Y-90915904D01*
X130305285Y-90820666D01*
X130305285Y-90677809D01*
X130257666Y-90582571D01*
X130210047Y-90534952D01*
X130114809Y-90487333D01*
X129829095Y-90487333D01*
X129733857Y-90534952D01*
X129686238Y-90582571D01*
X129638619Y-90677809D01*
X129638619Y-90820666D01*
X129638619Y-89296857D02*
X130638619Y-89296857D01*
X129638619Y-88725428D02*
X130210047Y-89154000D01*
X130638619Y-88725428D02*
X130067190Y-89296857D01*
X129638619Y-88154000D02*
X129686238Y-88249238D01*
X129781476Y-88296857D01*
X130638619Y-88296857D01*
X129638619Y-87773047D02*
X130305285Y-87773047D01*
X130638619Y-87773047D02*
X130591000Y-87820666D01*
X130543380Y-87773047D01*
X130591000Y-87725428D01*
X130638619Y-87773047D01*
X130543380Y-87773047D01*
X130305285Y-87296857D02*
X129305285Y-87296857D01*
X130257666Y-87296857D02*
X130305285Y-87201619D01*
X130305285Y-87011142D01*
X130257666Y-86915904D01*
X130210047Y-86868285D01*
X130114809Y-86820666D01*
X129829095Y-86820666D01*
X129733857Y-86868285D01*
X129686238Y-86915904D01*
X129638619Y-87011142D01*
X129638619Y-87201619D01*
X129686238Y-87296857D01*
X130305285Y-86392095D02*
X129305285Y-86392095D01*
X130257666Y-86392095D02*
X130305285Y-86296857D01*
X130305285Y-86106380D01*
X130257666Y-86011142D01*
X130210047Y-85963523D01*
X130114809Y-85915904D01*
X129829095Y-85915904D01*
X129733857Y-85963523D01*
X129686238Y-86011142D01*
X129638619Y-86106380D01*
X129638619Y-86296857D01*
X129686238Y-86392095D01*
X129686238Y-85106380D02*
X129638619Y-85201619D01*
X129638619Y-85392095D01*
X129686238Y-85487333D01*
X129781476Y-85534952D01*
X130162428Y-85534952D01*
X130257666Y-85487333D01*
X130305285Y-85392095D01*
X130305285Y-85201619D01*
X130257666Y-85106380D01*
X130162428Y-85058761D01*
X130067190Y-85058761D01*
X129971952Y-85534952D01*
X129638619Y-84630190D02*
X130305285Y-84630190D01*
X130114809Y-84630190D02*
X130210047Y-84582571D01*
X130257666Y-84534952D01*
X130305285Y-84439714D01*
X130305285Y-84344476D01*
X128076238Y-93868285D02*
X128028619Y-93963523D01*
X128028619Y-94154000D01*
X128076238Y-94249238D01*
X128171476Y-94296857D01*
X128552428Y-94296857D01*
X128647666Y-94249238D01*
X128695285Y-94154000D01*
X128695285Y-93963523D01*
X128647666Y-93868285D01*
X128552428Y-93820666D01*
X128457190Y-93820666D01*
X128361952Y-94296857D01*
X128028619Y-93487333D02*
X128695285Y-92963523D01*
X128695285Y-93487333D02*
X128028619Y-92963523D01*
X128695285Y-92582571D02*
X127695285Y-92582571D01*
X128647666Y-92582571D02*
X128695285Y-92487333D01*
X128695285Y-92296857D01*
X128647666Y-92201619D01*
X128600047Y-92154000D01*
X128504809Y-92106380D01*
X128219095Y-92106380D01*
X128123857Y-92154000D01*
X128076238Y-92201619D01*
X128028619Y-92296857D01*
X128028619Y-92487333D01*
X128076238Y-92582571D01*
X128028619Y-91249238D02*
X128552428Y-91249238D01*
X128647666Y-91296857D01*
X128695285Y-91392095D01*
X128695285Y-91582571D01*
X128647666Y-91677809D01*
X128076238Y-91249238D02*
X128028619Y-91344476D01*
X128028619Y-91582571D01*
X128076238Y-91677809D01*
X128171476Y-91725428D01*
X128266714Y-91725428D01*
X128361952Y-91677809D01*
X128409571Y-91582571D01*
X128409571Y-91344476D01*
X128457190Y-91249238D01*
X128695285Y-90773047D02*
X128028619Y-90773047D01*
X128600047Y-90773047D02*
X128647666Y-90725428D01*
X128695285Y-90630190D01*
X128695285Y-90487333D01*
X128647666Y-90392095D01*
X128552428Y-90344476D01*
X128028619Y-90344476D01*
X128028619Y-89439714D02*
X129028619Y-89439714D01*
X128076238Y-89439714D02*
X128028619Y-89534952D01*
X128028619Y-89725428D01*
X128076238Y-89820666D01*
X128123857Y-89868285D01*
X128219095Y-89915904D01*
X128504809Y-89915904D01*
X128600047Y-89868285D01*
X128647666Y-89820666D01*
X128695285Y-89725428D01*
X128695285Y-89534952D01*
X128647666Y-89439714D01*
X128076238Y-88582571D02*
X128028619Y-88677809D01*
X128028619Y-88868285D01*
X128076238Y-88963523D01*
X128171476Y-89011142D01*
X128552428Y-89011142D01*
X128647666Y-88963523D01*
X128695285Y-88868285D01*
X128695285Y-88677809D01*
X128647666Y-88582571D01*
X128552428Y-88534952D01*
X128457190Y-88534952D01*
X128361952Y-89011142D01*
X128028619Y-88106380D02*
X128695285Y-88106380D01*
X128504809Y-88106380D02*
X128600047Y-88058761D01*
X128647666Y-88011142D01*
X128695285Y-87915904D01*
X128695285Y-87820666D01*
X128695285Y-86820666D02*
X128028619Y-86582571D01*
X128695285Y-86344476D01*
X128028619Y-85439714D02*
X128028619Y-86011142D01*
X128028619Y-85725428D02*
X129028619Y-85725428D01*
X128885761Y-85820666D01*
X128790523Y-85915904D01*
X128742904Y-86011142D01*
X128123857Y-85011142D02*
X128076238Y-84963523D01*
X128028619Y-85011142D01*
X128076238Y-85058761D01*
X128123857Y-85011142D01*
X128028619Y-85011142D01*
X129028619Y-84344476D02*
X129028619Y-84249238D01*
X128981000Y-84154000D01*
X128933380Y-84106380D01*
X128838142Y-84058761D01*
X128647666Y-84011142D01*
X128409571Y-84011142D01*
X128219095Y-84058761D01*
X128123857Y-84106380D01*
X128076238Y-84154000D01*
X128028619Y-84249238D01*
X128028619Y-84344476D01*
X128076238Y-84439714D01*
X128123857Y-84487333D01*
X128219095Y-84534952D01*
X128409571Y-84582571D01*
X128647666Y-84582571D01*
X128838142Y-84534952D01*
X128933380Y-84487333D01*
X128981000Y-84439714D01*
X129028619Y-84344476D01*
D12*
X137473428Y-94348857D02*
X136259142Y-94348857D01*
X136116285Y-94277428D01*
X136044857Y-94206000D01*
X135973428Y-94063142D01*
X135973428Y-93777428D01*
X136044857Y-93634571D01*
X136116285Y-93563142D01*
X136259142Y-93491714D01*
X137473428Y-93491714D01*
X136044857Y-92848857D02*
X135973428Y-92634571D01*
X135973428Y-92277428D01*
X136044857Y-92134571D01*
X136116285Y-92063142D01*
X136259142Y-91991714D01*
X136402000Y-91991714D01*
X136544857Y-92063142D01*
X136616285Y-92134571D01*
X136687714Y-92277428D01*
X136759142Y-92563142D01*
X136830571Y-92706000D01*
X136902000Y-92777428D01*
X137044857Y-92848857D01*
X137187714Y-92848857D01*
X137330571Y-92777428D01*
X137402000Y-92706000D01*
X137473428Y-92563142D01*
X137473428Y-92206000D01*
X137402000Y-91991714D01*
X136759142Y-90848857D02*
X136687714Y-90634571D01*
X136616285Y-90563142D01*
X136473428Y-90491714D01*
X136259142Y-90491714D01*
X136116285Y-90563142D01*
X136044857Y-90634571D01*
X135973428Y-90777428D01*
X135973428Y-91348857D01*
X137473428Y-91348857D01*
X137473428Y-90848857D01*
X137402000Y-90706000D01*
X137330571Y-90634571D01*
X137187714Y-90563142D01*
X137044857Y-90563142D01*
X136902000Y-90634571D01*
X136830571Y-90706000D01*
X136759142Y-90848857D01*
X136759142Y-91348857D01*
D13*
X157424380Y-97623333D02*
X156948190Y-97290000D01*
X157424380Y-97051904D02*
X156424380Y-97051904D01*
X156424380Y-97432857D01*
X156472000Y-97528095D01*
X156519619Y-97575714D01*
X156614857Y-97623333D01*
X156757714Y-97623333D01*
X156852952Y-97575714D01*
X156900571Y-97528095D01*
X156948190Y-97432857D01*
X156948190Y-97051904D01*
X156757714Y-98480476D02*
X157424380Y-98480476D01*
X156376761Y-98242380D02*
X157091047Y-98004285D01*
X157091047Y-98623333D01*
X144946666Y-94337142D02*
X144994285Y-94384761D01*
X145137142Y-94432380D01*
X145232380Y-94432380D01*
X145375238Y-94384761D01*
X145470476Y-94289523D01*
X145518095Y-94194285D01*
X145565714Y-94003809D01*
X145565714Y-93860952D01*
X145518095Y-93670476D01*
X145470476Y-93575238D01*
X145375238Y-93480000D01*
X145232380Y-93432380D01*
X145137142Y-93432380D01*
X144994285Y-93480000D01*
X144946666Y-93527619D01*
X144041904Y-93432380D02*
X144518095Y-93432380D01*
X144565714Y-93908571D01*
X144518095Y-93860952D01*
X144422857Y-93813333D01*
X144184761Y-93813333D01*
X144089523Y-93860952D01*
X144041904Y-93908571D01*
X143994285Y-94003809D01*
X143994285Y-94241904D01*
X144041904Y-94337142D01*
X144089523Y-94384761D01*
X144184761Y-94432380D01*
X144422857Y-94432380D01*
X144518095Y-94384761D01*
X144565714Y-94337142D01*
X149518666Y-91289142D02*
X149566285Y-91336761D01*
X149709142Y-91384380D01*
X149804380Y-91384380D01*
X149947238Y-91336761D01*
X150042476Y-91241523D01*
X150090095Y-91146285D01*
X150137714Y-90955809D01*
X150137714Y-90812952D01*
X150090095Y-90622476D01*
X150042476Y-90527238D01*
X149947238Y-90432000D01*
X149804380Y-90384380D01*
X149709142Y-90384380D01*
X149566285Y-90432000D01*
X149518666Y-90479619D01*
X148661523Y-90384380D02*
X148852000Y-90384380D01*
X148947238Y-90432000D01*
X148994857Y-90479619D01*
X149090095Y-90622476D01*
X149137714Y-90812952D01*
X149137714Y-91193904D01*
X149090095Y-91289142D01*
X149042476Y-91336761D01*
X148947238Y-91384380D01*
X148756761Y-91384380D01*
X148661523Y-91336761D01*
X148613904Y-91289142D01*
X148566285Y-91193904D01*
X148566285Y-90955809D01*
X148613904Y-90860571D01*
X148661523Y-90812952D01*
X148756761Y-90765333D01*
X148947238Y-90765333D01*
X149042476Y-90812952D01*
X149090095Y-90860571D01*
X149137714Y-90955809D01*
X164687238Y-91365619D02*
X164782476Y-91318000D01*
X164877714Y-91222761D01*
X165020571Y-91079904D01*
X165115809Y-91032285D01*
X165211047Y-91032285D01*
X165163428Y-91270380D02*
X165258666Y-91222761D01*
X165353904Y-91127523D01*
X165401523Y-90937047D01*
X165401523Y-90603714D01*
X165353904Y-90413238D01*
X165258666Y-90318000D01*
X165163428Y-90270380D01*
X164972952Y-90270380D01*
X164877714Y-90318000D01*
X164782476Y-90413238D01*
X164734857Y-90603714D01*
X164734857Y-90937047D01*
X164782476Y-91127523D01*
X164877714Y-91222761D01*
X164972952Y-91270380D01*
X165163428Y-91270380D01*
X164353904Y-90365619D02*
X164306285Y-90318000D01*
X164211047Y-90270380D01*
X163972952Y-90270380D01*
X163877714Y-90318000D01*
X163830095Y-90365619D01*
X163782476Y-90460857D01*
X163782476Y-90556095D01*
X163830095Y-90698952D01*
X164401523Y-91270380D01*
X163782476Y-91270380D01*
X177490380Y-96639142D02*
X177014190Y-96305809D01*
X177490380Y-96067714D02*
X176490380Y-96067714D01*
X176490380Y-96448666D01*
X176538000Y-96543904D01*
X176585619Y-96591523D01*
X176680857Y-96639142D01*
X176823714Y-96639142D01*
X176918952Y-96591523D01*
X176966571Y-96543904D01*
X177014190Y-96448666D01*
X177014190Y-96067714D01*
X177490380Y-97591523D02*
X177490380Y-97020095D01*
X177490380Y-97305809D02*
X176490380Y-97305809D01*
X176633238Y-97210571D01*
X176728476Y-97115333D01*
X176776095Y-97020095D01*
X176490380Y-98496285D02*
X176490380Y-98020095D01*
X176966571Y-97972476D01*
X176918952Y-98020095D01*
X176871333Y-98115333D01*
X176871333Y-98353428D01*
X176918952Y-98448666D01*
X176966571Y-98496285D01*
X177061809Y-98543904D01*
X177299904Y-98543904D01*
X177395142Y-98496285D01*
X177442761Y-98448666D01*
X177490380Y-98353428D01*
X177490380Y-98115333D01*
X177442761Y-98020095D01*
X177395142Y-97972476D01*
X147772380Y-94710642D02*
X147296190Y-94377309D01*
X147772380Y-94139214D02*
X146772380Y-94139214D01*
X146772380Y-94520166D01*
X146820000Y-94615404D01*
X146867619Y-94663023D01*
X146962857Y-94710642D01*
X147105714Y-94710642D01*
X147200952Y-94663023D01*
X147248571Y-94615404D01*
X147296190Y-94520166D01*
X147296190Y-94139214D01*
X147772380Y-95663023D02*
X147772380Y-95091595D01*
X147772380Y-95377309D02*
X146772380Y-95377309D01*
X146915238Y-95282071D01*
X147010476Y-95186833D01*
X147058095Y-95091595D01*
X147105714Y-96520166D02*
X147772380Y-96520166D01*
X146724761Y-96282071D02*
X147439047Y-96043976D01*
X147439047Y-96663023D01*
X176392979Y-88110101D02*
X176726312Y-87633911D01*
X176964407Y-88110101D02*
X176964407Y-87110101D01*
X176583455Y-87110101D01*
X176488217Y-87157721D01*
X176440598Y-87205340D01*
X176392979Y-87300578D01*
X176392979Y-87443435D01*
X176440598Y-87538673D01*
X176488217Y-87586292D01*
X176583455Y-87633911D01*
X176964407Y-87633911D01*
X175440598Y-88110101D02*
X176012026Y-88110101D01*
X175726312Y-88110101D02*
X175726312Y-87110101D01*
X175821550Y-87252959D01*
X175916788Y-87348197D01*
X176012026Y-87395816D01*
X174821550Y-87110101D02*
X174726312Y-87110101D01*
X174631074Y-87157721D01*
X174583455Y-87205340D01*
X174535836Y-87300578D01*
X174488217Y-87491054D01*
X174488217Y-87729149D01*
X174535836Y-87919625D01*
X174583455Y-88014863D01*
X174631074Y-88062482D01*
X174726312Y-88110101D01*
X174821550Y-88110101D01*
X174916788Y-88062482D01*
X174964407Y-88014863D01*
X175012026Y-87919625D01*
X175059645Y-87729149D01*
X175059645Y-87491054D01*
X175012026Y-87300578D01*
X174964407Y-87205340D01*
X174916788Y-87157721D01*
X174821550Y-87110101D01*
X168092380Y-90511333D02*
X167616190Y-90178000D01*
X168092380Y-89939904D02*
X167092380Y-89939904D01*
X167092380Y-90320857D01*
X167140000Y-90416095D01*
X167187619Y-90463714D01*
X167282857Y-90511333D01*
X167425714Y-90511333D01*
X167520952Y-90463714D01*
X167568571Y-90416095D01*
X167616190Y-90320857D01*
X167616190Y-89939904D01*
X167092380Y-91368476D02*
X167092380Y-91178000D01*
X167140000Y-91082761D01*
X167187619Y-91035142D01*
X167330476Y-90939904D01*
X167520952Y-90892285D01*
X167901904Y-90892285D01*
X167997142Y-90939904D01*
X168044761Y-90987523D01*
X168092380Y-91082761D01*
X168092380Y-91273238D01*
X168044761Y-91368476D01*
X167997142Y-91416095D01*
X167901904Y-91463714D01*
X167663809Y-91463714D01*
X167568571Y-91416095D01*
X167520952Y-91368476D01*
X167473333Y-91273238D01*
X167473333Y-91082761D01*
X167520952Y-90987523D01*
X167568571Y-90939904D01*
X167663809Y-90892285D01*
X168822666Y-89511142D02*
X168870285Y-89558761D01*
X169013142Y-89606380D01*
X169108380Y-89606380D01*
X169251238Y-89558761D01*
X169346476Y-89463523D01*
X169394095Y-89368285D01*
X169441714Y-89177809D01*
X169441714Y-89034952D01*
X169394095Y-88844476D01*
X169346476Y-88749238D01*
X169251238Y-88654000D01*
X169108380Y-88606380D01*
X169013142Y-88606380D01*
X168870285Y-88654000D01*
X168822666Y-88701619D01*
X168489333Y-88606380D02*
X167870285Y-88606380D01*
X168203619Y-88987333D01*
X168060761Y-88987333D01*
X167965523Y-89034952D01*
X167917904Y-89082571D01*
X167870285Y-89177809D01*
X167870285Y-89415904D01*
X167917904Y-89511142D01*
X167965523Y-89558761D01*
X168060761Y-89606380D01*
X168346476Y-89606380D01*
X168441714Y-89558761D01*
X168489333Y-89511142D01*
X172378666Y-90114380D02*
X172712000Y-89638190D01*
X172950095Y-90114380D02*
X172950095Y-89114380D01*
X172569142Y-89114380D01*
X172473904Y-89162000D01*
X172426285Y-89209619D01*
X172378666Y-89304857D01*
X172378666Y-89447714D01*
X172426285Y-89542952D01*
X172473904Y-89590571D01*
X172569142Y-89638190D01*
X172950095Y-89638190D01*
X171902476Y-90114380D02*
X171712000Y-90114380D01*
X171616761Y-90066761D01*
X171569142Y-90019142D01*
X171473904Y-89876285D01*
X171426285Y-89685809D01*
X171426285Y-89304857D01*
X171473904Y-89209619D01*
X171521523Y-89162000D01*
X171616761Y-89114380D01*
X171807238Y-89114380D01*
X171902476Y-89162000D01*
X171950095Y-89209619D01*
X171997714Y-89304857D01*
X171997714Y-89542952D01*
X171950095Y-89638190D01*
X171902476Y-89685809D01*
X171807238Y-89733428D01*
X171616761Y-89733428D01*
X171521523Y-89685809D01*
X171473904Y-89638190D01*
X171426285Y-89542952D01*
X138088666Y-89511142D02*
X138136285Y-89558761D01*
X138279142Y-89606380D01*
X138374380Y-89606380D01*
X138517238Y-89558761D01*
X138612476Y-89463523D01*
X138660095Y-89368285D01*
X138707714Y-89177809D01*
X138707714Y-89034952D01*
X138660095Y-88844476D01*
X138612476Y-88749238D01*
X138517238Y-88654000D01*
X138374380Y-88606380D01*
X138279142Y-88606380D01*
X138136285Y-88654000D01*
X138088666Y-88701619D01*
X137707714Y-88701619D02*
X137660095Y-88654000D01*
X137564857Y-88606380D01*
X137326761Y-88606380D01*
X137231523Y-88654000D01*
X137183904Y-88701619D01*
X137136285Y-88796857D01*
X137136285Y-88892095D01*
X137183904Y-89034952D01*
X137755333Y-89606380D01*
X137136285Y-89606380D01*
X159456380Y-97623333D02*
X158980190Y-97290000D01*
X159456380Y-97051904D02*
X158456380Y-97051904D01*
X158456380Y-97432857D01*
X158504000Y-97528095D01*
X158551619Y-97575714D01*
X158646857Y-97623333D01*
X158789714Y-97623333D01*
X158884952Y-97575714D01*
X158932571Y-97528095D01*
X158980190Y-97432857D01*
X158980190Y-97051904D01*
X158456380Y-97956666D02*
X158456380Y-98575714D01*
X158837333Y-98242380D01*
X158837333Y-98385238D01*
X158884952Y-98480476D01*
X158932571Y-98528095D01*
X159027809Y-98575714D01*
X159265904Y-98575714D01*
X159361142Y-98528095D01*
X159408761Y-98480476D01*
X159456380Y-98385238D01*
X159456380Y-98099523D01*
X159408761Y-98004285D01*
X159361142Y-97956666D01*
X137104380Y-96131142D02*
X136628190Y-95797809D01*
X137104380Y-95559714D02*
X136104380Y-95559714D01*
X136104380Y-95940666D01*
X136152000Y-96035904D01*
X136199619Y-96083523D01*
X136294857Y-96131142D01*
X136437714Y-96131142D01*
X136532952Y-96083523D01*
X136580571Y-96035904D01*
X136628190Y-95940666D01*
X136628190Y-95559714D01*
X137104380Y-97083523D02*
X137104380Y-96512095D01*
X137104380Y-96797809D02*
X136104380Y-96797809D01*
X136247238Y-96702571D01*
X136342476Y-96607333D01*
X136390095Y-96512095D01*
X136199619Y-97464476D02*
X136152000Y-97512095D01*
X136104380Y-97607333D01*
X136104380Y-97845428D01*
X136152000Y-97940666D01*
X136199619Y-97988285D01*
X136294857Y-98035904D01*
X136390095Y-98035904D01*
X136532952Y-97988285D01*
X137104380Y-97416857D01*
X137104380Y-98035904D01*
X180697142Y-94789333D02*
X180744761Y-94741714D01*
X180792380Y-94598857D01*
X180792380Y-94503619D01*
X180744761Y-94360761D01*
X180649523Y-94265523D01*
X180554285Y-94217904D01*
X180363809Y-94170285D01*
X180220952Y-94170285D01*
X180030476Y-94217904D01*
X179935238Y-94265523D01*
X179840000Y-94360761D01*
X179792380Y-94503619D01*
X179792380Y-94598857D01*
X179840000Y-94741714D01*
X179887619Y-94789333D01*
X180220952Y-95360761D02*
X180173333Y-95265523D01*
X180125714Y-95217904D01*
X180030476Y-95170285D01*
X179982857Y-95170285D01*
X179887619Y-95217904D01*
X179840000Y-95265523D01*
X179792380Y-95360761D01*
X179792380Y-95551238D01*
X179840000Y-95646476D01*
X179887619Y-95694095D01*
X179982857Y-95741714D01*
X180030476Y-95741714D01*
X180125714Y-95694095D01*
X180173333Y-95646476D01*
X180220952Y-95551238D01*
X180220952Y-95360761D01*
X180268571Y-95265523D01*
X180316190Y-95217904D01*
X180411428Y-95170285D01*
X180601904Y-95170285D01*
X180697142Y-95217904D01*
X180744761Y-95265523D01*
X180792380Y-95360761D01*
X180792380Y-95551238D01*
X180744761Y-95646476D01*
X180697142Y-95694095D01*
X180601904Y-95741714D01*
X180411428Y-95741714D01*
X180316190Y-95694095D01*
X180268571Y-95646476D01*
X180220952Y-95551238D01*
X173577238Y-96051619D02*
X173672476Y-96004000D01*
X173767714Y-95908761D01*
X173910571Y-95765904D01*
X174005809Y-95718285D01*
X174101047Y-95718285D01*
X174053428Y-95956380D02*
X174148666Y-95908761D01*
X174243904Y-95813523D01*
X174291523Y-95623047D01*
X174291523Y-95289714D01*
X174243904Y-95099238D01*
X174148666Y-95004000D01*
X174053428Y-94956380D01*
X173862952Y-94956380D01*
X173767714Y-95004000D01*
X173672476Y-95099238D01*
X173624857Y-95289714D01*
X173624857Y-95623047D01*
X173672476Y-95813523D01*
X173767714Y-95908761D01*
X173862952Y-95956380D01*
X174053428Y-95956380D01*
X173291523Y-94956380D02*
X172672476Y-94956380D01*
X173005809Y-95337333D01*
X172862952Y-95337333D01*
X172767714Y-95384952D01*
X172720095Y-95432571D01*
X172672476Y-95527809D01*
X172672476Y-95765904D01*
X172720095Y-95861142D01*
X172767714Y-95908761D01*
X172862952Y-95956380D01*
X173148666Y-95956380D01*
X173243904Y-95908761D01*
X173291523Y-95861142D01*
X147518380Y-89019142D02*
X147042190Y-88685809D01*
X147518380Y-88447714D02*
X146518380Y-88447714D01*
X146518380Y-88828666D01*
X146566000Y-88923904D01*
X146613619Y-88971523D01*
X146708857Y-89019142D01*
X146851714Y-89019142D01*
X146946952Y-88971523D01*
X146994571Y-88923904D01*
X147042190Y-88828666D01*
X147042190Y-88447714D01*
X147518380Y-89971523D02*
X147518380Y-89400095D01*
X147518380Y-89685809D02*
X146518380Y-89685809D01*
X146661238Y-89590571D01*
X146756476Y-89495333D01*
X146804095Y-89400095D01*
X147518380Y-90923904D02*
X147518380Y-90352476D01*
X147518380Y-90638190D02*
X146518380Y-90638190D01*
X146661238Y-90542952D01*
X146756476Y-90447714D01*
X146804095Y-90352476D01*
X127928666Y-99004380D02*
X128262000Y-98528190D01*
X128500095Y-99004380D02*
X128500095Y-98004380D01*
X128119142Y-98004380D01*
X128023904Y-98052000D01*
X127976285Y-98099619D01*
X127928666Y-98194857D01*
X127928666Y-98337714D01*
X127976285Y-98432952D01*
X128023904Y-98480571D01*
X128119142Y-98528190D01*
X128500095Y-98528190D01*
X126976285Y-99004380D02*
X127547714Y-99004380D01*
X127262000Y-99004380D02*
X127262000Y-98004380D01*
X127357238Y-98147238D01*
X127452476Y-98242476D01*
X127547714Y-98290095D01*
X159551619Y-89058761D02*
X159504000Y-88963523D01*
X159408761Y-88868285D01*
X159265904Y-88725428D01*
X159218285Y-88630190D01*
X159218285Y-88534952D01*
X159456380Y-88582571D02*
X159408761Y-88487333D01*
X159313523Y-88392095D01*
X159123047Y-88344476D01*
X158789714Y-88344476D01*
X158599238Y-88392095D01*
X158504000Y-88487333D01*
X158456380Y-88582571D01*
X158456380Y-88773047D01*
X158504000Y-88868285D01*
X158599238Y-88963523D01*
X158789714Y-89011142D01*
X159123047Y-89011142D01*
X159313523Y-88963523D01*
X159408761Y-88868285D01*
X159456380Y-88773047D01*
X159456380Y-88582571D01*
X159456380Y-89963523D02*
X159456380Y-89392095D01*
X159456380Y-89677809D02*
X158456380Y-89677809D01*
X158599238Y-89582571D01*
X158694476Y-89487333D01*
X158742095Y-89392095D01*
X127420666Y-96877142D02*
X127468285Y-96924761D01*
X127611142Y-96972380D01*
X127706380Y-96972380D01*
X127849238Y-96924761D01*
X127944476Y-96829523D01*
X127992095Y-96734285D01*
X128039714Y-96543809D01*
X128039714Y-96400952D01*
X127992095Y-96210476D01*
X127944476Y-96115238D01*
X127849238Y-96020000D01*
X127706380Y-95972380D01*
X127611142Y-95972380D01*
X127468285Y-96020000D01*
X127420666Y-96067619D01*
X126468285Y-96972380D02*
X127039714Y-96972380D01*
X126754000Y-96972380D02*
X126754000Y-95972380D01*
X126849238Y-96115238D01*
X126944476Y-96210476D01*
X127039714Y-96258095D01*
X157678380Y-88868642D02*
X157202190Y-88535309D01*
X157678380Y-88297214D02*
X156678380Y-88297214D01*
X156678380Y-88678166D01*
X156726000Y-88773404D01*
X156773619Y-88821023D01*
X156868857Y-88868642D01*
X157011714Y-88868642D01*
X157106952Y-88821023D01*
X157154571Y-88773404D01*
X157202190Y-88678166D01*
X157202190Y-88297214D01*
X157678380Y-89821023D02*
X157678380Y-89249595D01*
X157678380Y-89535309D02*
X156678380Y-89535309D01*
X156821238Y-89440071D01*
X156916476Y-89344833D01*
X156964095Y-89249595D01*
X156678380Y-90154357D02*
X156678380Y-90773404D01*
X157059333Y-90440071D01*
X157059333Y-90582928D01*
X157106952Y-90678166D01*
X157154571Y-90725785D01*
X157249809Y-90773404D01*
X157487904Y-90773404D01*
X157583142Y-90725785D01*
X157630761Y-90678166D01*
X157678380Y-90582928D01*
X157678380Y-90297214D01*
X157630761Y-90201976D01*
X157583142Y-90154357D01*
X139358666Y-91289142D02*
X139406285Y-91336761D01*
X139549142Y-91384380D01*
X139644380Y-91384380D01*
X139787238Y-91336761D01*
X139882476Y-91241523D01*
X139930095Y-91146285D01*
X139977714Y-90955809D01*
X139977714Y-90812952D01*
X139930095Y-90622476D01*
X139882476Y-90527238D01*
X139787238Y-90432000D01*
X139644380Y-90384380D01*
X139549142Y-90384380D01*
X139406285Y-90432000D01*
X139358666Y-90479619D01*
X138501523Y-90717714D02*
X138501523Y-91384380D01*
X138739619Y-90336761D02*
X138977714Y-91051047D01*
X138358666Y-91051047D01*
X155106666Y-94337142D02*
X155154285Y-94384761D01*
X155297142Y-94432380D01*
X155392380Y-94432380D01*
X155535238Y-94384761D01*
X155630476Y-94289523D01*
X155678095Y-94194285D01*
X155725714Y-94003809D01*
X155725714Y-93860952D01*
X155678095Y-93670476D01*
X155630476Y-93575238D01*
X155535238Y-93480000D01*
X155392380Y-93432380D01*
X155297142Y-93432380D01*
X155154285Y-93480000D01*
X155106666Y-93527619D01*
X154773333Y-93432380D02*
X154106666Y-93432380D01*
X154535238Y-94432380D01*
X166442380Y-96607333D02*
X165966190Y-96274000D01*
X166442380Y-96035904D02*
X165442380Y-96035904D01*
X165442380Y-96416857D01*
X165490000Y-96512095D01*
X165537619Y-96559714D01*
X165632857Y-96607333D01*
X165775714Y-96607333D01*
X165870952Y-96559714D01*
X165918571Y-96512095D01*
X165966190Y-96416857D01*
X165966190Y-96035904D01*
X165442380Y-96940666D02*
X165442380Y-97607333D01*
X166442380Y-97178761D01*
D14*
X157707000Y-95477064D02*
X157707000Y-95022936D01*
X156237000Y-95477064D02*
X156237000Y-95022936D01*
X142247252Y-94715000D02*
X141724748Y-94715000D01*
X142247252Y-93245000D02*
X141724748Y-93245000D01*
X151884748Y-90197000D02*
X152407252Y-90197000D01*
X151884748Y-91667000D02*
X152407252Y-91667000D01*
X164592000Y-91658000D02*
X166267000Y-91658000D01*
X164592000Y-91658000D02*
X163942000Y-91658000D01*
X164592000Y-94778000D02*
X165242000Y-94778000D01*
X164592000Y-94778000D02*
X163942000Y-94778000D01*
X176249000Y-96546936D02*
X176249000Y-97001064D01*
X174779000Y-96546936D02*
X174779000Y-97001064D01*
X148109000Y-95477064D02*
X148109000Y-95022936D01*
X149579000Y-95477064D02*
X149579000Y-95022936D01*
X173032686Y-86922721D02*
X172578558Y-86922721D01*
X173032686Y-88392721D02*
X172578558Y-88392721D01*
X168375000Y-93341564D02*
X168375000Y-92887436D01*
X166905000Y-93341564D02*
X166905000Y-92887436D01*
X168917252Y-86895000D02*
X168394748Y-86895000D01*
X168917252Y-88365000D02*
X168394748Y-88365000D01*
X174446436Y-90331000D02*
X174900564Y-90331000D01*
X174446436Y-88861000D02*
X174900564Y-88861000D01*
X137660748Y-88111000D02*
X138183252Y-88111000D01*
X137660748Y-86641000D02*
X138183252Y-86641000D01*
X159739000Y-95477064D02*
X159739000Y-95022936D01*
X158269000Y-95477064D02*
X158269000Y-95022936D01*
X137695000Y-95477064D02*
X137695000Y-95022936D01*
X139165000Y-95477064D02*
X139165000Y-95022936D01*
X178946000Y-83436000D02*
X178946000Y-101476000D01*
X176276000Y-86106000D02*
X176276000Y-83436000D01*
X173736000Y-98806000D02*
X138176000Y-98806000D01*
X178946000Y-101476000D02*
X176276000Y-101476000D01*
X173736000Y-98806000D02*
X173736000Y-101476000D01*
X176276000Y-98806000D02*
X176276000Y-101476000D01*
X138176000Y-98806000D02*
X138176000Y-101476000D01*
X173736000Y-98806000D02*
X176276000Y-98806000D01*
X138176000Y-86106000D02*
X138176000Y-83436000D01*
X135506000Y-83436000D02*
X178946000Y-83436000D01*
X135506000Y-101476000D02*
X135506000Y-83436000D01*
X176276000Y-86106000D02*
X138176000Y-86106000D01*
X173736000Y-101476000D02*
X135506000Y-101476000D01*
X179605000Y-92611252D02*
X179605000Y-92088748D01*
X181075000Y-92611252D02*
X181075000Y-92088748D01*
X174498000Y-91404000D02*
X176173000Y-91404000D01*
X174498000Y-91404000D02*
X173848000Y-91404000D01*
X174498000Y-94524000D02*
X175148000Y-94524000D01*
X174498000Y-94524000D02*
X173848000Y-94524000D01*
X146277000Y-89434936D02*
X146277000Y-89889064D01*
X144807000Y-89434936D02*
X144807000Y-89889064D01*
X127788936Y-99341000D02*
X128243064Y-99341000D01*
X127788936Y-100811000D02*
X128243064Y-100811000D01*
X160020000Y-93254000D02*
X158345000Y-93254000D01*
X160020000Y-90134000D02*
X160670000Y-90134000D01*
X160020000Y-90134000D02*
X159370000Y-90134000D01*
X160020000Y-93254000D02*
X160670000Y-93254000D01*
X129720748Y-97255000D02*
X130243252Y-97255000D01*
X129720748Y-95785000D02*
X130243252Y-95785000D01*
X156437000Y-89284436D02*
X156437000Y-89738564D01*
X154967000Y-89284436D02*
X154967000Y-89738564D01*
X141724748Y-91667000D02*
X142247252Y-91667000D01*
X141724748Y-90197000D02*
X142247252Y-90197000D01*
X152407252Y-94715000D02*
X151884748Y-94715000D01*
X152407252Y-93245000D02*
X151884748Y-93245000D01*
X168375000Y-96546936D02*
X168375000Y-97001064D01*
X166905000Y-96546936D02*
X166905000Y-97001064D01*
%LPC*%
D15*
X140716000Y-88646000D03*
D16*
X143216000Y-88646000D03*
D15*
X150916000Y-88646000D03*
D16*
X153416000Y-88646000D03*
D17*
X177817000Y-89916000D03*
D18*
X177817000Y-92416000D03*
X177817000Y-94916000D03*
D19*
X120396000Y-100076000D03*
X120396000Y-84836000D03*
D20*
X133096000Y-98351000D03*
X133096000Y-94691000D03*
X133096000Y-90221000D03*
X133096000Y-86561000D03*
D15*
X161036000Y-88646000D03*
D16*
X163536000Y-88646000D03*
D21*
X163576000Y-96266000D03*
D16*
X161076000Y-96266000D03*
D22*
X124714000Y-89916000D03*
D23*
X124714000Y-94996000D03*
D19*
X180594000Y-99822000D03*
D21*
X153416000Y-96266000D03*
D16*
X150916000Y-96266000D03*
D24*
X170959000Y-91460000D03*
D25*
X170959000Y-93960000D03*
D21*
X143256000Y-96266000D03*
D16*
X140756000Y-96266000D03*
D19*
X180594000Y-84836000D03*
D26*
X156972000Y-96162500D03*
X156972000Y-94337500D03*
D27*
X142936000Y-93980000D03*
X141036000Y-93980000D03*
D28*
X151196000Y-90932000D03*
X153096000Y-90932000D03*
D29*
X165529500Y-92268000D03*
X165529500Y-94168000D03*
X163654500Y-93218000D03*
D30*
X175514000Y-95861500D03*
X175514000Y-97686500D03*
D26*
X148844000Y-96162500D03*
X148844000Y-94337500D03*
D31*
X173718122Y-87657721D03*
X171893122Y-87657721D03*
D26*
X167640000Y-94027000D03*
X167640000Y-92202000D03*
D27*
X169606000Y-87630000D03*
X167706000Y-87630000D03*
D32*
X173761000Y-89596000D03*
X175586000Y-89596000D03*
D28*
X136972000Y-87376000D03*
X138872000Y-87376000D03*
D26*
X159004000Y-96162500D03*
X159004000Y-94337500D03*
X138430000Y-96162500D03*
X138430000Y-94337500D03*
D33*
X136906000Y-84836000D03*
X177546000Y-84836000D03*
X177546000Y-100076000D03*
X136906000Y-100076000D03*
D34*
X175006000Y-100076000D03*
D35*
X172466000Y-100076000D03*
X169926000Y-100076000D03*
X167386000Y-100076000D03*
X164846000Y-100076000D03*
X162306000Y-100076000D03*
X159766000Y-100076000D03*
X157226000Y-100076000D03*
X154686000Y-100076000D03*
X152146000Y-100076000D03*
X149606000Y-100076000D03*
X147066000Y-100076000D03*
X144526000Y-100076000D03*
X141986000Y-100076000D03*
X139446000Y-100076000D03*
X139446000Y-84836000D03*
X141986000Y-84836000D03*
X144526000Y-84836000D03*
X147066000Y-84836000D03*
X149606000Y-84836000D03*
X152146000Y-84836000D03*
X154686000Y-84836000D03*
X157226000Y-84836000D03*
X159766000Y-84836000D03*
X162306000Y-84836000D03*
X164846000Y-84836000D03*
X167386000Y-84836000D03*
X169926000Y-84836000D03*
X172466000Y-84836000D03*
X175006000Y-84836000D03*
D36*
X180340000Y-93300000D03*
X180340000Y-91400000D03*
D29*
X175435500Y-92014000D03*
X175435500Y-93914000D03*
X173560500Y-92964000D03*
D30*
X145542000Y-88749500D03*
X145542000Y-90574500D03*
D32*
X127103500Y-100076000D03*
X128928500Y-100076000D03*
D37*
X159082500Y-92644000D03*
X159082500Y-90744000D03*
X160957500Y-91694000D03*
D28*
X129032000Y-96520000D03*
X130932000Y-96520000D03*
D30*
X155702000Y-88599000D03*
X155702000Y-90424000D03*
D28*
X141036000Y-90932000D03*
X142936000Y-90932000D03*
D27*
X153096000Y-93980000D03*
X151196000Y-93980000D03*
D30*
X167640000Y-95861500D03*
X167640000Y-97686500D03*
M02*
