G04 #@! TF.GenerationSoftware,KiCad,Pcbnew,(6.0.4)*
G04 #@! TF.CreationDate,2022-06-19T17:23:47+02:00*
G04 #@! TF.ProjectId,Klipper nano expander,4b6c6970-7065-4722-906e-616e6f206578,1.0*
G04 #@! TF.SameCoordinates,Original*
G04 #@! TF.FileFunction,Copper,L1,Top*
G04 #@! TF.FilePolarity,Positive*
%FSLAX46Y46*%
G04 Gerber Fmt 4.6, Leading zero omitted, Abs format (unit mm)*
G04 Created by KiCad (PCBNEW (6.0.4)) date 2022-06-19 17:23:47*
%MOMM*%
%LPD*%
G01*
G04 APERTURE LIST*
G04 Aperture macros list*
%AMRoundRect*
0 Rectangle with rounded corners*
0 $1 Rounding radius*
0 $2 $3 $4 $5 $6 $7 $8 $9 X,Y pos of 4 corners*
0 Add a 4 corners polygon primitive as box body*
4,1,4,$2,$3,$4,$5,$6,$7,$8,$9,$2,$3,0*
0 Add four circle primitives for the rounded corners*
1,1,$1+$1,$2,$3*
1,1,$1+$1,$4,$5*
1,1,$1+$1,$6,$7*
1,1,$1+$1,$8,$9*
0 Add four rect primitives between the rounded corners*
20,1,$1+$1,$2,$3,$4,$5,0*
20,1,$1+$1,$4,$5,$6,$7,0*
20,1,$1+$1,$6,$7,$8,$9,0*
20,1,$1+$1,$8,$9,$2,$3,0*%
G04 Aperture macros list end*
G04 #@! TA.AperFunction,ComponentPad*
%ADD10RoundRect,0.250000X-0.600000X-0.750000X0.600000X-0.750000X0.600000X0.750000X-0.600000X0.750000X0*%
G04 #@! TD*
G04 #@! TA.AperFunction,ComponentPad*
%ADD11O,1.700000X2.000000*%
G04 #@! TD*
G04 #@! TA.AperFunction,ComponentPad*
%ADD12RoundRect,0.250000X-0.725000X0.600000X-0.725000X-0.600000X0.725000X-0.600000X0.725000X0.600000X0*%
G04 #@! TD*
G04 #@! TA.AperFunction,ComponentPad*
%ADD13O,1.950000X1.700000*%
G04 #@! TD*
G04 #@! TA.AperFunction,ComponentPad*
%ADD14C,2.500000*%
G04 #@! TD*
G04 #@! TA.AperFunction,ComponentPad*
%ADD15RoundRect,0.250000X0.600000X0.750000X-0.600000X0.750000X-0.600000X-0.750000X0.600000X-0.750000X0*%
G04 #@! TD*
G04 #@! TA.AperFunction,SMDPad,CuDef*
%ADD16RoundRect,0.243750X-0.243750X-0.456250X0.243750X-0.456250X0.243750X0.456250X-0.243750X0.456250X0*%
G04 #@! TD*
G04 #@! TA.AperFunction,ComponentPad*
%ADD17R,2.600000X2.600000*%
G04 #@! TD*
G04 #@! TA.AperFunction,ComponentPad*
%ADD18C,2.600000*%
G04 #@! TD*
G04 #@! TA.AperFunction,ComponentPad*
%ADD19RoundRect,0.250000X-0.750000X0.600000X-0.750000X-0.600000X0.750000X-0.600000X0.750000X0.600000X0*%
G04 #@! TD*
G04 #@! TA.AperFunction,ComponentPad*
%ADD20O,2.000000X1.700000*%
G04 #@! TD*
G04 #@! TA.AperFunction,ComponentPad*
%ADD21R,1.600000X1.600000*%
G04 #@! TD*
G04 #@! TA.AperFunction,ComponentPad*
%ADD22O,1.600000X1.600000*%
G04 #@! TD*
G04 #@! TA.AperFunction,ViaPad*
%ADD23C,0.800000*%
G04 #@! TD*
G04 #@! TA.AperFunction,Conductor*
%ADD24C,0.250000*%
G04 #@! TD*
G04 #@! TA.AperFunction,Conductor*
%ADD25C,1.500000*%
G04 #@! TD*
G04 #@! TA.AperFunction,Conductor*
%ADD26C,1.000000*%
G04 #@! TD*
G04 #@! TA.AperFunction,Conductor*
%ADD27C,2.000000*%
G04 #@! TD*
G04 APERTURE END LIST*
D10*
X140716000Y-88646000D03*
D11*
X143216000Y-88646000D03*
D10*
X150916000Y-88646000D03*
D11*
X153416000Y-88646000D03*
D12*
X177817000Y-89916000D03*
D13*
X177817000Y-92416000D03*
X177817000Y-94916000D03*
D14*
X133096000Y-98351000D03*
X133096000Y-94691000D03*
X133096000Y-90221000D03*
X133096000Y-86561000D03*
D10*
X161036000Y-88646000D03*
D11*
X163536000Y-88646000D03*
D15*
X163576000Y-96266000D03*
D11*
X161076000Y-96266000D03*
D16*
X124871000Y-100076000D03*
X126746000Y-100076000D03*
D17*
X124714000Y-89916000D03*
D18*
X124714000Y-94996000D03*
D15*
X153416000Y-96266000D03*
D11*
X150916000Y-96266000D03*
D19*
X170959000Y-91460000D03*
D20*
X170959000Y-93960000D03*
D15*
X143256000Y-96266000D03*
D11*
X140756000Y-96266000D03*
D21*
X175006000Y-100076000D03*
D22*
X172466000Y-100076000D03*
X169926000Y-100076000D03*
X167386000Y-100076000D03*
X164846000Y-100076000D03*
X162306000Y-100076000D03*
X159766000Y-100076000D03*
X157226000Y-100076000D03*
X154686000Y-100076000D03*
X152146000Y-100076000D03*
X149606000Y-100076000D03*
X147066000Y-100076000D03*
X144526000Y-100076000D03*
X141986000Y-100076000D03*
X139446000Y-100076000D03*
X139446000Y-84836000D03*
X141986000Y-84836000D03*
X144526000Y-84836000D03*
X147066000Y-84836000D03*
X149606000Y-84836000D03*
X152146000Y-84836000D03*
X154686000Y-84836000D03*
X157226000Y-84836000D03*
X159766000Y-84836000D03*
X162306000Y-84836000D03*
X164846000Y-84836000D03*
X167386000Y-84836000D03*
X169926000Y-84836000D03*
X172466000Y-84836000D03*
X175006000Y-84836000D03*
D23*
X124855221Y-100066519D03*
X167640000Y-95861500D03*
X173761000Y-89596000D03*
X140970000Y-94006000D03*
X134874000Y-94234000D03*
X145551566Y-90574499D03*
X128928500Y-100076000D03*
X167673000Y-87630000D03*
X148824869Y-94337500D03*
X130941142Y-96545096D03*
X155702000Y-90424000D03*
X180340000Y-91400000D03*
X127000000Y-100076000D03*
X175514000Y-95861500D03*
D24*
X124871000Y-100076000D02*
X124714000Y-100076000D01*
X167640000Y-95861500D02*
X165711500Y-97790000D01*
X159512000Y-97790000D02*
X157226000Y-100076000D01*
X165711500Y-97790000D02*
X159512000Y-97790000D01*
X168178022Y-98552000D02*
X163830000Y-98552000D01*
X173761000Y-92969022D02*
X168178022Y-98552000D01*
X163830000Y-98552000D02*
X162306000Y-100076000D01*
X173761000Y-89596000D02*
X173761000Y-92969022D01*
X140970000Y-93472000D02*
X140970000Y-94006000D01*
X149606000Y-84836000D02*
X140970000Y-93472000D01*
X154686000Y-84836000D02*
X154686000Y-92496000D01*
X154686000Y-92496000D02*
X150916000Y-96266000D01*
D25*
X133096000Y-94691000D02*
X133096000Y-96520000D01*
D26*
X133070904Y-96545096D02*
X133096000Y-96520000D01*
D25*
X177817000Y-89916000D02*
X178856000Y-89916000D01*
X133096000Y-96520000D02*
X133096000Y-98351000D01*
X130941142Y-96545096D02*
X133070904Y-96545096D01*
X178856000Y-89916000D02*
X180340000Y-91400000D01*
X167386000Y-87343000D02*
X167673000Y-87630000D01*
X167386000Y-84836000D02*
X167386000Y-87343000D01*
D24*
X126746000Y-100076000D02*
X127000000Y-100076000D01*
D27*
X131521000Y-90221000D02*
X133096000Y-90221000D01*
X124714000Y-94996000D02*
X126746000Y-94996000D01*
X126746000Y-94996000D02*
X131521000Y-90221000D01*
X133096000Y-86561000D02*
X133096000Y-90221000D01*
D24*
X177817000Y-92733000D02*
X177817000Y-92416000D01*
X175514000Y-94719000D02*
X177817000Y-92416000D01*
X175514000Y-95861500D02*
X175514000Y-94719000D01*
G04 #@! TA.AperFunction,Conductor*
G36*
X119090602Y-83840502D02*
G01*
X119137095Y-83894158D01*
X119147199Y-83964432D01*
X119131380Y-84009880D01*
X119033704Y-84177704D01*
X119033701Y-84177711D01*
X119031159Y-84182078D01*
X119029346Y-84186801D01*
X118952591Y-84386757D01*
X118944167Y-84408702D01*
X118943133Y-84413652D01*
X118943132Y-84413655D01*
X118895872Y-84639879D01*
X118894526Y-84646320D01*
X118883514Y-84888817D01*
X118884095Y-84893837D01*
X118884095Y-84893841D01*
X118903794Y-85064087D01*
X118911415Y-85129956D01*
X118912791Y-85134820D01*
X118912792Y-85134823D01*
X118955357Y-85285243D01*
X118977510Y-85363532D01*
X118979644Y-85368108D01*
X118979646Y-85368114D01*
X119076073Y-85574902D01*
X119080099Y-85583536D01*
X119216544Y-85784307D01*
X119383332Y-85960681D01*
X119387358Y-85963759D01*
X119387359Y-85963760D01*
X119572154Y-86105047D01*
X119572158Y-86105050D01*
X119576174Y-86108120D01*
X119580632Y-86110510D01*
X119580633Y-86110511D01*
X119668588Y-86157672D01*
X119790109Y-86222831D01*
X120019631Y-86301862D01*
X120118978Y-86319022D01*
X120254926Y-86342504D01*
X120254932Y-86342505D01*
X120258836Y-86343179D01*
X120262797Y-86343359D01*
X120262798Y-86343359D01*
X120286506Y-86344436D01*
X120286525Y-86344436D01*
X120287925Y-86344500D01*
X120457001Y-86344500D01*
X120459509Y-86344298D01*
X120459514Y-86344298D01*
X120632924Y-86330346D01*
X120632929Y-86330345D01*
X120637965Y-86329940D01*
X120642873Y-86328734D01*
X120642876Y-86328734D01*
X120868792Y-86273244D01*
X120873706Y-86272037D01*
X120878358Y-86270062D01*
X120878362Y-86270061D01*
X121092498Y-86179165D01*
X121097156Y-86177188D01*
X121205252Y-86109116D01*
X121298288Y-86050528D01*
X121298291Y-86050526D01*
X121302567Y-86047833D01*
X121374559Y-85984364D01*
X121480858Y-85890650D01*
X121480861Y-85890647D01*
X121484655Y-85887302D01*
X121554868Y-85801823D01*
X121635526Y-85703628D01*
X121635528Y-85703625D01*
X121638734Y-85699722D01*
X121730942Y-85541294D01*
X121758299Y-85494290D01*
X121758300Y-85494288D01*
X121760841Y-85489922D01*
X121774206Y-85455105D01*
X121846020Y-85268022D01*
X121846021Y-85268018D01*
X121847833Y-85263298D01*
X121853931Y-85234108D01*
X121896440Y-85030631D01*
X121896440Y-85030627D01*
X121897474Y-85025680D01*
X121908486Y-84783183D01*
X121893235Y-84651373D01*
X121881167Y-84547071D01*
X121881166Y-84547067D01*
X121880585Y-84542044D01*
X121877207Y-84530104D01*
X121815866Y-84313331D01*
X121814490Y-84308468D01*
X121812356Y-84303892D01*
X121812354Y-84303886D01*
X121714038Y-84093046D01*
X121714036Y-84093042D01*
X121711901Y-84088464D01*
X121663553Y-84017322D01*
X121641807Y-83949739D01*
X121660051Y-83881127D01*
X121712494Y-83833270D01*
X121767765Y-83820500D01*
X135667599Y-83820500D01*
X135735720Y-83840502D01*
X135782213Y-83894158D01*
X135792317Y-83964432D01*
X135768688Y-84021713D01*
X135713128Y-84096388D01*
X135710712Y-84101139D01*
X135710710Y-84101143D01*
X135650764Y-84219049D01*
X135605565Y-84307948D01*
X135535186Y-84534607D01*
X135534485Y-84539896D01*
X135519710Y-84651373D01*
X135504002Y-84769883D01*
X135504202Y-84775212D01*
X135504202Y-84775213D01*
X135506464Y-84835474D01*
X135512906Y-85007050D01*
X135561642Y-85239327D01*
X135563599Y-85244283D01*
X135563601Y-85244289D01*
X135646240Y-85453543D01*
X135648818Y-85460070D01*
X135651585Y-85464629D01*
X135651586Y-85464632D01*
X135692160Y-85531496D01*
X135771941Y-85662970D01*
X135775436Y-85666998D01*
X135775437Y-85666999D01*
X135923752Y-85837916D01*
X135927490Y-85842224D01*
X135931616Y-85845607D01*
X135931620Y-85845611D01*
X136106889Y-85989323D01*
X136106895Y-85989327D01*
X136111017Y-85992707D01*
X136115653Y-85995346D01*
X136115656Y-85995348D01*
X136272655Y-86084717D01*
X136317276Y-86110117D01*
X136540367Y-86191095D01*
X136545616Y-86192044D01*
X136545619Y-86192045D01*
X136769830Y-86232589D01*
X136769837Y-86232590D01*
X136773914Y-86233327D01*
X136792164Y-86234188D01*
X136797299Y-86234430D01*
X136797306Y-86234430D01*
X136798787Y-86234500D01*
X136965587Y-86234500D01*
X137034539Y-86228649D01*
X137137173Y-86219941D01*
X137137177Y-86219940D01*
X137142484Y-86219490D01*
X137147639Y-86218152D01*
X137147645Y-86218151D01*
X137367036Y-86161208D01*
X137367035Y-86161208D01*
X137372207Y-86159866D01*
X137567912Y-86071707D01*
X137583738Y-86064578D01*
X137583741Y-86064577D01*
X137588599Y-86062388D01*
X137785474Y-85929844D01*
X137957201Y-85766024D01*
X138098872Y-85575612D01*
X138101290Y-85570857D01*
X138101293Y-85570852D01*
X138116321Y-85541294D01*
X138165024Y-85489637D01*
X138233924Y-85472511D01*
X138301146Y-85495354D01*
X138331850Y-85526129D01*
X138430489Y-85666999D01*
X138439802Y-85680300D01*
X138601700Y-85842198D01*
X138606208Y-85845355D01*
X138606211Y-85845357D01*
X138606574Y-85845611D01*
X138789251Y-85973523D01*
X138794233Y-85975846D01*
X138794238Y-85975849D01*
X138964825Y-86055394D01*
X138996757Y-86070284D01*
X139002065Y-86071706D01*
X139002067Y-86071707D01*
X139212598Y-86128119D01*
X139212600Y-86128119D01*
X139217913Y-86129543D01*
X139446000Y-86149498D01*
X139674087Y-86129543D01*
X139679400Y-86128119D01*
X139679402Y-86128119D01*
X139889933Y-86071707D01*
X139889935Y-86071706D01*
X139895243Y-86070284D01*
X139927175Y-86055394D01*
X140097762Y-85975849D01*
X140097767Y-85975846D01*
X140102749Y-85973523D01*
X140285426Y-85845611D01*
X140285789Y-85845357D01*
X140285792Y-85845355D01*
X140290300Y-85842198D01*
X140452198Y-85680300D01*
X140461512Y-85666999D01*
X140523161Y-85578954D01*
X140583523Y-85492749D01*
X140585846Y-85487767D01*
X140585849Y-85487762D01*
X140601805Y-85453543D01*
X140648722Y-85400258D01*
X140716999Y-85380797D01*
X140784959Y-85401339D01*
X140830195Y-85453543D01*
X140846151Y-85487762D01*
X140846154Y-85487767D01*
X140848477Y-85492749D01*
X140908839Y-85578954D01*
X140970489Y-85666999D01*
X140979802Y-85680300D01*
X141141700Y-85842198D01*
X141146208Y-85845355D01*
X141146211Y-85845357D01*
X141146574Y-85845611D01*
X141329251Y-85973523D01*
X141334233Y-85975846D01*
X141334238Y-85975849D01*
X141504825Y-86055394D01*
X141536757Y-86070284D01*
X141542065Y-86071706D01*
X141542067Y-86071707D01*
X141752598Y-86128119D01*
X141752600Y-86128119D01*
X141757913Y-86129543D01*
X141986000Y-86149498D01*
X142214087Y-86129543D01*
X142219400Y-86128119D01*
X142219402Y-86128119D01*
X142429933Y-86071707D01*
X142429935Y-86071706D01*
X142435243Y-86070284D01*
X142467175Y-86055394D01*
X142637762Y-85975849D01*
X142637767Y-85975846D01*
X142642749Y-85973523D01*
X142825426Y-85845611D01*
X142825789Y-85845357D01*
X142825792Y-85845355D01*
X142830300Y-85842198D01*
X142992198Y-85680300D01*
X143001512Y-85666999D01*
X143063161Y-85578954D01*
X143123523Y-85492749D01*
X143125846Y-85487767D01*
X143125849Y-85487762D01*
X143141805Y-85453543D01*
X143188722Y-85400258D01*
X143256999Y-85380797D01*
X143324959Y-85401339D01*
X143370195Y-85453543D01*
X143386151Y-85487762D01*
X143386154Y-85487767D01*
X143388477Y-85492749D01*
X143448839Y-85578954D01*
X143510489Y-85666999D01*
X143519802Y-85680300D01*
X143681700Y-85842198D01*
X143686208Y-85845355D01*
X143686211Y-85845357D01*
X143686574Y-85845611D01*
X143869251Y-85973523D01*
X143874233Y-85975846D01*
X143874238Y-85975849D01*
X144044825Y-86055394D01*
X144076757Y-86070284D01*
X144082065Y-86071706D01*
X144082067Y-86071707D01*
X144292598Y-86128119D01*
X144292600Y-86128119D01*
X144297913Y-86129543D01*
X144526000Y-86149498D01*
X144754087Y-86129543D01*
X144759400Y-86128119D01*
X144759402Y-86128119D01*
X144969933Y-86071707D01*
X144969935Y-86071706D01*
X144975243Y-86070284D01*
X145007175Y-86055394D01*
X145177762Y-85975849D01*
X145177767Y-85975846D01*
X145182749Y-85973523D01*
X145365426Y-85845611D01*
X145365789Y-85845357D01*
X145365792Y-85845355D01*
X145370300Y-85842198D01*
X145532198Y-85680300D01*
X145541512Y-85666999D01*
X145603161Y-85578954D01*
X145663523Y-85492749D01*
X145665846Y-85487767D01*
X145665849Y-85487762D01*
X145681805Y-85453543D01*
X145728722Y-85400258D01*
X145796999Y-85380797D01*
X145864959Y-85401339D01*
X145910195Y-85453543D01*
X145926151Y-85487762D01*
X145926154Y-85487767D01*
X145928477Y-85492749D01*
X145988839Y-85578954D01*
X146050489Y-85666999D01*
X146059802Y-85680300D01*
X146221700Y-85842198D01*
X146226208Y-85845355D01*
X146226211Y-85845357D01*
X146226574Y-85845611D01*
X146409251Y-85973523D01*
X146414233Y-85975846D01*
X146414238Y-85975849D01*
X146584825Y-86055394D01*
X146616757Y-86070284D01*
X146622065Y-86071706D01*
X146622067Y-86071707D01*
X146832598Y-86128119D01*
X146832600Y-86128119D01*
X146837913Y-86129543D01*
X147066000Y-86149498D01*
X147071475Y-86149019D01*
X147071485Y-86149019D01*
X147083428Y-86147974D01*
X147153033Y-86161962D01*
X147204026Y-86211361D01*
X147220217Y-86280486D01*
X147196465Y-86347392D01*
X147183506Y-86362589D01*
X144789595Y-88756500D01*
X144727283Y-88790526D01*
X144656468Y-88785461D01*
X144599632Y-88742914D01*
X144574821Y-88676394D01*
X144574500Y-88667405D01*
X144574500Y-88438110D01*
X144559920Y-88266280D01*
X144558582Y-88261125D01*
X144558581Y-88261119D01*
X144503343Y-88048297D01*
X144503342Y-88048293D01*
X144502001Y-88043128D01*
X144407312Y-87832925D01*
X144278559Y-87641681D01*
X144261212Y-87623496D01*
X144191057Y-87549956D01*
X144119424Y-87474865D01*
X143934458Y-87337246D01*
X143929707Y-87334830D01*
X143929703Y-87334828D01*
X143809763Y-87273848D01*
X143728949Y-87232760D01*
X143723855Y-87231178D01*
X143723852Y-87231177D01*
X143513871Y-87165976D01*
X143508773Y-87164393D01*
X143503484Y-87163692D01*
X143285511Y-87134802D01*
X143285506Y-87134802D01*
X143280226Y-87134102D01*
X143274897Y-87134302D01*
X143274895Y-87134302D01*
X143165034Y-87138426D01*
X143049842Y-87142751D01*
X143044623Y-87143846D01*
X143022566Y-87148474D01*
X142824209Y-87190093D01*
X142819250Y-87192051D01*
X142819248Y-87192052D01*
X142614744Y-87272815D01*
X142614742Y-87272816D01*
X142609779Y-87274776D01*
X142605220Y-87277543D01*
X142605217Y-87277544D01*
X142510113Y-87335255D01*
X142412683Y-87394377D01*
X142408653Y-87397874D01*
X142315484Y-87478722D01*
X142238555Y-87545477D01*
X142209330Y-87581120D01*
X142150671Y-87621114D01*
X142079701Y-87623046D01*
X142018952Y-87586302D01*
X142004752Y-87567532D01*
X141918332Y-87427880D01*
X141914478Y-87421652D01*
X141789303Y-87296695D01*
X141758965Y-87277994D01*
X141644968Y-87207725D01*
X141644966Y-87207724D01*
X141638738Y-87203885D01*
X141558995Y-87177436D01*
X141477389Y-87150368D01*
X141477387Y-87150368D01*
X141470861Y-87148203D01*
X141464025Y-87147503D01*
X141464022Y-87147502D01*
X141420969Y-87143091D01*
X141366400Y-87137500D01*
X140065600Y-87137500D01*
X140062354Y-87137837D01*
X140062350Y-87137837D01*
X139966692Y-87147762D01*
X139966688Y-87147763D01*
X139959834Y-87148474D01*
X139953298Y-87150655D01*
X139953296Y-87150655D01*
X139821194Y-87194728D01*
X139792054Y-87204450D01*
X139641652Y-87297522D01*
X139516695Y-87422697D01*
X139512855Y-87428927D01*
X139512854Y-87428928D01*
X139442954Y-87542327D01*
X139423885Y-87573262D01*
X139368203Y-87741139D01*
X139357500Y-87845600D01*
X139357500Y-89446400D01*
X139368474Y-89552166D01*
X139370655Y-89558702D01*
X139370655Y-89558704D01*
X139403161Y-89656135D01*
X139424450Y-89719946D01*
X139517522Y-89870348D01*
X139642697Y-89995305D01*
X139648927Y-89999145D01*
X139648928Y-89999146D01*
X139786090Y-90083694D01*
X139793262Y-90088115D01*
X139866703Y-90112474D01*
X139954611Y-90141632D01*
X139954613Y-90141632D01*
X139961139Y-90143797D01*
X139967975Y-90144497D01*
X139967978Y-90144498D01*
X140003663Y-90148154D01*
X140065600Y-90154500D01*
X141366400Y-90154500D01*
X141369646Y-90154163D01*
X141369650Y-90154163D01*
X141465308Y-90144238D01*
X141465312Y-90144237D01*
X141472166Y-90143526D01*
X141478702Y-90141345D01*
X141478704Y-90141345D01*
X141610806Y-90097272D01*
X141639946Y-90087550D01*
X141790348Y-89994478D01*
X141915305Y-89869303D01*
X142005081Y-89723660D01*
X142057852Y-89676168D01*
X142127924Y-89664744D01*
X142193048Y-89693018D01*
X142203510Y-89702805D01*
X142219862Y-89719946D01*
X142312576Y-89817135D01*
X142497542Y-89954754D01*
X142502293Y-89957170D01*
X142502297Y-89957172D01*
X142584855Y-89999146D01*
X142703051Y-90059240D01*
X142708145Y-90060822D01*
X142708148Y-90060823D01*
X142871361Y-90111502D01*
X142923227Y-90127607D01*
X142928516Y-90128308D01*
X143107519Y-90152033D01*
X143172421Y-90180812D01*
X143211461Y-90240112D01*
X143212244Y-90311104D01*
X143180059Y-90366036D01*
X140577747Y-92968348D01*
X140569461Y-92975888D01*
X140562982Y-92980000D01*
X140557557Y-92985777D01*
X140516357Y-93029651D01*
X140513602Y-93032493D01*
X140493865Y-93052230D01*
X140491385Y-93055427D01*
X140483682Y-93064447D01*
X140453414Y-93096679D01*
X140449595Y-93103625D01*
X140449593Y-93103628D01*
X140443652Y-93114434D01*
X140432801Y-93130953D01*
X140420386Y-93146959D01*
X140417241Y-93154228D01*
X140417238Y-93154232D01*
X140402826Y-93187537D01*
X140397609Y-93198187D01*
X140376305Y-93236940D01*
X140374334Y-93244615D01*
X140374334Y-93244616D01*
X140371267Y-93256562D01*
X140364863Y-93275266D01*
X140356819Y-93293855D01*
X140355579Y-93301681D01*
X140353366Y-93309299D01*
X140351640Y-93308797D01*
X140325037Y-93364572D01*
X140230960Y-93469056D01*
X140135473Y-93634444D01*
X140076458Y-93816072D01*
X140056496Y-94006000D01*
X140057186Y-94012565D01*
X140073861Y-94171215D01*
X140076458Y-94195928D01*
X140135473Y-94377556D01*
X140230960Y-94542944D01*
X140318528Y-94640198D01*
X140321939Y-94643986D01*
X140352656Y-94707994D01*
X140343891Y-94778447D01*
X140298428Y-94832978D01*
X140274585Y-94845487D01*
X140248870Y-94855643D01*
X140154744Y-94892815D01*
X140154742Y-94892816D01*
X140149779Y-94894776D01*
X140145220Y-94897543D01*
X140145217Y-94897544D01*
X140105136Y-94921866D01*
X139952683Y-95014377D01*
X139948653Y-95017874D01*
X139786047Y-95158976D01*
X139778555Y-95165477D01*
X139760460Y-95187545D01*
X139635760Y-95339627D01*
X139635756Y-95339633D01*
X139632376Y-95343755D01*
X139629737Y-95348391D01*
X139629735Y-95348394D01*
X139592428Y-95413933D01*
X139518325Y-95544114D01*
X139439663Y-95760825D01*
X139438714Y-95766074D01*
X139438713Y-95766077D01*
X139399377Y-95983608D01*
X139399376Y-95983615D01*
X139398639Y-95987692D01*
X139397500Y-96011844D01*
X139397500Y-96473890D01*
X139403141Y-96540366D01*
X139411510Y-96638999D01*
X139412080Y-96645720D01*
X139413418Y-96650875D01*
X139413419Y-96650881D01*
X139468657Y-96863703D01*
X139469999Y-96868872D01*
X139472191Y-96873738D01*
X139472192Y-96873741D01*
X139508063Y-96953371D01*
X139564688Y-97079075D01*
X139693441Y-97270319D01*
X139697120Y-97274176D01*
X139697122Y-97274178D01*
X139758710Y-97338738D01*
X139852576Y-97437135D01*
X140037542Y-97574754D01*
X140042293Y-97577170D01*
X140042297Y-97577172D01*
X140105481Y-97609296D01*
X140243051Y-97679240D01*
X140248145Y-97680822D01*
X140248148Y-97680823D01*
X140448020Y-97742885D01*
X140463227Y-97747607D01*
X140468516Y-97748308D01*
X140686489Y-97777198D01*
X140686494Y-97777198D01*
X140691774Y-97777898D01*
X140697103Y-97777698D01*
X140697105Y-97777698D01*
X140806966Y-97773574D01*
X140922158Y-97769249D01*
X140944802Y-97764498D01*
X141142572Y-97723002D01*
X141147791Y-97721907D01*
X141152750Y-97719949D01*
X141152752Y-97719948D01*
X141357256Y-97639185D01*
X141357258Y-97639184D01*
X141362221Y-97637224D01*
X141398343Y-97615305D01*
X141554757Y-97520390D01*
X141554756Y-97520390D01*
X141559317Y-97517623D01*
X141599134Y-97483072D01*
X141729412Y-97370023D01*
X141729414Y-97370021D01*
X141733445Y-97366523D01*
X141762670Y-97330880D01*
X141821329Y-97290886D01*
X141892299Y-97288954D01*
X141953048Y-97325698D01*
X141967248Y-97344468D01*
X141980896Y-97366523D01*
X142057522Y-97490348D01*
X142182697Y-97615305D01*
X142188927Y-97619145D01*
X142188928Y-97619146D01*
X142326090Y-97703694D01*
X142333262Y-97708115D01*
X142368938Y-97719948D01*
X142494611Y-97761632D01*
X142494613Y-97761632D01*
X142501139Y-97763797D01*
X142507975Y-97764497D01*
X142507978Y-97764498D01*
X142543663Y-97768154D01*
X142605600Y-97774500D01*
X143906400Y-97774500D01*
X143909646Y-97774163D01*
X143909650Y-97774163D01*
X144005308Y-97764238D01*
X144005312Y-97764237D01*
X144012166Y-97763526D01*
X144018702Y-97761345D01*
X144018704Y-97761345D01*
X144150806Y-97717272D01*
X144179946Y-97707550D01*
X144330348Y-97614478D01*
X144455305Y-97489303D01*
X144487462Y-97437135D01*
X144544275Y-97344968D01*
X144544276Y-97344966D01*
X144548115Y-97338738D01*
X144603797Y-97170861D01*
X144605005Y-97159078D01*
X144613201Y-97079075D01*
X144614500Y-97066400D01*
X144614500Y-95465600D01*
X144610697Y-95428949D01*
X144604238Y-95366692D01*
X144604237Y-95366688D01*
X144603526Y-95359834D01*
X144599710Y-95348394D01*
X144549868Y-95199002D01*
X144547550Y-95192054D01*
X144454478Y-95041652D01*
X144329303Y-94916695D01*
X144323072Y-94912854D01*
X144184968Y-94827725D01*
X144184966Y-94827724D01*
X144178738Y-94823885D01*
X144065353Y-94786277D01*
X144017389Y-94770368D01*
X144017387Y-94770368D01*
X144010861Y-94768203D01*
X144004025Y-94767503D01*
X144004022Y-94767502D01*
X143960969Y-94763091D01*
X143906400Y-94757500D01*
X142605600Y-94757500D01*
X142602354Y-94757837D01*
X142602350Y-94757837D01*
X142506692Y-94767762D01*
X142506688Y-94767763D01*
X142499834Y-94768474D01*
X142493298Y-94770655D01*
X142493296Y-94770655D01*
X142361194Y-94814728D01*
X142332054Y-94824450D01*
X142181652Y-94917522D01*
X142056695Y-95042697D01*
X141970437Y-95182634D01*
X141966920Y-95188339D01*
X141914148Y-95235832D01*
X141844076Y-95247256D01*
X141778952Y-95218982D01*
X141768490Y-95209195D01*
X141663103Y-95098722D01*
X141659424Y-95094865D01*
X141647308Y-95085850D01*
X141479490Y-94960990D01*
X141436777Y-94904280D01*
X141431504Y-94833479D01*
X141465347Y-94771067D01*
X141480642Y-94757965D01*
X141555176Y-94703812D01*
X141581253Y-94684866D01*
X141615439Y-94646899D01*
X141704621Y-94547852D01*
X141704622Y-94547851D01*
X141709040Y-94542944D01*
X141804527Y-94377556D01*
X141863542Y-94195928D01*
X141866140Y-94171215D01*
X141882814Y-94012565D01*
X141883504Y-94006000D01*
X141863542Y-93816072D01*
X141804527Y-93634444D01*
X141806699Y-93633738D01*
X141798653Y-93573799D01*
X141828749Y-93509497D01*
X141834102Y-93503802D01*
X149192752Y-86145152D01*
X149255064Y-86111126D01*
X149314459Y-86112541D01*
X149372591Y-86128118D01*
X149372602Y-86128120D01*
X149377913Y-86129543D01*
X149606000Y-86149498D01*
X149834087Y-86129543D01*
X149839400Y-86128119D01*
X149839402Y-86128119D01*
X150049933Y-86071707D01*
X150049935Y-86071706D01*
X150055243Y-86070284D01*
X150087175Y-86055394D01*
X150257762Y-85975849D01*
X150257767Y-85975846D01*
X150262749Y-85973523D01*
X150445426Y-85845611D01*
X150445789Y-85845357D01*
X150445792Y-85845355D01*
X150450300Y-85842198D01*
X150612198Y-85680300D01*
X150621512Y-85666999D01*
X150683161Y-85578954D01*
X150743523Y-85492749D01*
X150745846Y-85487767D01*
X150745849Y-85487762D01*
X150761805Y-85453543D01*
X150808722Y-85400258D01*
X150876999Y-85380797D01*
X150944959Y-85401339D01*
X150990195Y-85453543D01*
X151006151Y-85487762D01*
X151006154Y-85487767D01*
X151008477Y-85492749D01*
X151068839Y-85578954D01*
X151130489Y-85666999D01*
X151139802Y-85680300D01*
X151301700Y-85842198D01*
X151306208Y-85845355D01*
X151306211Y-85845357D01*
X151306574Y-85845611D01*
X151489251Y-85973523D01*
X151494233Y-85975846D01*
X151494238Y-85975849D01*
X151664825Y-86055394D01*
X151696757Y-86070284D01*
X151702065Y-86071706D01*
X151702067Y-86071707D01*
X151912598Y-86128119D01*
X151912600Y-86128119D01*
X151917913Y-86129543D01*
X152146000Y-86149498D01*
X152374087Y-86129543D01*
X152379400Y-86128119D01*
X152379402Y-86128119D01*
X152589933Y-86071707D01*
X152589935Y-86071706D01*
X152595243Y-86070284D01*
X152627175Y-86055394D01*
X152797762Y-85975849D01*
X152797767Y-85975846D01*
X152802749Y-85973523D01*
X152985426Y-85845611D01*
X152985789Y-85845357D01*
X152985792Y-85845355D01*
X152990300Y-85842198D01*
X153152198Y-85680300D01*
X153161512Y-85666999D01*
X153223161Y-85578954D01*
X153283523Y-85492749D01*
X153285846Y-85487767D01*
X153285849Y-85487762D01*
X153301805Y-85453543D01*
X153348722Y-85400258D01*
X153416999Y-85380797D01*
X153484959Y-85401339D01*
X153530195Y-85453543D01*
X153546151Y-85487762D01*
X153546154Y-85487767D01*
X153548477Y-85492749D01*
X153608839Y-85578954D01*
X153670489Y-85666999D01*
X153679802Y-85680300D01*
X153841700Y-85842198D01*
X153846208Y-85845355D01*
X153846211Y-85845357D01*
X153998771Y-85952181D01*
X154043099Y-86007638D01*
X154052500Y-86055394D01*
X154052500Y-87100065D01*
X154032498Y-87168186D01*
X153978842Y-87214679D01*
X153908568Y-87224783D01*
X153889136Y-87220397D01*
X153713875Y-87165977D01*
X153713873Y-87165976D01*
X153708773Y-87164393D01*
X153703484Y-87163692D01*
X153485511Y-87134802D01*
X153485506Y-87134802D01*
X153480226Y-87134102D01*
X153474897Y-87134302D01*
X153474895Y-87134302D01*
X153365034Y-87138426D01*
X153249842Y-87142751D01*
X153244623Y-87143846D01*
X153222566Y-87148474D01*
X153024209Y-87190093D01*
X153019250Y-87192051D01*
X153019248Y-87192052D01*
X152814744Y-87272815D01*
X152814742Y-87272816D01*
X152809779Y-87274776D01*
X152805220Y-87277543D01*
X152805217Y-87277544D01*
X152710113Y-87335255D01*
X152612683Y-87394377D01*
X152608653Y-87397874D01*
X152515484Y-87478722D01*
X152438555Y-87545477D01*
X152409330Y-87581120D01*
X152350671Y-87621114D01*
X152279701Y-87623046D01*
X152218952Y-87586302D01*
X152204752Y-87567532D01*
X152118332Y-87427880D01*
X152114478Y-87421652D01*
X151989303Y-87296695D01*
X151958965Y-87277994D01*
X151844968Y-87207725D01*
X151844966Y-87207724D01*
X151838738Y-87203885D01*
X151758995Y-87177436D01*
X151677389Y-87150368D01*
X151677387Y-87150368D01*
X151670861Y-87148203D01*
X151664025Y-87147503D01*
X151664022Y-87147502D01*
X151620969Y-87143091D01*
X151566400Y-87137500D01*
X150265600Y-87137500D01*
X150262354Y-87137837D01*
X150262350Y-87137837D01*
X150166692Y-87147762D01*
X150166688Y-87147763D01*
X150159834Y-87148474D01*
X150153298Y-87150655D01*
X150153296Y-87150655D01*
X150021194Y-87194728D01*
X149992054Y-87204450D01*
X149841652Y-87297522D01*
X149716695Y-87422697D01*
X149712855Y-87428927D01*
X149712854Y-87428928D01*
X149642954Y-87542327D01*
X149623885Y-87573262D01*
X149568203Y-87741139D01*
X149557500Y-87845600D01*
X149557500Y-89446400D01*
X149568474Y-89552166D01*
X149570655Y-89558702D01*
X149570655Y-89558704D01*
X149603161Y-89656135D01*
X149624450Y-89719946D01*
X149717522Y-89870348D01*
X149842697Y-89995305D01*
X149848927Y-89999145D01*
X149848928Y-89999146D01*
X149986090Y-90083694D01*
X149993262Y-90088115D01*
X150066703Y-90112474D01*
X150154611Y-90141632D01*
X150154613Y-90141632D01*
X150161139Y-90143797D01*
X150167975Y-90144497D01*
X150167978Y-90144498D01*
X150203663Y-90148154D01*
X150265600Y-90154500D01*
X151566400Y-90154500D01*
X151569646Y-90154163D01*
X151569650Y-90154163D01*
X151665308Y-90144238D01*
X151665312Y-90144237D01*
X151672166Y-90143526D01*
X151678702Y-90141345D01*
X151678704Y-90141345D01*
X151810806Y-90097272D01*
X151839946Y-90087550D01*
X151990348Y-89994478D01*
X152115305Y-89869303D01*
X152205081Y-89723660D01*
X152257852Y-89676168D01*
X152327924Y-89664744D01*
X152393048Y-89693018D01*
X152403510Y-89702805D01*
X152419862Y-89719946D01*
X152512576Y-89817135D01*
X152697542Y-89954754D01*
X152702293Y-89957170D01*
X152702297Y-89957172D01*
X152784855Y-89999146D01*
X152903051Y-90059240D01*
X152908145Y-90060822D01*
X152908148Y-90060823D01*
X153071361Y-90111502D01*
X153123227Y-90127607D01*
X153128516Y-90128308D01*
X153346489Y-90157198D01*
X153346494Y-90157198D01*
X153351774Y-90157898D01*
X153357103Y-90157698D01*
X153357105Y-90157698D01*
X153466966Y-90153574D01*
X153582158Y-90149249D01*
X153600746Y-90145349D01*
X153802572Y-90103002D01*
X153807791Y-90101907D01*
X153812750Y-90099949D01*
X153812752Y-90099948D01*
X153880218Y-90073304D01*
X153950924Y-90066886D01*
X154013876Y-90099713D01*
X154049086Y-90161364D01*
X154052500Y-90190496D01*
X154052500Y-92181406D01*
X154032498Y-92249527D01*
X154015595Y-92270501D01*
X151486095Y-94800000D01*
X151423783Y-94834026D01*
X151359636Y-94831237D01*
X151213875Y-94785977D01*
X151213873Y-94785976D01*
X151208773Y-94784393D01*
X151197674Y-94782922D01*
X150985511Y-94754802D01*
X150985506Y-94754802D01*
X150980226Y-94754102D01*
X150974897Y-94754302D01*
X150974895Y-94754302D01*
X150877327Y-94757965D01*
X150749842Y-94762751D01*
X150744623Y-94763846D01*
X150667118Y-94780108D01*
X150524209Y-94810093D01*
X150519250Y-94812051D01*
X150519248Y-94812052D01*
X150314744Y-94892815D01*
X150314742Y-94892816D01*
X150309779Y-94894776D01*
X150305220Y-94897543D01*
X150305217Y-94897544D01*
X150265136Y-94921866D01*
X150112683Y-95014377D01*
X150108653Y-95017874D01*
X149946047Y-95158976D01*
X149938555Y-95165477D01*
X149920460Y-95187545D01*
X149795760Y-95339627D01*
X149795756Y-95339633D01*
X149792376Y-95343755D01*
X149789737Y-95348391D01*
X149789735Y-95348394D01*
X149752428Y-95413933D01*
X149678325Y-95544114D01*
X149599663Y-95760825D01*
X149598714Y-95766074D01*
X149598713Y-95766077D01*
X149559377Y-95983608D01*
X149559376Y-95983615D01*
X149558639Y-95987692D01*
X149557500Y-96011844D01*
X149557500Y-96473890D01*
X149563141Y-96540366D01*
X149571510Y-96638999D01*
X149572080Y-96645720D01*
X149573418Y-96650875D01*
X149573419Y-96650881D01*
X149628657Y-96863703D01*
X149629999Y-96868872D01*
X149632191Y-96873738D01*
X149632192Y-96873741D01*
X149668063Y-96953371D01*
X149724688Y-97079075D01*
X149853441Y-97270319D01*
X149857120Y-97274176D01*
X149857122Y-97274178D01*
X149918710Y-97338738D01*
X150012576Y-97437135D01*
X150197542Y-97574754D01*
X150202293Y-97577170D01*
X150202297Y-97577172D01*
X150265481Y-97609296D01*
X150403051Y-97679240D01*
X150408145Y-97680822D01*
X150408148Y-97680823D01*
X150608020Y-97742885D01*
X150623227Y-97747607D01*
X150628516Y-97748308D01*
X150846489Y-97777198D01*
X150846494Y-97777198D01*
X150851774Y-97777898D01*
X150857103Y-97777698D01*
X150857105Y-97777698D01*
X150966966Y-97773574D01*
X151082158Y-97769249D01*
X151104802Y-97764498D01*
X151302572Y-97723002D01*
X151307791Y-97721907D01*
X151312750Y-97719949D01*
X151312752Y-97719948D01*
X151517256Y-97639185D01*
X151517258Y-97639184D01*
X151522221Y-97637224D01*
X151558343Y-97615305D01*
X151714757Y-97520390D01*
X151714756Y-97520390D01*
X151719317Y-97517623D01*
X151759134Y-97483072D01*
X151889412Y-97370023D01*
X151889414Y-97370021D01*
X151893445Y-97366523D01*
X151922670Y-97330880D01*
X151981329Y-97290886D01*
X152052299Y-97288954D01*
X152113048Y-97325698D01*
X152127248Y-97344468D01*
X152140896Y-97366523D01*
X152217522Y-97490348D01*
X152342697Y-97615305D01*
X152348927Y-97619145D01*
X152348928Y-97619146D01*
X152486090Y-97703694D01*
X152493262Y-97708115D01*
X152528938Y-97719948D01*
X152654611Y-97761632D01*
X152654613Y-97761632D01*
X152661139Y-97763797D01*
X152667975Y-97764497D01*
X152667978Y-97764498D01*
X152703663Y-97768154D01*
X152765600Y-97774500D01*
X154066400Y-97774500D01*
X154069646Y-97774163D01*
X154069650Y-97774163D01*
X154165308Y-97764238D01*
X154165312Y-97764237D01*
X154172166Y-97763526D01*
X154178702Y-97761345D01*
X154178704Y-97761345D01*
X154310806Y-97717272D01*
X154339946Y-97707550D01*
X154490348Y-97614478D01*
X154615305Y-97489303D01*
X154647462Y-97437135D01*
X154704275Y-97344968D01*
X154704276Y-97344966D01*
X154708115Y-97338738D01*
X154763797Y-97170861D01*
X154765005Y-97159078D01*
X154773201Y-97079075D01*
X154774500Y-97066400D01*
X154774500Y-95996376D01*
X159718732Y-95996376D01*
X159722475Y-96009124D01*
X159723865Y-96010329D01*
X159731548Y-96012000D01*
X160803885Y-96012000D01*
X160819124Y-96007525D01*
X160820329Y-96006135D01*
X160822000Y-95998452D01*
X160822000Y-94799808D01*
X160818027Y-94786277D01*
X160807420Y-94784752D01*
X160689579Y-94809477D01*
X160679383Y-94812537D01*
X160474971Y-94893263D01*
X160465439Y-94897994D01*
X160277538Y-95012016D01*
X160268948Y-95018280D01*
X160102948Y-95162327D01*
X160095528Y-95169958D01*
X159956174Y-95339911D01*
X159950150Y-95348678D01*
X159841424Y-95539682D01*
X159836959Y-95549346D01*
X159761969Y-95755941D01*
X159759198Y-95766208D01*
X159719877Y-95983655D01*
X159718944Y-95991884D01*
X159718732Y-95996376D01*
X154774500Y-95996376D01*
X154774500Y-95465600D01*
X154770697Y-95428949D01*
X154764238Y-95366692D01*
X154764237Y-95366688D01*
X154763526Y-95359834D01*
X154759710Y-95348394D01*
X154709868Y-95199002D01*
X154707550Y-95192054D01*
X154614478Y-95041652D01*
X154489303Y-94916695D01*
X154483072Y-94912854D01*
X154344968Y-94827725D01*
X154344966Y-94827724D01*
X154338738Y-94823885D01*
X154225353Y-94786277D01*
X154177389Y-94770368D01*
X154177387Y-94770368D01*
X154170861Y-94768203D01*
X154164025Y-94767503D01*
X154164022Y-94767502D01*
X154120969Y-94763091D01*
X154066400Y-94757500D01*
X153624595Y-94757500D01*
X153556474Y-94737498D01*
X153509981Y-94683842D01*
X153499877Y-94613568D01*
X153529371Y-94548988D01*
X153535500Y-94542405D01*
X155078253Y-92999652D01*
X155086539Y-92992112D01*
X155093018Y-92988000D01*
X155100531Y-92980000D01*
X155139643Y-92938349D01*
X155142398Y-92935507D01*
X155162135Y-92915770D01*
X155164615Y-92912573D01*
X155172320Y-92903551D01*
X155197159Y-92877100D01*
X155202586Y-92871321D01*
X155206405Y-92864375D01*
X155206407Y-92864372D01*
X155212348Y-92853566D01*
X155223199Y-92837047D01*
X155230758Y-92827301D01*
X155235614Y-92821041D01*
X155238759Y-92813772D01*
X155238762Y-92813768D01*
X155253174Y-92780463D01*
X155258391Y-92769813D01*
X155279695Y-92731060D01*
X155284733Y-92711437D01*
X155291137Y-92692734D01*
X155296033Y-92681420D01*
X155296033Y-92681419D01*
X155299181Y-92674145D01*
X155300420Y-92666322D01*
X155300423Y-92666312D01*
X155306099Y-92630476D01*
X155308505Y-92618856D01*
X155317528Y-92583711D01*
X155317528Y-92583710D01*
X155319500Y-92576030D01*
X155319500Y-92555776D01*
X155321051Y-92536065D01*
X155321489Y-92533303D01*
X155324220Y-92516057D01*
X155320059Y-92472038D01*
X155319500Y-92460181D01*
X155319500Y-89446400D01*
X159677500Y-89446400D01*
X159688474Y-89552166D01*
X159690655Y-89558702D01*
X159690655Y-89558704D01*
X159723161Y-89656135D01*
X159744450Y-89719946D01*
X159837522Y-89870348D01*
X159962697Y-89995305D01*
X159968927Y-89999145D01*
X159968928Y-89999146D01*
X160106090Y-90083694D01*
X160113262Y-90088115D01*
X160186703Y-90112474D01*
X160274611Y-90141632D01*
X160274613Y-90141632D01*
X160281139Y-90143797D01*
X160287975Y-90144497D01*
X160287978Y-90144498D01*
X160323663Y-90148154D01*
X160385600Y-90154500D01*
X161686400Y-90154500D01*
X161689646Y-90154163D01*
X161689650Y-90154163D01*
X161785308Y-90144238D01*
X161785312Y-90144237D01*
X161792166Y-90143526D01*
X161798702Y-90141345D01*
X161798704Y-90141345D01*
X161930806Y-90097272D01*
X161959946Y-90087550D01*
X162110348Y-89994478D01*
X162235305Y-89869303D01*
X162325353Y-89723220D01*
X162378124Y-89675727D01*
X162448196Y-89664303D01*
X162513320Y-89692577D01*
X162523782Y-89702364D01*
X162629234Y-89812906D01*
X162637186Y-89819941D01*
X162813525Y-89951141D01*
X162822562Y-89956745D01*
X163018484Y-90056357D01*
X163028335Y-90060357D01*
X163238240Y-90125534D01*
X163248624Y-90127817D01*
X163264043Y-90129861D01*
X163278207Y-90127665D01*
X163282000Y-90114478D01*
X163282000Y-90112192D01*
X163790000Y-90112192D01*
X163793973Y-90125723D01*
X163804580Y-90127248D01*
X163922421Y-90102523D01*
X163932617Y-90099463D01*
X164137029Y-90018737D01*
X164146561Y-90014006D01*
X164334462Y-89899984D01*
X164343052Y-89893720D01*
X164509052Y-89749673D01*
X164516472Y-89742042D01*
X164655826Y-89572089D01*
X164661850Y-89563322D01*
X164770576Y-89372318D01*
X164775041Y-89362654D01*
X164850031Y-89156059D01*
X164852802Y-89145792D01*
X164892123Y-88928345D01*
X164893056Y-88920116D01*
X164893268Y-88915624D01*
X164889525Y-88902876D01*
X164888135Y-88901671D01*
X164880452Y-88900000D01*
X163808115Y-88900000D01*
X163792876Y-88904475D01*
X163791671Y-88905865D01*
X163790000Y-88913548D01*
X163790000Y-90112192D01*
X163282000Y-90112192D01*
X163282000Y-88373885D01*
X163790000Y-88373885D01*
X163794475Y-88389124D01*
X163795865Y-88390329D01*
X163803548Y-88392000D01*
X164871970Y-88392000D01*
X164886648Y-88387690D01*
X164888711Y-88375807D01*
X164879876Y-88271675D01*
X164878086Y-88261203D01*
X164822870Y-88048465D01*
X164819335Y-88038425D01*
X164729063Y-87838030D01*
X164723894Y-87828744D01*
X164601150Y-87646425D01*
X164594481Y-87638130D01*
X164442772Y-87479100D01*
X164434814Y-87472059D01*
X164258475Y-87340859D01*
X164249438Y-87335255D01*
X164053516Y-87235643D01*
X164043665Y-87231643D01*
X163833760Y-87166466D01*
X163823376Y-87164183D01*
X163807957Y-87162139D01*
X163793793Y-87164335D01*
X163790000Y-87177522D01*
X163790000Y-88373885D01*
X163282000Y-88373885D01*
X163282000Y-87179808D01*
X163278027Y-87166277D01*
X163267420Y-87164752D01*
X163149579Y-87189477D01*
X163139383Y-87192537D01*
X162934971Y-87273263D01*
X162925439Y-87277994D01*
X162737538Y-87392016D01*
X162728948Y-87398280D01*
X162562948Y-87542327D01*
X162555530Y-87549956D01*
X162529609Y-87581569D01*
X162470949Y-87621564D01*
X162399979Y-87623496D01*
X162339230Y-87586752D01*
X162325030Y-87567982D01*
X162311104Y-87545477D01*
X162234478Y-87421652D01*
X162109303Y-87296695D01*
X162078965Y-87277994D01*
X161964968Y-87207725D01*
X161964966Y-87207724D01*
X161958738Y-87203885D01*
X161878995Y-87177436D01*
X161797389Y-87150368D01*
X161797387Y-87150368D01*
X161790861Y-87148203D01*
X161784025Y-87147503D01*
X161784022Y-87147502D01*
X161740969Y-87143091D01*
X161686400Y-87137500D01*
X160385600Y-87137500D01*
X160382354Y-87137837D01*
X160382350Y-87137837D01*
X160286692Y-87147762D01*
X160286688Y-87147763D01*
X160279834Y-87148474D01*
X160273298Y-87150655D01*
X160273296Y-87150655D01*
X160141194Y-87194728D01*
X160112054Y-87204450D01*
X159961652Y-87297522D01*
X159836695Y-87422697D01*
X159832855Y-87428927D01*
X159832854Y-87428928D01*
X159762954Y-87542327D01*
X159743885Y-87573262D01*
X159688203Y-87741139D01*
X159677500Y-87845600D01*
X159677500Y-89446400D01*
X155319500Y-89446400D01*
X155319500Y-86055394D01*
X155339502Y-85987273D01*
X155373229Y-85952181D01*
X155525789Y-85845357D01*
X155525792Y-85845355D01*
X155530300Y-85842198D01*
X155692198Y-85680300D01*
X155701512Y-85666999D01*
X155763161Y-85578954D01*
X155823523Y-85492749D01*
X155825846Y-85487767D01*
X155825849Y-85487762D01*
X155841805Y-85453543D01*
X155888722Y-85400258D01*
X155956999Y-85380797D01*
X156024959Y-85401339D01*
X156070195Y-85453543D01*
X156086151Y-85487762D01*
X156086154Y-85487767D01*
X156088477Y-85492749D01*
X156148839Y-85578954D01*
X156210489Y-85666999D01*
X156219802Y-85680300D01*
X156381700Y-85842198D01*
X156386208Y-85845355D01*
X156386211Y-85845357D01*
X156386574Y-85845611D01*
X156569251Y-85973523D01*
X156574233Y-85975846D01*
X156574238Y-85975849D01*
X156744825Y-86055394D01*
X156776757Y-86070284D01*
X156782065Y-86071706D01*
X156782067Y-86071707D01*
X156992598Y-86128119D01*
X156992600Y-86128119D01*
X156997913Y-86129543D01*
X157226000Y-86149498D01*
X157454087Y-86129543D01*
X157459400Y-86128119D01*
X157459402Y-86128119D01*
X157669933Y-86071707D01*
X157669935Y-86071706D01*
X157675243Y-86070284D01*
X157707175Y-86055394D01*
X157877762Y-85975849D01*
X157877767Y-85975846D01*
X157882749Y-85973523D01*
X158065426Y-85845611D01*
X158065789Y-85845357D01*
X158065792Y-85845355D01*
X158070300Y-85842198D01*
X158232198Y-85680300D01*
X158241512Y-85666999D01*
X158303161Y-85578954D01*
X158363523Y-85492749D01*
X158365846Y-85487767D01*
X158365849Y-85487762D01*
X158381805Y-85453543D01*
X158428722Y-85400258D01*
X158496999Y-85380797D01*
X158564959Y-85401339D01*
X158610195Y-85453543D01*
X158626151Y-85487762D01*
X158626154Y-85487767D01*
X158628477Y-85492749D01*
X158688839Y-85578954D01*
X158750489Y-85666999D01*
X158759802Y-85680300D01*
X158921700Y-85842198D01*
X158926208Y-85845355D01*
X158926211Y-85845357D01*
X158926574Y-85845611D01*
X159109251Y-85973523D01*
X159114233Y-85975846D01*
X159114238Y-85975849D01*
X159284825Y-86055394D01*
X159316757Y-86070284D01*
X159322065Y-86071706D01*
X159322067Y-86071707D01*
X159532598Y-86128119D01*
X159532600Y-86128119D01*
X159537913Y-86129543D01*
X159766000Y-86149498D01*
X159994087Y-86129543D01*
X159999400Y-86128119D01*
X159999402Y-86128119D01*
X160209933Y-86071707D01*
X160209935Y-86071706D01*
X160215243Y-86070284D01*
X160247175Y-86055394D01*
X160417762Y-85975849D01*
X160417767Y-85975846D01*
X160422749Y-85973523D01*
X160605426Y-85845611D01*
X160605789Y-85845357D01*
X160605792Y-85845355D01*
X160610300Y-85842198D01*
X160772198Y-85680300D01*
X160781512Y-85666999D01*
X160843161Y-85578954D01*
X160903523Y-85492749D01*
X160905846Y-85487767D01*
X160905849Y-85487762D01*
X160921805Y-85453543D01*
X160968722Y-85400258D01*
X161036999Y-85380797D01*
X161104959Y-85401339D01*
X161150195Y-85453543D01*
X161166151Y-85487762D01*
X161166154Y-85487767D01*
X161168477Y-85492749D01*
X161228839Y-85578954D01*
X161290489Y-85666999D01*
X161299802Y-85680300D01*
X161461700Y-85842198D01*
X161466208Y-85845355D01*
X161466211Y-85845357D01*
X161466574Y-85845611D01*
X161649251Y-85973523D01*
X161654233Y-85975846D01*
X161654238Y-85975849D01*
X161824825Y-86055394D01*
X161856757Y-86070284D01*
X161862065Y-86071706D01*
X161862067Y-86071707D01*
X162072598Y-86128119D01*
X162072600Y-86128119D01*
X162077913Y-86129543D01*
X162306000Y-86149498D01*
X162534087Y-86129543D01*
X162539400Y-86128119D01*
X162539402Y-86128119D01*
X162749933Y-86071707D01*
X162749935Y-86071706D01*
X162755243Y-86070284D01*
X162787175Y-86055394D01*
X162957762Y-85975849D01*
X162957767Y-85975846D01*
X162962749Y-85973523D01*
X163145426Y-85845611D01*
X163145789Y-85845357D01*
X163145792Y-85845355D01*
X163150300Y-85842198D01*
X163312198Y-85680300D01*
X163321512Y-85666999D01*
X163383161Y-85578954D01*
X163443523Y-85492749D01*
X163445846Y-85487767D01*
X163445849Y-85487762D01*
X163461805Y-85453543D01*
X163508722Y-85400258D01*
X163576999Y-85380797D01*
X163644959Y-85401339D01*
X163690195Y-85453543D01*
X163706151Y-85487762D01*
X163706154Y-85487767D01*
X163708477Y-85492749D01*
X163768839Y-85578954D01*
X163830489Y-85666999D01*
X163839802Y-85680300D01*
X164001700Y-85842198D01*
X164006208Y-85845355D01*
X164006211Y-85845357D01*
X164006574Y-85845611D01*
X164189251Y-85973523D01*
X164194233Y-85975846D01*
X164194238Y-85975849D01*
X164364825Y-86055394D01*
X164396757Y-86070284D01*
X164402065Y-86071706D01*
X164402067Y-86071707D01*
X164612598Y-86128119D01*
X164612600Y-86128119D01*
X164617913Y-86129543D01*
X164846000Y-86149498D01*
X165074087Y-86129543D01*
X165079400Y-86128119D01*
X165079402Y-86128119D01*
X165289933Y-86071707D01*
X165289935Y-86071706D01*
X165295243Y-86070284D01*
X165327175Y-86055394D01*
X165497762Y-85975849D01*
X165497767Y-85975846D01*
X165502749Y-85973523D01*
X165685426Y-85845611D01*
X165685789Y-85845357D01*
X165685792Y-85845355D01*
X165690300Y-85842198D01*
X165852198Y-85680300D01*
X165861512Y-85666999D01*
X165923161Y-85578954D01*
X165983523Y-85492749D01*
X165985846Y-85487767D01*
X165985849Y-85487762D01*
X166002081Y-85452951D01*
X166048998Y-85399666D01*
X166117275Y-85380205D01*
X166185235Y-85400747D01*
X166230471Y-85452951D01*
X166246586Y-85487511D01*
X166252069Y-85497007D01*
X166377028Y-85675467D01*
X166384084Y-85683875D01*
X166538125Y-85837916D01*
X166546533Y-85844972D01*
X166724993Y-85969931D01*
X166734489Y-85975414D01*
X166931947Y-86067490D01*
X166942239Y-86071236D01*
X167114503Y-86117394D01*
X167128599Y-86117058D01*
X167132000Y-86109116D01*
X167132000Y-84708000D01*
X167152002Y-84639879D01*
X167205658Y-84593386D01*
X167258000Y-84582000D01*
X167514000Y-84582000D01*
X167582121Y-84602002D01*
X167628614Y-84655658D01*
X167640000Y-84708000D01*
X167640000Y-86103967D01*
X167643973Y-86117498D01*
X167652522Y-86118727D01*
X167829761Y-86071236D01*
X167840053Y-86067490D01*
X168037511Y-85975414D01*
X168047007Y-85969931D01*
X168225467Y-85844972D01*
X168233875Y-85837916D01*
X168387916Y-85683875D01*
X168394972Y-85675467D01*
X168519931Y-85497007D01*
X168525414Y-85487511D01*
X168541529Y-85452951D01*
X168588446Y-85399666D01*
X168656723Y-85380205D01*
X168724683Y-85400747D01*
X168769919Y-85452951D01*
X168786151Y-85487762D01*
X168786154Y-85487767D01*
X168788477Y-85492749D01*
X168848839Y-85578954D01*
X168910489Y-85666999D01*
X168919802Y-85680300D01*
X169081700Y-85842198D01*
X169086208Y-85845355D01*
X169086211Y-85845357D01*
X169086574Y-85845611D01*
X169269251Y-85973523D01*
X169274233Y-85975846D01*
X169274238Y-85975849D01*
X169444825Y-86055394D01*
X169476757Y-86070284D01*
X169482065Y-86071706D01*
X169482067Y-86071707D01*
X169692598Y-86128119D01*
X169692600Y-86128119D01*
X169697913Y-86129543D01*
X169926000Y-86149498D01*
X170154087Y-86129543D01*
X170159400Y-86128119D01*
X170159402Y-86128119D01*
X170369933Y-86071707D01*
X170369935Y-86071706D01*
X170375243Y-86070284D01*
X170407175Y-86055394D01*
X170577762Y-85975849D01*
X170577767Y-85975846D01*
X170582749Y-85973523D01*
X170765426Y-85845611D01*
X170765789Y-85845357D01*
X170765792Y-85845355D01*
X170770300Y-85842198D01*
X170932198Y-85680300D01*
X170941512Y-85666999D01*
X171003161Y-85578954D01*
X171063523Y-85492749D01*
X171065846Y-85487767D01*
X171065849Y-85487762D01*
X171081805Y-85453543D01*
X171128722Y-85400258D01*
X171196999Y-85380797D01*
X171264959Y-85401339D01*
X171310195Y-85453543D01*
X171326151Y-85487762D01*
X171326154Y-85487767D01*
X171328477Y-85492749D01*
X171388839Y-85578954D01*
X171450489Y-85666999D01*
X171459802Y-85680300D01*
X171621700Y-85842198D01*
X171626208Y-85845355D01*
X171626211Y-85845357D01*
X171626574Y-85845611D01*
X171809251Y-85973523D01*
X171814233Y-85975846D01*
X171814238Y-85975849D01*
X171984825Y-86055394D01*
X172016757Y-86070284D01*
X172022065Y-86071706D01*
X172022067Y-86071707D01*
X172232598Y-86128119D01*
X172232600Y-86128119D01*
X172237913Y-86129543D01*
X172466000Y-86149498D01*
X172694087Y-86129543D01*
X172699400Y-86128119D01*
X172699402Y-86128119D01*
X172909933Y-86071707D01*
X172909935Y-86071706D01*
X172915243Y-86070284D01*
X172947175Y-86055394D01*
X173117762Y-85975849D01*
X173117767Y-85975846D01*
X173122749Y-85973523D01*
X173305426Y-85845611D01*
X173305789Y-85845357D01*
X173305792Y-85845355D01*
X173310300Y-85842198D01*
X173472198Y-85680300D01*
X173481512Y-85666999D01*
X173543161Y-85578954D01*
X173603523Y-85492749D01*
X173605846Y-85487767D01*
X173605849Y-85487762D01*
X173621805Y-85453543D01*
X173668722Y-85400258D01*
X173736999Y-85380797D01*
X173804959Y-85401339D01*
X173850195Y-85453543D01*
X173866151Y-85487762D01*
X173866154Y-85487767D01*
X173868477Y-85492749D01*
X173928839Y-85578954D01*
X173990489Y-85666999D01*
X173999802Y-85680300D01*
X174161700Y-85842198D01*
X174166208Y-85845355D01*
X174166211Y-85845357D01*
X174166574Y-85845611D01*
X174349251Y-85973523D01*
X174354233Y-85975846D01*
X174354238Y-85975849D01*
X174524825Y-86055394D01*
X174556757Y-86070284D01*
X174562065Y-86071706D01*
X174562067Y-86071707D01*
X174772598Y-86128119D01*
X174772600Y-86128119D01*
X174777913Y-86129543D01*
X175006000Y-86149498D01*
X175234087Y-86129543D01*
X175239400Y-86128119D01*
X175239402Y-86128119D01*
X175449933Y-86071707D01*
X175449935Y-86071706D01*
X175455243Y-86070284D01*
X175487175Y-86055394D01*
X175657762Y-85975849D01*
X175657767Y-85975846D01*
X175662749Y-85973523D01*
X175845426Y-85845611D01*
X175845789Y-85845357D01*
X175845792Y-85845355D01*
X175850300Y-85842198D01*
X176012198Y-85680300D01*
X176015582Y-85675467D01*
X176121228Y-85524590D01*
X176176685Y-85480262D01*
X176247305Y-85472953D01*
X176310665Y-85504984D01*
X176332160Y-85531496D01*
X176409171Y-85658407D01*
X176409175Y-85658412D01*
X176411941Y-85662970D01*
X176415436Y-85666998D01*
X176415437Y-85666999D01*
X176563752Y-85837916D01*
X176567490Y-85842224D01*
X176571616Y-85845607D01*
X176571620Y-85845611D01*
X176746889Y-85989323D01*
X176746895Y-85989327D01*
X176751017Y-85992707D01*
X176755653Y-85995346D01*
X176755656Y-85995348D01*
X176912655Y-86084717D01*
X176957276Y-86110117D01*
X177180367Y-86191095D01*
X177185616Y-86192044D01*
X177185619Y-86192045D01*
X177409830Y-86232589D01*
X177409837Y-86232590D01*
X177413914Y-86233327D01*
X177432164Y-86234188D01*
X177437299Y-86234430D01*
X177437306Y-86234430D01*
X177438787Y-86234500D01*
X177605587Y-86234500D01*
X177674539Y-86228649D01*
X177777173Y-86219941D01*
X177777177Y-86219940D01*
X177782484Y-86219490D01*
X177787639Y-86218152D01*
X177787645Y-86218151D01*
X178007036Y-86161208D01*
X178007035Y-86161208D01*
X178012207Y-86159866D01*
X178207912Y-86071707D01*
X178223738Y-86064578D01*
X178223741Y-86064577D01*
X178228599Y-86062388D01*
X178425474Y-85929844D01*
X178597201Y-85766024D01*
X178738872Y-85575612D01*
X178741293Y-85570852D01*
X178844017Y-85368808D01*
X178844017Y-85368807D01*
X178846435Y-85364052D01*
X178848019Y-85358952D01*
X178848021Y-85358946D01*
X178892747Y-85214907D01*
X178932050Y-85155781D01*
X178997079Y-85127291D01*
X179067188Y-85138481D01*
X179120118Y-85185798D01*
X179134318Y-85217962D01*
X179175510Y-85363532D01*
X179177644Y-85368108D01*
X179177646Y-85368114D01*
X179274073Y-85574902D01*
X179278099Y-85583536D01*
X179414544Y-85784307D01*
X179581332Y-85960681D01*
X179585358Y-85963759D01*
X179585359Y-85963760D01*
X179770154Y-86105047D01*
X179770158Y-86105050D01*
X179774174Y-86108120D01*
X179778632Y-86110510D01*
X179778633Y-86110511D01*
X179866588Y-86157672D01*
X179988109Y-86222831D01*
X180217631Y-86301862D01*
X180316978Y-86319022D01*
X180452926Y-86342504D01*
X180452932Y-86342505D01*
X180456836Y-86343179D01*
X180460797Y-86343359D01*
X180460798Y-86343359D01*
X180484506Y-86344436D01*
X180484525Y-86344436D01*
X180485925Y-86344500D01*
X180655001Y-86344500D01*
X180657509Y-86344298D01*
X180657514Y-86344298D01*
X180830924Y-86330346D01*
X180830929Y-86330345D01*
X180835965Y-86329940D01*
X180840873Y-86328734D01*
X180840876Y-86328734D01*
X181066792Y-86273244D01*
X181071706Y-86272037D01*
X181076358Y-86270062D01*
X181076362Y-86270061D01*
X181290498Y-86179165D01*
X181295156Y-86177188D01*
X181403252Y-86109116D01*
X181496288Y-86050528D01*
X181496291Y-86050526D01*
X181500567Y-86047833D01*
X181572559Y-85984364D01*
X181678858Y-85890650D01*
X181678861Y-85890647D01*
X181682655Y-85887302D01*
X181752868Y-85801823D01*
X181833526Y-85703628D01*
X181833528Y-85703625D01*
X181836734Y-85699722D01*
X181928942Y-85541294D01*
X181956299Y-85494290D01*
X181956300Y-85494288D01*
X181958841Y-85489922D01*
X181972206Y-85455105D01*
X182044020Y-85268022D01*
X182044021Y-85268018D01*
X182045833Y-85263298D01*
X182051931Y-85234108D01*
X182094440Y-85030631D01*
X182094440Y-85030627D01*
X182095474Y-85025680D01*
X182106486Y-84783183D01*
X182091235Y-84651373D01*
X182079167Y-84547071D01*
X182079166Y-84547067D01*
X182078585Y-84542044D01*
X182075207Y-84530104D01*
X182013866Y-84313331D01*
X182012490Y-84308468D01*
X182010356Y-84303892D01*
X182010354Y-84303886D01*
X181912038Y-84093046D01*
X181912036Y-84093042D01*
X181909901Y-84088464D01*
X181861553Y-84017322D01*
X181839807Y-83949739D01*
X181858051Y-83881127D01*
X181910494Y-83833270D01*
X181965765Y-83820500D01*
X182499500Y-83820500D01*
X182567621Y-83840502D01*
X182614114Y-83894158D01*
X182625500Y-83946500D01*
X182625500Y-100965500D01*
X182605498Y-101033621D01*
X182551842Y-101080114D01*
X182499500Y-101091500D01*
X181768217Y-101091500D01*
X181700096Y-101071498D01*
X181653603Y-101017842D01*
X181643499Y-100947568D01*
X181677581Y-100877972D01*
X181678859Y-100876648D01*
X181682655Y-100873302D01*
X181758231Y-100781294D01*
X181833526Y-100689628D01*
X181833528Y-100689625D01*
X181836734Y-100685722D01*
X181926661Y-100531213D01*
X181956299Y-100480290D01*
X181956300Y-100480288D01*
X181958841Y-100475922D01*
X181994707Y-100382488D01*
X182044020Y-100254022D01*
X182044021Y-100254018D01*
X182045833Y-100249298D01*
X182046868Y-100244345D01*
X182094440Y-100016631D01*
X182094440Y-100016627D01*
X182095474Y-100011680D01*
X182106486Y-99769183D01*
X182105439Y-99760133D01*
X182079167Y-99533071D01*
X182079166Y-99533067D01*
X182078585Y-99528044D01*
X182074003Y-99511849D01*
X182013866Y-99299331D01*
X182012490Y-99294468D01*
X182010356Y-99289892D01*
X182010354Y-99289886D01*
X181912038Y-99079046D01*
X181912036Y-99079042D01*
X181909901Y-99074464D01*
X181887989Y-99042221D01*
X181824944Y-98949455D01*
X181773456Y-98873693D01*
X181606668Y-98697319D01*
X181602641Y-98694240D01*
X181417846Y-98552953D01*
X181417842Y-98552950D01*
X181413826Y-98549880D01*
X181199891Y-98435169D01*
X180970369Y-98356138D01*
X180866447Y-98338188D01*
X180735074Y-98315496D01*
X180735068Y-98315495D01*
X180731164Y-98314821D01*
X180727203Y-98314641D01*
X180727202Y-98314641D01*
X180703494Y-98313564D01*
X180703475Y-98313564D01*
X180702075Y-98313500D01*
X180532999Y-98313500D01*
X180530491Y-98313702D01*
X180530486Y-98313702D01*
X180357076Y-98327654D01*
X180357071Y-98327655D01*
X180352035Y-98328060D01*
X180347127Y-98329266D01*
X180347124Y-98329266D01*
X180121208Y-98384756D01*
X180116294Y-98385963D01*
X180111642Y-98387938D01*
X180111638Y-98387939D01*
X179980741Y-98443502D01*
X179892844Y-98480812D01*
X179888560Y-98483510D01*
X179691712Y-98607472D01*
X179691709Y-98607474D01*
X179687433Y-98610167D01*
X179641834Y-98650367D01*
X179509142Y-98767350D01*
X179509139Y-98767353D01*
X179505345Y-98770698D01*
X179502135Y-98774606D01*
X179502134Y-98774607D01*
X179367531Y-98938477D01*
X179351266Y-98958278D01*
X179309200Y-99030554D01*
X179234859Y-99158285D01*
X179229159Y-99168078D01*
X179227346Y-99172801D01*
X179144484Y-99388667D01*
X179142167Y-99394702D01*
X179141133Y-99399652D01*
X179141132Y-99399655D01*
X179103087Y-99581765D01*
X179069577Y-99644356D01*
X179007548Y-99678893D01*
X178936693Y-99674413D01*
X178879508Y-99632336D01*
X178862558Y-99602279D01*
X178805145Y-99456899D01*
X178805142Y-99456893D01*
X178803182Y-99451930D01*
X178795365Y-99439047D01*
X178682825Y-99253588D01*
X178682824Y-99253587D01*
X178680059Y-99249030D01*
X178627044Y-99187936D01*
X178528010Y-99073809D01*
X178528008Y-99073807D01*
X178524510Y-99069776D01*
X178520384Y-99066393D01*
X178520380Y-99066389D01*
X178345111Y-98922677D01*
X178345105Y-98922673D01*
X178340983Y-98919293D01*
X178336347Y-98916654D01*
X178336344Y-98916652D01*
X178139367Y-98804526D01*
X178134724Y-98801883D01*
X177911633Y-98720905D01*
X177906384Y-98719956D01*
X177906381Y-98719955D01*
X177682170Y-98679411D01*
X177682163Y-98679410D01*
X177678086Y-98678673D01*
X177659836Y-98677812D01*
X177654701Y-98677570D01*
X177654694Y-98677570D01*
X177653213Y-98677500D01*
X177486413Y-98677500D01*
X177417461Y-98683351D01*
X177314827Y-98692059D01*
X177314823Y-98692060D01*
X177309516Y-98692510D01*
X177304361Y-98693848D01*
X177304355Y-98693849D01*
X177191957Y-98723022D01*
X177079793Y-98752134D01*
X177009318Y-98783881D01*
X176868262Y-98847422D01*
X176868259Y-98847423D01*
X176863401Y-98849612D01*
X176666526Y-98982156D01*
X176662669Y-98985835D01*
X176662667Y-98985837D01*
X176615792Y-99030554D01*
X176494799Y-99145976D01*
X176494479Y-99145641D01*
X176437108Y-99181685D01*
X176366115Y-99180957D01*
X176306785Y-99141963D01*
X176284869Y-99104661D01*
X176259767Y-99037703D01*
X176256615Y-99029295D01*
X176169261Y-98912739D01*
X176052705Y-98825385D01*
X175916316Y-98774255D01*
X175854134Y-98767500D01*
X174157866Y-98767500D01*
X174095684Y-98774255D01*
X173959295Y-98825385D01*
X173842739Y-98912739D01*
X173755385Y-99029295D01*
X173704255Y-99165684D01*
X173703083Y-99176474D01*
X173702197Y-99178606D01*
X173701575Y-99181222D01*
X173701152Y-99181121D01*
X173675845Y-99242035D01*
X173617483Y-99282463D01*
X173546529Y-99284922D01*
X173485510Y-99248629D01*
X173478511Y-99239969D01*
X173475354Y-99236207D01*
X173472198Y-99231700D01*
X173310300Y-99069802D01*
X173305792Y-99066645D01*
X173305789Y-99066643D01*
X173180873Y-98979176D01*
X173122749Y-98938477D01*
X173117767Y-98936154D01*
X173117762Y-98936151D01*
X172920225Y-98844039D01*
X172920224Y-98844039D01*
X172915243Y-98841716D01*
X172909935Y-98840294D01*
X172909933Y-98840293D01*
X172699402Y-98783881D01*
X172699400Y-98783881D01*
X172694087Y-98782457D01*
X172466000Y-98762502D01*
X172237913Y-98782457D01*
X172232600Y-98783881D01*
X172232598Y-98783881D01*
X172022067Y-98840293D01*
X172022065Y-98840294D01*
X172016757Y-98841716D01*
X172011776Y-98844039D01*
X172011775Y-98844039D01*
X171814238Y-98936151D01*
X171814233Y-98936154D01*
X171809251Y-98938477D01*
X171751127Y-98979176D01*
X171626211Y-99066643D01*
X171626208Y-99066645D01*
X171621700Y-99069802D01*
X171459802Y-99231700D01*
X171456645Y-99236208D01*
X171456643Y-99236211D01*
X171417409Y-99292243D01*
X171328477Y-99419251D01*
X171326154Y-99424233D01*
X171326151Y-99424238D01*
X171310195Y-99458457D01*
X171263278Y-99511742D01*
X171195001Y-99531203D01*
X171127041Y-99510661D01*
X171081805Y-99458457D01*
X171065849Y-99424238D01*
X171065846Y-99424233D01*
X171063523Y-99419251D01*
X170974591Y-99292243D01*
X170935357Y-99236211D01*
X170935355Y-99236208D01*
X170932198Y-99231700D01*
X170770300Y-99069802D01*
X170765792Y-99066645D01*
X170765789Y-99066643D01*
X170640873Y-98979176D01*
X170582749Y-98938477D01*
X170577767Y-98936154D01*
X170577762Y-98936151D01*
X170380225Y-98844039D01*
X170380224Y-98844039D01*
X170375243Y-98841716D01*
X170369935Y-98840294D01*
X170369933Y-98840293D01*
X170159402Y-98783881D01*
X170159400Y-98783881D01*
X170154087Y-98782457D01*
X169926000Y-98762502D01*
X169697913Y-98782457D01*
X169692600Y-98783881D01*
X169692598Y-98783881D01*
X169482067Y-98840293D01*
X169482065Y-98840294D01*
X169476757Y-98841716D01*
X169471776Y-98844039D01*
X169471775Y-98844039D01*
X169274238Y-98936151D01*
X169274233Y-98936154D01*
X169269251Y-98938477D01*
X169211127Y-98979176D01*
X169086211Y-99066643D01*
X169086208Y-99066645D01*
X169081700Y-99069802D01*
X168919802Y-99231700D01*
X168916645Y-99236208D01*
X168916643Y-99236211D01*
X168877409Y-99292243D01*
X168788477Y-99419251D01*
X168786154Y-99424233D01*
X168786151Y-99424238D01*
X168770195Y-99458457D01*
X168723278Y-99511742D01*
X168655001Y-99531203D01*
X168587041Y-99510661D01*
X168541805Y-99458457D01*
X168525849Y-99424238D01*
X168525846Y-99424233D01*
X168523523Y-99419251D01*
X168437397Y-99296251D01*
X168414710Y-99228979D01*
X168431995Y-99160119D01*
X168479473Y-99113993D01*
X168485639Y-99111552D01*
X168492048Y-99106896D01*
X168492051Y-99106894D01*
X168521409Y-99085564D01*
X168531329Y-99079048D01*
X168562557Y-99060580D01*
X168562560Y-99060578D01*
X168569384Y-99056542D01*
X168583705Y-99042221D01*
X168598739Y-99029380D01*
X168603112Y-99026203D01*
X168615129Y-99017472D01*
X168643320Y-98983395D01*
X168651310Y-98974616D01*
X171764426Y-95861500D01*
X174600496Y-95861500D01*
X174601186Y-95868065D01*
X174618862Y-96036240D01*
X174620458Y-96051428D01*
X174679473Y-96233056D01*
X174774960Y-96398444D01*
X174779378Y-96403351D01*
X174779379Y-96403352D01*
X174898325Y-96535455D01*
X174902747Y-96540366D01*
X174983699Y-96599181D01*
X175047754Y-96645720D01*
X175057248Y-96652618D01*
X175063276Y-96655302D01*
X175063278Y-96655303D01*
X175187849Y-96710765D01*
X175231712Y-96730294D01*
X175306699Y-96746233D01*
X175412056Y-96768628D01*
X175412061Y-96768628D01*
X175418513Y-96770000D01*
X175609487Y-96770000D01*
X175615939Y-96768628D01*
X175615944Y-96768628D01*
X175721301Y-96746233D01*
X175796288Y-96730294D01*
X175840151Y-96710765D01*
X175964722Y-96655303D01*
X175964724Y-96655302D01*
X175970752Y-96652618D01*
X175980247Y-96645720D01*
X176044301Y-96599181D01*
X176125253Y-96540366D01*
X176129675Y-96535455D01*
X176248621Y-96403352D01*
X176248622Y-96403351D01*
X176253040Y-96398444D01*
X176348527Y-96233056D01*
X176407542Y-96051428D01*
X176409139Y-96036240D01*
X176427504Y-95861500D01*
X176428766Y-95861633D01*
X176446816Y-95800158D01*
X176500472Y-95753665D01*
X176570746Y-95743561D01*
X176635326Y-95773055D01*
X176647980Y-95785699D01*
X176713757Y-95861500D01*
X176741477Y-95893445D01*
X176764982Y-95912718D01*
X176915627Y-96036240D01*
X176915633Y-96036244D01*
X176919755Y-96039624D01*
X176924391Y-96042263D01*
X176924394Y-96042265D01*
X177026054Y-96100133D01*
X177120114Y-96153675D01*
X177336825Y-96232337D01*
X177342074Y-96233286D01*
X177342077Y-96233287D01*
X177559608Y-96272623D01*
X177559615Y-96272624D01*
X177563692Y-96273361D01*
X177581414Y-96274197D01*
X177586356Y-96274430D01*
X177586363Y-96274430D01*
X177587844Y-96274500D01*
X177999890Y-96274500D01*
X178066809Y-96268822D01*
X178166409Y-96260371D01*
X178166413Y-96260370D01*
X178171720Y-96259920D01*
X178176875Y-96258582D01*
X178176881Y-96258581D01*
X178389703Y-96203343D01*
X178389707Y-96203342D01*
X178394872Y-96202001D01*
X178399738Y-96199809D01*
X178399741Y-96199808D01*
X178546629Y-96133640D01*
X178605075Y-96107312D01*
X178796319Y-95978559D01*
X178804840Y-95970431D01*
X178912146Y-95868065D01*
X178963135Y-95819424D01*
X179100754Y-95634458D01*
X179205240Y-95428949D01*
X179224572Y-95366692D01*
X179272024Y-95213871D01*
X179273607Y-95208773D01*
X179277586Y-95178751D01*
X179303198Y-94985511D01*
X179303198Y-94985506D01*
X179303898Y-94980226D01*
X179302928Y-94954372D01*
X179296617Y-94786277D01*
X179295249Y-94749842D01*
X179247907Y-94524209D01*
X179239753Y-94503562D01*
X179165185Y-94314744D01*
X179165184Y-94314742D01*
X179163224Y-94309779D01*
X179143122Y-94276651D01*
X179046390Y-94117243D01*
X179043623Y-94112683D01*
X179022204Y-94088000D01*
X178896023Y-93942588D01*
X178896021Y-93942586D01*
X178892523Y-93938555D01*
X178839359Y-93894963D01*
X178718373Y-93795760D01*
X178718367Y-93795756D01*
X178714245Y-93792376D01*
X178682750Y-93774448D01*
X178633445Y-93723368D01*
X178619583Y-93653738D01*
X178645566Y-93587667D01*
X178674716Y-93560427D01*
X178783038Y-93487500D01*
X178796319Y-93478559D01*
X178809033Y-93466431D01*
X178870433Y-93407858D01*
X178963135Y-93319424D01*
X179000606Y-93269062D01*
X179074353Y-93169942D01*
X179100754Y-93134458D01*
X179136349Y-93064449D01*
X179172468Y-92993407D01*
X179205240Y-92928949D01*
X179209333Y-92915770D01*
X179272024Y-92713871D01*
X179273607Y-92708773D01*
X179284762Y-92624611D01*
X179303198Y-92485511D01*
X179303198Y-92485506D01*
X179303898Y-92480226D01*
X179303146Y-92460181D01*
X179298877Y-92346489D01*
X179295249Y-92249842D01*
X179247907Y-92024209D01*
X179231774Y-91983357D01*
X179165185Y-91814744D01*
X179165184Y-91814742D01*
X179163224Y-91809779D01*
X179114510Y-91729500D01*
X179064839Y-91647646D01*
X179043623Y-91612683D01*
X178956755Y-91512576D01*
X178896023Y-91442588D01*
X178896021Y-91442586D01*
X178892523Y-91438555D01*
X178856471Y-91408994D01*
X178816476Y-91350334D01*
X178814545Y-91279364D01*
X178851290Y-91218616D01*
X178870059Y-91204416D01*
X179009807Y-91117937D01*
X179021208Y-91108901D01*
X179135739Y-90994171D01*
X179144751Y-90982760D01*
X179229816Y-90844757D01*
X179235963Y-90831576D01*
X179287138Y-90677290D01*
X179290005Y-90663914D01*
X179299672Y-90569562D01*
X179300000Y-90563146D01*
X179300000Y-90188115D01*
X179295525Y-90172876D01*
X179294135Y-90171671D01*
X179286452Y-90170000D01*
X176352116Y-90170000D01*
X176336877Y-90174475D01*
X176335672Y-90175865D01*
X176334001Y-90183548D01*
X176334001Y-90563095D01*
X176334338Y-90569614D01*
X176344257Y-90665206D01*
X176347149Y-90678600D01*
X176398588Y-90832784D01*
X176404761Y-90845962D01*
X176490063Y-90983807D01*
X176499099Y-90995208D01*
X176613829Y-91109739D01*
X176625243Y-91118753D01*
X176764713Y-91204723D01*
X176812207Y-91257495D01*
X176823631Y-91327566D01*
X176795357Y-91392690D01*
X176785574Y-91403149D01*
X176670865Y-91512576D01*
X176533246Y-91697542D01*
X176530830Y-91702293D01*
X176530828Y-91702297D01*
X176508019Y-91747159D01*
X176428760Y-91903051D01*
X176427178Y-91908145D01*
X176427177Y-91908148D01*
X176365390Y-92107134D01*
X176360393Y-92123227D01*
X176359692Y-92128516D01*
X176340874Y-92270501D01*
X176330102Y-92351774D01*
X176338751Y-92582158D01*
X176386093Y-92807791D01*
X176390323Y-92818500D01*
X176396265Y-92833547D01*
X176402685Y-92904253D01*
X176368169Y-92968926D01*
X175121747Y-94215348D01*
X175113461Y-94222888D01*
X175106982Y-94227000D01*
X175101557Y-94232777D01*
X175060357Y-94276651D01*
X175057602Y-94279493D01*
X175037865Y-94299230D01*
X175035385Y-94302427D01*
X175027682Y-94311447D01*
X174997414Y-94343679D01*
X174993595Y-94350625D01*
X174993593Y-94350628D01*
X174987652Y-94361434D01*
X174976801Y-94377953D01*
X174964386Y-94393959D01*
X174961241Y-94401228D01*
X174961238Y-94401232D01*
X174946826Y-94434537D01*
X174941609Y-94445187D01*
X174920305Y-94483940D01*
X174918334Y-94491615D01*
X174918334Y-94491616D01*
X174915267Y-94503562D01*
X174908863Y-94522266D01*
X174900819Y-94540855D01*
X174899580Y-94548678D01*
X174899577Y-94548688D01*
X174893901Y-94584524D01*
X174891495Y-94596144D01*
X174880500Y-94638970D01*
X174880500Y-94659224D01*
X174878949Y-94678934D01*
X174875780Y-94698943D01*
X174876526Y-94706835D01*
X174879941Y-94742961D01*
X174880500Y-94754819D01*
X174880500Y-95158976D01*
X174860498Y-95227097D01*
X174848142Y-95243279D01*
X174774960Y-95324556D01*
X174679473Y-95489944D01*
X174620458Y-95671572D01*
X174619768Y-95678133D01*
X174619768Y-95678135D01*
X174611077Y-95760825D01*
X174600496Y-95861500D01*
X171764426Y-95861500D01*
X174153247Y-93472679D01*
X174161537Y-93465135D01*
X174168018Y-93461022D01*
X174214659Y-93411354D01*
X174217413Y-93408513D01*
X174237134Y-93388792D01*
X174239612Y-93385597D01*
X174247318Y-93376575D01*
X174249775Y-93373959D01*
X174277586Y-93344343D01*
X174287346Y-93326590D01*
X174298199Y-93310067D01*
X174305753Y-93300328D01*
X174310613Y-93294063D01*
X174328176Y-93253479D01*
X174333383Y-93242849D01*
X174354695Y-93204082D01*
X174356666Y-93196405D01*
X174356668Y-93196400D01*
X174359732Y-93184464D01*
X174366138Y-93165752D01*
X174371033Y-93154441D01*
X174374181Y-93147167D01*
X174375421Y-93139339D01*
X174375423Y-93139332D01*
X174381099Y-93103498D01*
X174383505Y-93091878D01*
X174392528Y-93056733D01*
X174392528Y-93056732D01*
X174394500Y-93049052D01*
X174394500Y-93028798D01*
X174396051Y-93009087D01*
X174397980Y-92996908D01*
X174399220Y-92989079D01*
X174395059Y-92945060D01*
X174394500Y-92933203D01*
X174394500Y-90298524D01*
X174414502Y-90230403D01*
X174426858Y-90214221D01*
X174500040Y-90132944D01*
X174568709Y-90014006D01*
X174592223Y-89973279D01*
X174592224Y-89973278D01*
X174595527Y-89967556D01*
X174654542Y-89785928D01*
X174661087Y-89723661D01*
X174669471Y-89643885D01*
X176334000Y-89643885D01*
X176338475Y-89659124D01*
X176339865Y-89660329D01*
X176347548Y-89662000D01*
X177544885Y-89662000D01*
X177560124Y-89657525D01*
X177561329Y-89656135D01*
X177563000Y-89648452D01*
X177563000Y-89643885D01*
X178071000Y-89643885D01*
X178075475Y-89659124D01*
X178076865Y-89660329D01*
X178084548Y-89662000D01*
X179281884Y-89662000D01*
X179297123Y-89657525D01*
X179298328Y-89656135D01*
X179299999Y-89648452D01*
X179299999Y-89268905D01*
X179299662Y-89262386D01*
X179289743Y-89166794D01*
X179286851Y-89153400D01*
X179235412Y-88999216D01*
X179229239Y-88986038D01*
X179143937Y-88848193D01*
X179134901Y-88836792D01*
X179020171Y-88722261D01*
X179008760Y-88713249D01*
X178870757Y-88628184D01*
X178857576Y-88622037D01*
X178703290Y-88570862D01*
X178689914Y-88567995D01*
X178595562Y-88558328D01*
X178589145Y-88558000D01*
X178089115Y-88558000D01*
X178073876Y-88562475D01*
X178072671Y-88563865D01*
X178071000Y-88571548D01*
X178071000Y-89643885D01*
X177563000Y-89643885D01*
X177563000Y-88576116D01*
X177558525Y-88560877D01*
X177557135Y-88559672D01*
X177549452Y-88558001D01*
X177044905Y-88558001D01*
X177038386Y-88558338D01*
X176942794Y-88568257D01*
X176929400Y-88571149D01*
X176775216Y-88622588D01*
X176762038Y-88628761D01*
X176624193Y-88714063D01*
X176612792Y-88723099D01*
X176498261Y-88837829D01*
X176489249Y-88849240D01*
X176404184Y-88987243D01*
X176398037Y-89000424D01*
X176346862Y-89154710D01*
X176343995Y-89168086D01*
X176334328Y-89262438D01*
X176334000Y-89268855D01*
X176334000Y-89643885D01*
X174669471Y-89643885D01*
X174673814Y-89602565D01*
X174674504Y-89596000D01*
X174658781Y-89446400D01*
X174655232Y-89412635D01*
X174655232Y-89412633D01*
X174654542Y-89406072D01*
X174595527Y-89224444D01*
X174587828Y-89211108D01*
X174550117Y-89145792D01*
X174500040Y-89059056D01*
X174474687Y-89030898D01*
X174376675Y-88922045D01*
X174376674Y-88922044D01*
X174372253Y-88917134D01*
X174273157Y-88845136D01*
X174223094Y-88808763D01*
X174223093Y-88808762D01*
X174217752Y-88804882D01*
X174211724Y-88802198D01*
X174211722Y-88802197D01*
X174049319Y-88729891D01*
X174049318Y-88729891D01*
X174043288Y-88727206D01*
X173949888Y-88707353D01*
X173862944Y-88688872D01*
X173862939Y-88688872D01*
X173856487Y-88687500D01*
X173665513Y-88687500D01*
X173659061Y-88688872D01*
X173659056Y-88688872D01*
X173572112Y-88707353D01*
X173478712Y-88727206D01*
X173472682Y-88729891D01*
X173472681Y-88729891D01*
X173310278Y-88802197D01*
X173310276Y-88802198D01*
X173304248Y-88804882D01*
X173298907Y-88808762D01*
X173298906Y-88808763D01*
X173248843Y-88845136D01*
X173149747Y-88917134D01*
X173145326Y-88922044D01*
X173145325Y-88922045D01*
X173047314Y-89030898D01*
X173021960Y-89059056D01*
X172971883Y-89145792D01*
X172934173Y-89211108D01*
X172926473Y-89224444D01*
X172867458Y-89406072D01*
X172866768Y-89412633D01*
X172866768Y-89412635D01*
X172863219Y-89446400D01*
X172847496Y-89596000D01*
X172848186Y-89602565D01*
X172860914Y-89723661D01*
X172867458Y-89785928D01*
X172926473Y-89967556D01*
X172929776Y-89973278D01*
X172929777Y-89973279D01*
X172953291Y-90014006D01*
X173021960Y-90132944D01*
X173095137Y-90214215D01*
X173125853Y-90278221D01*
X173127500Y-90298524D01*
X173127500Y-92654427D01*
X173107498Y-92722548D01*
X173090595Y-92743522D01*
X172500077Y-93334040D01*
X172437765Y-93368066D01*
X172366950Y-93363001D01*
X172310114Y-93320454D01*
X172303263Y-93310311D01*
X172212984Y-93161538D01*
X172206720Y-93152948D01*
X172062673Y-92986948D01*
X172055044Y-92979530D01*
X172023431Y-92953609D01*
X171983436Y-92894949D01*
X171981504Y-92823979D01*
X172018248Y-92763230D01*
X172037018Y-92749030D01*
X172078462Y-92723384D01*
X172183348Y-92658478D01*
X172308305Y-92533303D01*
X172318936Y-92516057D01*
X172397275Y-92388968D01*
X172397276Y-92388966D01*
X172401115Y-92382738D01*
X172443426Y-92255173D01*
X172454632Y-92221389D01*
X172454632Y-92221387D01*
X172456797Y-92214861D01*
X172467500Y-92110400D01*
X172467500Y-90809600D01*
X172456526Y-90703834D01*
X172400550Y-90536054D01*
X172307478Y-90385652D01*
X172182303Y-90260695D01*
X172165209Y-90250158D01*
X172037968Y-90171725D01*
X172037966Y-90171724D01*
X172031738Y-90167885D01*
X171917099Y-90129861D01*
X171870389Y-90114368D01*
X171870387Y-90114368D01*
X171863861Y-90112203D01*
X171857025Y-90111503D01*
X171857022Y-90111502D01*
X171813969Y-90107091D01*
X171759400Y-90101500D01*
X170158600Y-90101500D01*
X170155354Y-90101837D01*
X170155350Y-90101837D01*
X170059692Y-90111762D01*
X170059688Y-90111763D01*
X170052834Y-90112474D01*
X170046298Y-90114655D01*
X170046296Y-90114655D01*
X169927877Y-90154163D01*
X169885054Y-90168450D01*
X169734652Y-90261522D01*
X169609695Y-90386697D01*
X169516885Y-90537262D01*
X169505173Y-90572572D01*
X169470006Y-90678600D01*
X169461203Y-90705139D01*
X169450500Y-90809600D01*
X169450500Y-92110400D01*
X169450837Y-92113646D01*
X169450837Y-92113650D01*
X169452380Y-92128516D01*
X169461474Y-92216166D01*
X169463655Y-92222702D01*
X169463655Y-92222704D01*
X169504953Y-92346489D01*
X169517450Y-92383946D01*
X169610522Y-92534348D01*
X169735697Y-92659305D01*
X169881258Y-92749030D01*
X169881780Y-92749352D01*
X169929273Y-92802124D01*
X169940697Y-92872196D01*
X169912423Y-92937320D01*
X169902636Y-92947782D01*
X169792094Y-93053234D01*
X169785059Y-93061186D01*
X169653859Y-93237525D01*
X169648255Y-93246562D01*
X169548643Y-93442484D01*
X169544643Y-93452335D01*
X169479466Y-93662240D01*
X169477183Y-93672624D01*
X169475139Y-93688043D01*
X169477335Y-93702207D01*
X169490522Y-93706000D01*
X171087000Y-93706000D01*
X171155121Y-93726002D01*
X171201614Y-93779658D01*
X171213000Y-93832000D01*
X171213000Y-94088000D01*
X171192998Y-94156121D01*
X171139342Y-94202614D01*
X171087000Y-94214000D01*
X169492808Y-94214000D01*
X169479277Y-94217973D01*
X169477752Y-94228580D01*
X169502477Y-94346421D01*
X169505537Y-94356617D01*
X169586263Y-94561029D01*
X169590994Y-94570561D01*
X169705016Y-94758462D01*
X169711280Y-94767052D01*
X169855327Y-94933052D01*
X169862958Y-94940472D01*
X170032911Y-95079826D01*
X170041678Y-95085850D01*
X170232682Y-95194576D01*
X170242342Y-95199040D01*
X170344396Y-95236084D01*
X170401604Y-95278129D01*
X170426999Y-95344428D01*
X170412519Y-95413933D01*
X170390499Y-95443618D01*
X167952522Y-97881595D01*
X167890210Y-97915621D01*
X167863427Y-97918500D01*
X166783094Y-97918500D01*
X166714973Y-97898498D01*
X166668480Y-97844842D01*
X166658376Y-97774568D01*
X166687870Y-97709988D01*
X166693983Y-97703421D01*
X167590502Y-96806903D01*
X167652812Y-96772879D01*
X167679595Y-96770000D01*
X167735487Y-96770000D01*
X167741939Y-96768628D01*
X167741944Y-96768628D01*
X167847301Y-96746233D01*
X167922288Y-96730294D01*
X167966151Y-96710765D01*
X168090722Y-96655303D01*
X168090724Y-96655302D01*
X168096752Y-96652618D01*
X168106247Y-96645720D01*
X168170301Y-96599181D01*
X168251253Y-96540366D01*
X168255675Y-96535455D01*
X168374621Y-96403352D01*
X168374622Y-96403351D01*
X168379040Y-96398444D01*
X168474527Y-96233056D01*
X168533542Y-96051428D01*
X168535139Y-96036240D01*
X168552814Y-95868065D01*
X168553504Y-95861500D01*
X168542923Y-95760825D01*
X168534232Y-95678135D01*
X168534232Y-95678133D01*
X168533542Y-95671572D01*
X168474527Y-95489944D01*
X168379040Y-95324556D01*
X168278009Y-95212349D01*
X168255675Y-95187545D01*
X168255674Y-95187544D01*
X168251253Y-95182634D01*
X168112960Y-95082158D01*
X168102094Y-95074263D01*
X168102093Y-95074262D01*
X168096752Y-95070382D01*
X168090724Y-95067698D01*
X168090722Y-95067697D01*
X167928319Y-94995391D01*
X167928318Y-94995391D01*
X167922288Y-94992706D01*
X167828887Y-94972853D01*
X167741944Y-94954372D01*
X167741939Y-94954372D01*
X167735487Y-94953000D01*
X167544513Y-94953000D01*
X167538061Y-94954372D01*
X167538056Y-94954372D01*
X167451113Y-94972853D01*
X167357712Y-94992706D01*
X167351682Y-94995391D01*
X167351681Y-94995391D01*
X167189278Y-95067697D01*
X167189276Y-95067698D01*
X167183248Y-95070382D01*
X167177907Y-95074262D01*
X167177906Y-95074263D01*
X167167040Y-95082158D01*
X167028747Y-95182634D01*
X167024326Y-95187544D01*
X167024325Y-95187545D01*
X167001992Y-95212349D01*
X166900960Y-95324556D01*
X166805473Y-95489944D01*
X166746458Y-95671572D01*
X166736512Y-95766208D01*
X166729093Y-95836793D01*
X166702080Y-95902450D01*
X166692878Y-95912718D01*
X165486000Y-97119595D01*
X165423688Y-97153621D01*
X165396905Y-97156500D01*
X165060500Y-97156500D01*
X164992379Y-97136498D01*
X164945886Y-97082842D01*
X164934500Y-97030500D01*
X164934500Y-95465600D01*
X164930697Y-95428949D01*
X164924238Y-95366692D01*
X164924237Y-95366688D01*
X164923526Y-95359834D01*
X164919710Y-95348394D01*
X164869868Y-95199002D01*
X164867550Y-95192054D01*
X164774478Y-95041652D01*
X164649303Y-94916695D01*
X164643072Y-94912854D01*
X164504968Y-94827725D01*
X164504966Y-94827724D01*
X164498738Y-94823885D01*
X164385353Y-94786277D01*
X164337389Y-94770368D01*
X164337387Y-94770368D01*
X164330861Y-94768203D01*
X164324025Y-94767503D01*
X164324022Y-94767502D01*
X164280969Y-94763091D01*
X164226400Y-94757500D01*
X162925600Y-94757500D01*
X162922354Y-94757837D01*
X162922350Y-94757837D01*
X162826692Y-94767762D01*
X162826688Y-94767763D01*
X162819834Y-94768474D01*
X162813298Y-94770655D01*
X162813296Y-94770655D01*
X162681194Y-94814728D01*
X162652054Y-94824450D01*
X162501652Y-94917522D01*
X162376695Y-95042697D01*
X162303170Y-95161977D01*
X162286648Y-95188780D01*
X162233876Y-95236273D01*
X162163804Y-95247697D01*
X162098680Y-95219423D01*
X162088218Y-95209636D01*
X161982766Y-95099094D01*
X161974814Y-95092059D01*
X161798475Y-94960859D01*
X161789438Y-94955255D01*
X161593516Y-94855643D01*
X161583665Y-94851643D01*
X161373760Y-94786466D01*
X161363376Y-94784183D01*
X161347957Y-94782139D01*
X161333793Y-94784335D01*
X161330000Y-94797522D01*
X161330000Y-96394000D01*
X161309998Y-96462121D01*
X161256342Y-96508614D01*
X161204000Y-96520000D01*
X159740030Y-96520000D01*
X159725352Y-96524310D01*
X159723289Y-96536193D01*
X159732124Y-96640325D01*
X159733914Y-96650797D01*
X159789130Y-96863535D01*
X159792666Y-96873575D01*
X159840043Y-96978749D01*
X159849784Y-97049074D01*
X159819959Y-97113502D01*
X159760036Y-97151577D01*
X159725161Y-97156500D01*
X159590767Y-97156500D01*
X159579584Y-97155973D01*
X159572091Y-97154298D01*
X159564165Y-97154547D01*
X159564164Y-97154547D01*
X159504014Y-97156438D01*
X159500055Y-97156500D01*
X159472144Y-97156500D01*
X159468210Y-97156997D01*
X159468209Y-97156997D01*
X159468144Y-97157005D01*
X159456307Y-97157938D01*
X159424490Y-97158938D01*
X159420029Y-97159078D01*
X159412110Y-97159327D01*
X159395949Y-97164022D01*
X159392658Y-97164978D01*
X159373306Y-97168986D01*
X159366235Y-97169880D01*
X159353203Y-97171526D01*
X159345834Y-97174443D01*
X159345832Y-97174444D01*
X159312097Y-97187800D01*
X159300869Y-97191645D01*
X159258407Y-97203982D01*
X159251585Y-97208016D01*
X159251579Y-97208019D01*
X159240968Y-97214294D01*
X159223218Y-97222990D01*
X159211756Y-97227528D01*
X159211751Y-97227531D01*
X159204383Y-97230448D01*
X159197968Y-97235109D01*
X159168625Y-97256427D01*
X159158707Y-97262943D01*
X159140019Y-97273995D01*
X159120637Y-97285458D01*
X159106313Y-97299782D01*
X159091281Y-97312621D01*
X159074893Y-97324528D01*
X159057984Y-97344968D01*
X159046712Y-97358593D01*
X159038722Y-97367373D01*
X157639247Y-98766848D01*
X157576935Y-98800874D01*
X157517542Y-98799460D01*
X157454087Y-98782457D01*
X157226000Y-98762502D01*
X156997913Y-98782457D01*
X156992600Y-98783881D01*
X156992598Y-98783881D01*
X156782067Y-98840293D01*
X156782065Y-98840294D01*
X156776757Y-98841716D01*
X156771776Y-98844039D01*
X156771775Y-98844039D01*
X156574238Y-98936151D01*
X156574233Y-98936154D01*
X156569251Y-98938477D01*
X156511127Y-98979176D01*
X156386211Y-99066643D01*
X156386208Y-99066645D01*
X156381700Y-99069802D01*
X156219802Y-99231700D01*
X156216645Y-99236208D01*
X156216643Y-99236211D01*
X156177409Y-99292243D01*
X156088477Y-99419251D01*
X156086154Y-99424233D01*
X156086151Y-99424238D01*
X156070195Y-99458457D01*
X156023278Y-99511742D01*
X155955001Y-99531203D01*
X155887041Y-99510661D01*
X155841805Y-99458457D01*
X155825849Y-99424238D01*
X155825846Y-99424233D01*
X155823523Y-99419251D01*
X155734591Y-99292243D01*
X155695357Y-99236211D01*
X155695355Y-99236208D01*
X155692198Y-99231700D01*
X155530300Y-99069802D01*
X155525792Y-99066645D01*
X155525789Y-99066643D01*
X155400873Y-98979176D01*
X155342749Y-98938477D01*
X155337767Y-98936154D01*
X155337762Y-98936151D01*
X155140225Y-98844039D01*
X155140224Y-98844039D01*
X155135243Y-98841716D01*
X155129935Y-98840294D01*
X155129933Y-98840293D01*
X154919402Y-98783881D01*
X154919400Y-98783881D01*
X154914087Y-98782457D01*
X154686000Y-98762502D01*
X154457913Y-98782457D01*
X154452600Y-98783881D01*
X154452598Y-98783881D01*
X154242067Y-98840293D01*
X154242065Y-98840294D01*
X154236757Y-98841716D01*
X154231776Y-98844039D01*
X154231775Y-98844039D01*
X154034238Y-98936151D01*
X154034233Y-98936154D01*
X154029251Y-98938477D01*
X153971127Y-98979176D01*
X153846211Y-99066643D01*
X153846208Y-99066645D01*
X153841700Y-99069802D01*
X153679802Y-99231700D01*
X153676645Y-99236208D01*
X153676643Y-99236211D01*
X153637409Y-99292243D01*
X153548477Y-99419251D01*
X153546154Y-99424233D01*
X153546151Y-99424238D01*
X153530195Y-99458457D01*
X153483278Y-99511742D01*
X153415001Y-99531203D01*
X153347041Y-99510661D01*
X153301805Y-99458457D01*
X153285849Y-99424238D01*
X153285846Y-99424233D01*
X153283523Y-99419251D01*
X153194591Y-99292243D01*
X153155357Y-99236211D01*
X153155355Y-99236208D01*
X153152198Y-99231700D01*
X152990300Y-99069802D01*
X152985792Y-99066645D01*
X152985789Y-99066643D01*
X152860873Y-98979176D01*
X152802749Y-98938477D01*
X152797767Y-98936154D01*
X152797762Y-98936151D01*
X152600225Y-98844039D01*
X152600224Y-98844039D01*
X152595243Y-98841716D01*
X152589935Y-98840294D01*
X152589933Y-98840293D01*
X152379402Y-98783881D01*
X152379400Y-98783881D01*
X152374087Y-98782457D01*
X152146000Y-98762502D01*
X151917913Y-98782457D01*
X151912600Y-98783881D01*
X151912598Y-98783881D01*
X151702067Y-98840293D01*
X151702065Y-98840294D01*
X151696757Y-98841716D01*
X151691776Y-98844039D01*
X151691775Y-98844039D01*
X151494238Y-98936151D01*
X151494233Y-98936154D01*
X151489251Y-98938477D01*
X151431127Y-98979176D01*
X151306211Y-99066643D01*
X151306208Y-99066645D01*
X151301700Y-99069802D01*
X151139802Y-99231700D01*
X151136645Y-99236208D01*
X151136643Y-99236211D01*
X151097409Y-99292243D01*
X151008477Y-99419251D01*
X151006154Y-99424233D01*
X151006151Y-99424238D01*
X150990195Y-99458457D01*
X150943278Y-99511742D01*
X150875001Y-99531203D01*
X150807041Y-99510661D01*
X150761805Y-99458457D01*
X150745849Y-99424238D01*
X150745846Y-99424233D01*
X150743523Y-99419251D01*
X150654591Y-99292243D01*
X150615357Y-99236211D01*
X150615355Y-99236208D01*
X150612198Y-99231700D01*
X150450300Y-99069802D01*
X150445792Y-99066645D01*
X150445789Y-99066643D01*
X150320873Y-98979176D01*
X150262749Y-98938477D01*
X150257767Y-98936154D01*
X150257762Y-98936151D01*
X150060225Y-98844039D01*
X150060224Y-98844039D01*
X150055243Y-98841716D01*
X150049935Y-98840294D01*
X150049933Y-98840293D01*
X149839402Y-98783881D01*
X149839400Y-98783881D01*
X149834087Y-98782457D01*
X149606000Y-98762502D01*
X149377913Y-98782457D01*
X149372600Y-98783881D01*
X149372598Y-98783881D01*
X149162067Y-98840293D01*
X149162065Y-98840294D01*
X149156757Y-98841716D01*
X149151776Y-98844039D01*
X149151775Y-98844039D01*
X148954238Y-98936151D01*
X148954233Y-98936154D01*
X148949251Y-98938477D01*
X148891127Y-98979176D01*
X148766211Y-99066643D01*
X148766208Y-99066645D01*
X148761700Y-99069802D01*
X148599802Y-99231700D01*
X148596645Y-99236208D01*
X148596643Y-99236211D01*
X148557409Y-99292243D01*
X148468477Y-99419251D01*
X148466154Y-99424233D01*
X148466151Y-99424238D01*
X148450195Y-99458457D01*
X148403278Y-99511742D01*
X148335001Y-99531203D01*
X148267041Y-99510661D01*
X148221805Y-99458457D01*
X148205849Y-99424238D01*
X148205846Y-99424233D01*
X148203523Y-99419251D01*
X148114591Y-99292243D01*
X148075357Y-99236211D01*
X148075355Y-99236208D01*
X148072198Y-99231700D01*
X147910300Y-99069802D01*
X147905792Y-99066645D01*
X147905789Y-99066643D01*
X147780873Y-98979176D01*
X147722749Y-98938477D01*
X147717767Y-98936154D01*
X147717762Y-98936151D01*
X147520225Y-98844039D01*
X147520224Y-98844039D01*
X147515243Y-98841716D01*
X147509935Y-98840294D01*
X147509933Y-98840293D01*
X147299402Y-98783881D01*
X147299400Y-98783881D01*
X147294087Y-98782457D01*
X147066000Y-98762502D01*
X146837913Y-98782457D01*
X146832600Y-98783881D01*
X146832598Y-98783881D01*
X146622067Y-98840293D01*
X146622065Y-98840294D01*
X146616757Y-98841716D01*
X146611776Y-98844039D01*
X146611775Y-98844039D01*
X146414238Y-98936151D01*
X146414233Y-98936154D01*
X146409251Y-98938477D01*
X146351127Y-98979176D01*
X146226211Y-99066643D01*
X146226208Y-99066645D01*
X146221700Y-99069802D01*
X146059802Y-99231700D01*
X146056645Y-99236208D01*
X146056643Y-99236211D01*
X146017409Y-99292243D01*
X145928477Y-99419251D01*
X145926154Y-99424233D01*
X145926151Y-99424238D01*
X145910195Y-99458457D01*
X145863278Y-99511742D01*
X145795001Y-99531203D01*
X145727041Y-99510661D01*
X145681805Y-99458457D01*
X145665849Y-99424238D01*
X145665846Y-99424233D01*
X145663523Y-99419251D01*
X145574591Y-99292243D01*
X145535357Y-99236211D01*
X145535355Y-99236208D01*
X145532198Y-99231700D01*
X145370300Y-99069802D01*
X145365792Y-99066645D01*
X145365789Y-99066643D01*
X145240873Y-98979176D01*
X145182749Y-98938477D01*
X145177767Y-98936154D01*
X145177762Y-98936151D01*
X144980225Y-98844039D01*
X144980224Y-98844039D01*
X144975243Y-98841716D01*
X144969935Y-98840294D01*
X144969933Y-98840293D01*
X144759402Y-98783881D01*
X144759400Y-98783881D01*
X144754087Y-98782457D01*
X144526000Y-98762502D01*
X144297913Y-98782457D01*
X144292600Y-98783881D01*
X144292598Y-98783881D01*
X144082067Y-98840293D01*
X144082065Y-98840294D01*
X144076757Y-98841716D01*
X144071776Y-98844039D01*
X144071775Y-98844039D01*
X143874238Y-98936151D01*
X143874233Y-98936154D01*
X143869251Y-98938477D01*
X143811127Y-98979176D01*
X143686211Y-99066643D01*
X143686208Y-99066645D01*
X143681700Y-99069802D01*
X143519802Y-99231700D01*
X143516645Y-99236208D01*
X143516643Y-99236211D01*
X143477409Y-99292243D01*
X143388477Y-99419251D01*
X143386154Y-99424233D01*
X143386151Y-99424238D01*
X143370195Y-99458457D01*
X143323278Y-99511742D01*
X143255001Y-99531203D01*
X143187041Y-99510661D01*
X143141805Y-99458457D01*
X143125849Y-99424238D01*
X143125846Y-99424233D01*
X143123523Y-99419251D01*
X143034591Y-99292243D01*
X142995357Y-99236211D01*
X142995355Y-99236208D01*
X142992198Y-99231700D01*
X142830300Y-99069802D01*
X142825792Y-99066645D01*
X142825789Y-99066643D01*
X142700873Y-98979176D01*
X142642749Y-98938477D01*
X142637767Y-98936154D01*
X142637762Y-98936151D01*
X142440225Y-98844039D01*
X142440224Y-98844039D01*
X142435243Y-98841716D01*
X142429935Y-98840294D01*
X142429933Y-98840293D01*
X142219402Y-98783881D01*
X142219400Y-98783881D01*
X142214087Y-98782457D01*
X141986000Y-98762502D01*
X141757913Y-98782457D01*
X141752600Y-98783881D01*
X141752598Y-98783881D01*
X141542067Y-98840293D01*
X141542065Y-98840294D01*
X141536757Y-98841716D01*
X141531776Y-98844039D01*
X141531775Y-98844039D01*
X141334238Y-98936151D01*
X141334233Y-98936154D01*
X141329251Y-98938477D01*
X141271127Y-98979176D01*
X141146211Y-99066643D01*
X141146208Y-99066645D01*
X141141700Y-99069802D01*
X140979802Y-99231700D01*
X140976645Y-99236208D01*
X140976643Y-99236211D01*
X140937409Y-99292243D01*
X140848477Y-99419251D01*
X140846154Y-99424233D01*
X140846151Y-99424238D01*
X140830195Y-99458457D01*
X140783278Y-99511742D01*
X140715001Y-99531203D01*
X140647041Y-99510661D01*
X140601805Y-99458457D01*
X140585849Y-99424238D01*
X140585846Y-99424233D01*
X140583523Y-99419251D01*
X140494591Y-99292243D01*
X140455357Y-99236211D01*
X140455355Y-99236208D01*
X140452198Y-99231700D01*
X140290300Y-99069802D01*
X140285792Y-99066645D01*
X140285789Y-99066643D01*
X140160873Y-98979176D01*
X140102749Y-98938477D01*
X140097767Y-98936154D01*
X140097762Y-98936151D01*
X139900225Y-98844039D01*
X139900224Y-98844039D01*
X139895243Y-98841716D01*
X139889935Y-98840294D01*
X139889933Y-98840293D01*
X139679402Y-98783881D01*
X139679400Y-98783881D01*
X139674087Y-98782457D01*
X139446000Y-98762502D01*
X139217913Y-98782457D01*
X139212600Y-98783881D01*
X139212598Y-98783881D01*
X139002067Y-98840293D01*
X139002065Y-98840294D01*
X138996757Y-98841716D01*
X138991776Y-98844039D01*
X138991775Y-98844039D01*
X138794238Y-98936151D01*
X138794233Y-98936154D01*
X138789251Y-98938477D01*
X138731127Y-98979176D01*
X138606211Y-99066643D01*
X138606208Y-99066645D01*
X138601700Y-99069802D01*
X138439802Y-99231700D01*
X138436645Y-99236208D01*
X138436643Y-99236211D01*
X138330772Y-99387410D01*
X138275315Y-99431738D01*
X138204695Y-99439047D01*
X138141335Y-99407016D01*
X138119840Y-99380504D01*
X138042829Y-99253593D01*
X138042822Y-99253584D01*
X138040059Y-99249030D01*
X137987044Y-99187936D01*
X137888010Y-99073809D01*
X137888008Y-99073807D01*
X137884510Y-99069776D01*
X137880384Y-99066393D01*
X137880380Y-99066389D01*
X137705111Y-98922677D01*
X137705105Y-98922673D01*
X137700983Y-98919293D01*
X137696347Y-98916654D01*
X137696344Y-98916652D01*
X137499367Y-98804526D01*
X137494724Y-98801883D01*
X137271633Y-98720905D01*
X137266384Y-98719956D01*
X137266381Y-98719955D01*
X137042170Y-98679411D01*
X137042163Y-98679410D01*
X137038086Y-98678673D01*
X137019836Y-98677812D01*
X137014701Y-98677570D01*
X137014694Y-98677570D01*
X137013213Y-98677500D01*
X136846413Y-98677500D01*
X136777461Y-98683351D01*
X136674827Y-98692059D01*
X136674823Y-98692060D01*
X136669516Y-98692510D01*
X136664361Y-98693848D01*
X136664355Y-98693849D01*
X136551957Y-98723022D01*
X136439793Y-98752134D01*
X136369318Y-98783881D01*
X136228262Y-98847422D01*
X136228259Y-98847423D01*
X136223401Y-98849612D01*
X136026526Y-98982156D01*
X136022669Y-98985835D01*
X136022667Y-98985837D01*
X135980353Y-99026203D01*
X135854799Y-99145976D01*
X135851616Y-99150254D01*
X135828772Y-99180957D01*
X135713128Y-99336388D01*
X135710712Y-99341139D01*
X135710710Y-99341143D01*
X135624523Y-99510661D01*
X135605565Y-99547948D01*
X135603983Y-99553043D01*
X135555021Y-99710729D01*
X135535186Y-99774607D01*
X135534485Y-99779896D01*
X135519710Y-99891373D01*
X135504002Y-100009883D01*
X135512906Y-100247050D01*
X135561642Y-100479327D01*
X135563599Y-100484283D01*
X135563601Y-100484289D01*
X135646857Y-100695105D01*
X135648818Y-100700070D01*
X135651585Y-100704629D01*
X135651586Y-100704632D01*
X135770220Y-100900134D01*
X135788459Y-100968748D01*
X135766708Y-101036331D01*
X135711871Y-101081425D01*
X135662501Y-101091500D01*
X127754416Y-101091500D01*
X127686295Y-101071498D01*
X127639802Y-101017842D01*
X127629698Y-100947568D01*
X127647156Y-100899384D01*
X127650950Y-100893229D01*
X127676161Y-100852329D01*
X127689917Y-100810857D01*
X127729219Y-100692366D01*
X127729219Y-100692364D01*
X127731385Y-100685835D01*
X127736065Y-100640152D01*
X127752290Y-100589994D01*
X127754895Y-100585483D01*
X127834527Y-100447556D01*
X127893542Y-100265928D01*
X127894794Y-100254022D01*
X127912814Y-100082565D01*
X127913504Y-100076000D01*
X127893542Y-99886072D01*
X127852622Y-99760133D01*
X132051612Y-99760133D01*
X132060325Y-99771653D01*
X132158018Y-99843284D01*
X132165928Y-99848227D01*
X132388890Y-99965533D01*
X132397453Y-99969256D01*
X132635304Y-100052318D01*
X132644313Y-100054732D01*
X132891842Y-100101727D01*
X132901098Y-100102781D01*
X133152857Y-100112673D01*
X133162171Y-100112347D01*
X133412615Y-100084920D01*
X133421792Y-100083219D01*
X133665431Y-100019074D01*
X133674251Y-100016037D01*
X133905736Y-99916583D01*
X133914008Y-99912276D01*
X134128249Y-99779700D01*
X134135188Y-99774658D01*
X134143518Y-99762019D01*
X134137456Y-99751666D01*
X133108812Y-98723022D01*
X133094868Y-98715408D01*
X133093035Y-98715539D01*
X133086420Y-98719790D01*
X132058270Y-99747940D01*
X132051612Y-99760133D01*
X127852622Y-99760133D01*
X127834527Y-99704444D01*
X127792896Y-99632336D01*
X127752198Y-99561846D01*
X127735990Y-99511849D01*
X127731827Y-99471728D01*
X127731116Y-99464871D01*
X127675602Y-99298474D01*
X127583297Y-99149311D01*
X127459153Y-99025383D01*
X127452611Y-99021350D01*
X127384191Y-98979176D01*
X127309829Y-98933339D01*
X127302880Y-98931034D01*
X127149866Y-98880281D01*
X127149864Y-98880281D01*
X127143335Y-98878115D01*
X127039731Y-98867500D01*
X126748266Y-98867500D01*
X126452270Y-98867501D01*
X126347371Y-98878384D01*
X126340840Y-98880563D01*
X126340835Y-98880564D01*
X126192689Y-98929990D01*
X126180974Y-98933898D01*
X126031811Y-99026203D01*
X125907883Y-99150347D01*
X125906081Y-99153270D01*
X125849471Y-99193408D01*
X125778548Y-99196642D01*
X125717136Y-99161018D01*
X125711584Y-99154622D01*
X125708297Y-99149311D01*
X125584153Y-99025383D01*
X125577611Y-99021350D01*
X125509191Y-98979176D01*
X125434829Y-98933339D01*
X125427880Y-98931034D01*
X125274866Y-98880281D01*
X125274864Y-98880281D01*
X125268335Y-98878115D01*
X125164731Y-98867500D01*
X124873266Y-98867500D01*
X124577270Y-98867501D01*
X124472371Y-98878384D01*
X124465840Y-98880563D01*
X124465835Y-98880564D01*
X124317689Y-98929990D01*
X124305974Y-98933898D01*
X124156811Y-99026203D01*
X124032883Y-99150347D01*
X124029043Y-99156577D01*
X124029042Y-99156578D01*
X124013566Y-99181685D01*
X123940839Y-99299671D01*
X123938534Y-99306619D01*
X123938534Y-99306620D01*
X123888172Y-99458457D01*
X123885615Y-99466165D01*
X123875000Y-99569769D01*
X123875001Y-100582230D01*
X123885884Y-100687129D01*
X123888063Y-100693660D01*
X123888064Y-100693665D01*
X123931393Y-100823536D01*
X123941398Y-100853526D01*
X123945254Y-100859757D01*
X123969660Y-100899197D01*
X123988498Y-100967649D01*
X123967337Y-101035419D01*
X123912896Y-101080990D01*
X123862516Y-101091500D01*
X121769519Y-101091500D01*
X121701398Y-101071498D01*
X121654905Y-101017842D01*
X121644801Y-100947568D01*
X121660620Y-100902120D01*
X121758296Y-100734296D01*
X121758299Y-100734289D01*
X121760841Y-100729922D01*
X121774759Y-100693665D01*
X121846020Y-100508022D01*
X121846021Y-100508018D01*
X121847833Y-100503298D01*
X121878999Y-100354114D01*
X121896440Y-100270631D01*
X121896440Y-100270627D01*
X121897474Y-100265680D01*
X121908486Y-100023183D01*
X121906947Y-100009883D01*
X121881167Y-99787071D01*
X121881166Y-99787067D01*
X121880585Y-99782044D01*
X121874362Y-99760050D01*
X121821428Y-99572986D01*
X121814490Y-99548468D01*
X121812356Y-99543892D01*
X121812354Y-99543886D01*
X121714038Y-99333046D01*
X121714036Y-99333042D01*
X121711901Y-99328464D01*
X121703768Y-99316496D01*
X121612149Y-99181685D01*
X121575456Y-99127693D01*
X121408668Y-98951319D01*
X121396001Y-98941634D01*
X121219846Y-98806953D01*
X121219842Y-98806950D01*
X121215826Y-98803880D01*
X121138657Y-98762502D01*
X121051071Y-98715539D01*
X121001891Y-98689169D01*
X120772369Y-98610138D01*
X120673022Y-98592978D01*
X120537074Y-98569496D01*
X120537068Y-98569495D01*
X120533164Y-98568821D01*
X120529203Y-98568641D01*
X120529202Y-98568641D01*
X120505494Y-98567564D01*
X120505475Y-98567564D01*
X120504075Y-98567500D01*
X120334999Y-98567500D01*
X120332491Y-98567702D01*
X120332486Y-98567702D01*
X120159076Y-98581654D01*
X120159071Y-98581655D01*
X120154035Y-98582060D01*
X120149127Y-98583266D01*
X120149124Y-98583266D01*
X119923208Y-98638756D01*
X119918294Y-98639963D01*
X119913642Y-98641938D01*
X119913638Y-98641939D01*
X119783172Y-98697319D01*
X119694844Y-98734812D01*
X119632210Y-98774255D01*
X119493712Y-98861472D01*
X119493709Y-98861474D01*
X119489433Y-98864167D01*
X119473612Y-98878115D01*
X119311142Y-99021350D01*
X119311139Y-99021353D01*
X119307345Y-99024698D01*
X119304135Y-99028606D01*
X119304134Y-99028607D01*
X119158832Y-99205502D01*
X119153266Y-99212278D01*
X119135947Y-99242035D01*
X119044210Y-99399655D01*
X119031159Y-99422078D01*
X119029346Y-99426801D01*
X118952591Y-99626757D01*
X118944167Y-99648702D01*
X118943133Y-99653652D01*
X118943132Y-99653655D01*
X118903517Y-99843284D01*
X118894526Y-99886320D01*
X118883514Y-100128817D01*
X118884095Y-100133837D01*
X118884095Y-100133841D01*
X118909052Y-100349532D01*
X118911415Y-100369956D01*
X118912791Y-100374820D01*
X118912792Y-100374823D01*
X118955357Y-100525243D01*
X118977510Y-100603532D01*
X118979644Y-100608108D01*
X118979646Y-100608114D01*
X119076404Y-100815612D01*
X119080099Y-100823536D01*
X119125464Y-100890287D01*
X119128447Y-100894677D01*
X119150193Y-100962261D01*
X119131949Y-101030873D01*
X119079506Y-101078730D01*
X119024235Y-101091500D01*
X118490500Y-101091500D01*
X118422379Y-101071498D01*
X118375886Y-101017842D01*
X118364500Y-100965500D01*
X118364500Y-98309523D01*
X131333898Y-98309523D01*
X131345987Y-98561175D01*
X131347124Y-98570435D01*
X131396274Y-98817535D01*
X131398768Y-98826528D01*
X131483900Y-99063639D01*
X131487700Y-99072174D01*
X131606946Y-99294101D01*
X131611957Y-99301968D01*
X131675446Y-99386990D01*
X131686704Y-99395439D01*
X131699123Y-99388667D01*
X132723978Y-98363812D01*
X132730356Y-98352132D01*
X133460408Y-98352132D01*
X133460539Y-98353965D01*
X133464790Y-98360580D01*
X134495913Y-99391703D01*
X134508293Y-99398463D01*
X134516634Y-99392219D01*
X134642765Y-99196127D01*
X134647212Y-99187936D01*
X134750691Y-98958222D01*
X134753882Y-98949455D01*
X134822269Y-98706976D01*
X134824129Y-98697834D01*
X134856116Y-98446396D01*
X134856597Y-98440108D01*
X134858847Y-98354160D01*
X134858696Y-98347851D01*
X134839912Y-98095074D01*
X134838536Y-98085868D01*
X134782929Y-97840126D01*
X134780205Y-97831215D01*
X134688888Y-97596392D01*
X134684877Y-97587983D01*
X134559854Y-97369240D01*
X134554643Y-97361514D01*
X134517391Y-97314261D01*
X134505466Y-97305790D01*
X134493934Y-97312276D01*
X133468022Y-98338188D01*
X133460408Y-98352132D01*
X132730356Y-98352132D01*
X132731592Y-98349868D01*
X132731461Y-98348035D01*
X132727210Y-98341420D01*
X131697321Y-97311531D01*
X131684013Y-97304264D01*
X131673974Y-97311386D01*
X131663761Y-97323666D01*
X131658346Y-97331258D01*
X131527646Y-97546646D01*
X131523408Y-97554963D01*
X131425981Y-97787299D01*
X131423020Y-97796149D01*
X131361006Y-98040331D01*
X131359384Y-98049528D01*
X131334143Y-98300198D01*
X131333898Y-98309523D01*
X118364500Y-98309523D01*
X118364500Y-96939803D01*
X132049216Y-96939803D01*
X132053789Y-96949579D01*
X133083188Y-97978978D01*
X133097132Y-97986592D01*
X133098965Y-97986461D01*
X133105580Y-97982210D01*
X134134419Y-96953371D01*
X134140803Y-96941681D01*
X134131391Y-96929570D01*
X133994593Y-96834670D01*
X133986565Y-96829942D01*
X133760593Y-96718505D01*
X133751960Y-96715017D01*
X133514480Y-96638999D01*
X133455700Y-96599181D01*
X133427778Y-96533906D01*
X133439579Y-96463897D01*
X133487357Y-96411382D01*
X133520813Y-96397149D01*
X133665431Y-96359074D01*
X133674251Y-96356037D01*
X133905736Y-96256583D01*
X133914008Y-96252276D01*
X134128249Y-96119700D01*
X134135188Y-96114658D01*
X134143518Y-96102019D01*
X134137456Y-96091666D01*
X133108812Y-95063022D01*
X133094868Y-95055408D01*
X133093035Y-95055539D01*
X133086420Y-95059790D01*
X132058270Y-96087940D01*
X132051612Y-96100133D01*
X132060325Y-96111653D01*
X132158018Y-96183284D01*
X132165928Y-96188227D01*
X132388890Y-96305533D01*
X132397453Y-96309256D01*
X132635304Y-96392318D01*
X132644311Y-96394731D01*
X132661974Y-96398085D01*
X132725168Y-96430443D01*
X132760836Y-96491829D01*
X132757655Y-96562754D01*
X132716633Y-96620701D01*
X132673729Y-96642840D01*
X132483098Y-96698404D01*
X132474367Y-96701667D01*
X132245558Y-96807151D01*
X132237406Y-96811670D01*
X132058353Y-96929062D01*
X132049216Y-96939803D01*
X118364500Y-96939803D01*
X118364500Y-94948526D01*
X122901050Y-94948526D01*
X122901274Y-94953192D01*
X122901274Y-94953197D01*
X122906550Y-95063022D01*
X122913947Y-95217019D01*
X122966388Y-95480656D01*
X123057220Y-95733646D01*
X123059432Y-95737762D01*
X123059433Y-95737765D01*
X123071824Y-95760825D01*
X123184450Y-95970431D01*
X123187241Y-95974168D01*
X123187245Y-95974175D01*
X123238091Y-96042265D01*
X123345281Y-96185810D01*
X123348590Y-96189090D01*
X123348595Y-96189096D01*
X123531720Y-96370629D01*
X123536180Y-96375050D01*
X123539942Y-96377808D01*
X123539945Y-96377811D01*
X123716401Y-96507193D01*
X123752954Y-96533995D01*
X123757089Y-96536171D01*
X123757093Y-96536173D01*
X123986698Y-96656975D01*
X123990840Y-96659154D01*
X124103235Y-96698404D01*
X124198484Y-96731666D01*
X124244613Y-96747775D01*
X124249206Y-96748647D01*
X124504109Y-96797042D01*
X124504112Y-96797042D01*
X124508698Y-96797913D01*
X124636370Y-96802929D01*
X124772625Y-96808283D01*
X124772630Y-96808283D01*
X124777293Y-96808466D01*
X124881607Y-96797042D01*
X125039844Y-96779713D01*
X125039850Y-96779712D01*
X125044497Y-96779203D01*
X125068517Y-96772879D01*
X125299918Y-96711956D01*
X125299920Y-96711955D01*
X125304441Y-96710765D01*
X125333212Y-96698404D01*
X125547120Y-96606502D01*
X125547122Y-96606501D01*
X125551414Y-96604657D01*
X125682795Y-96523356D01*
X125749098Y-96504500D01*
X126721984Y-96504500D01*
X126725502Y-96504549D01*
X126820150Y-96507193D01*
X126820153Y-96507193D01*
X126825205Y-96507334D01*
X126903098Y-96496941D01*
X126909639Y-96496242D01*
X126938332Y-96493933D01*
X126982923Y-96490346D01*
X126982927Y-96490345D01*
X126987965Y-96489940D01*
X127019878Y-96482101D01*
X127033258Y-96479574D01*
X127065820Y-96475229D01*
X127070661Y-96473768D01*
X127070663Y-96473767D01*
X127141029Y-96452522D01*
X127147392Y-96450781D01*
X127223706Y-96432037D01*
X127253952Y-96419199D01*
X127266763Y-96414561D01*
X127293362Y-96406530D01*
X127298208Y-96405067D01*
X127302756Y-96402849D01*
X127302763Y-96402846D01*
X127368818Y-96370629D01*
X127374820Y-96367893D01*
X127419504Y-96348925D01*
X127447156Y-96337188D01*
X127474956Y-96319681D01*
X127486860Y-96313055D01*
X127516388Y-96298654D01*
X127580600Y-96253357D01*
X127586086Y-96249699D01*
X127648286Y-96210529D01*
X127648287Y-96210528D01*
X127652567Y-96207833D01*
X127656356Y-96204492D01*
X127656362Y-96204488D01*
X127677217Y-96186102D01*
X127687912Y-96177656D01*
X127690863Y-96175574D01*
X127714747Y-96158726D01*
X127736250Y-96139091D01*
X127775966Y-96099375D01*
X127781736Y-96093956D01*
X127830858Y-96050650D01*
X127830861Y-96050647D01*
X127834655Y-96047302D01*
X127838793Y-96042265D01*
X127861179Y-96015011D01*
X127869449Y-96005892D01*
X129225818Y-94649523D01*
X131333898Y-94649523D01*
X131345987Y-94901175D01*
X131347124Y-94910435D01*
X131396274Y-95157535D01*
X131398768Y-95166528D01*
X131483900Y-95403639D01*
X131487700Y-95412174D01*
X131606946Y-95634101D01*
X131611957Y-95641968D01*
X131675446Y-95726990D01*
X131686704Y-95735439D01*
X131699123Y-95728667D01*
X132723978Y-94703812D01*
X132730356Y-94692132D01*
X133460408Y-94692132D01*
X133460539Y-94693965D01*
X133464790Y-94700580D01*
X134495913Y-95731703D01*
X134508293Y-95738463D01*
X134516634Y-95732219D01*
X134642765Y-95536127D01*
X134647212Y-95527936D01*
X134750691Y-95298222D01*
X134753882Y-95289455D01*
X134822269Y-95046976D01*
X134824129Y-95037834D01*
X134856116Y-94786396D01*
X134856597Y-94780108D01*
X134858847Y-94694160D01*
X134858696Y-94687851D01*
X134839912Y-94435074D01*
X134838536Y-94425868D01*
X134782929Y-94180126D01*
X134780205Y-94171215D01*
X134688888Y-93936392D01*
X134684877Y-93927983D01*
X134559854Y-93709240D01*
X134554643Y-93701514D01*
X134517391Y-93654261D01*
X134505466Y-93645790D01*
X134493934Y-93652276D01*
X133468022Y-94678188D01*
X133460408Y-94692132D01*
X132730356Y-94692132D01*
X132731592Y-94689868D01*
X132731461Y-94688035D01*
X132727210Y-94681420D01*
X131697321Y-93651531D01*
X131684013Y-93644264D01*
X131673974Y-93651386D01*
X131663761Y-93663666D01*
X131658346Y-93671258D01*
X131527646Y-93886646D01*
X131523408Y-93894963D01*
X131425981Y-94127299D01*
X131423020Y-94136149D01*
X131361006Y-94380331D01*
X131359384Y-94389528D01*
X131334143Y-94640198D01*
X131333898Y-94649523D01*
X129225818Y-94649523D01*
X130595538Y-93279803D01*
X132049216Y-93279803D01*
X132053789Y-93289579D01*
X133083188Y-94318978D01*
X133097132Y-94326592D01*
X133098965Y-94326461D01*
X133105580Y-94322210D01*
X134134419Y-93293371D01*
X134140803Y-93281681D01*
X134131391Y-93269570D01*
X133994593Y-93174670D01*
X133986565Y-93169942D01*
X133760593Y-93058505D01*
X133751960Y-93055017D01*
X133511998Y-92978205D01*
X133502938Y-92976029D01*
X133254260Y-92935529D01*
X133244973Y-92934717D01*
X132993053Y-92931419D01*
X132983742Y-92931989D01*
X132734097Y-92965964D01*
X132724978Y-92967902D01*
X132483098Y-93038404D01*
X132474367Y-93041667D01*
X132245558Y-93147151D01*
X132237406Y-93151670D01*
X132058353Y-93269062D01*
X132049216Y-93279803D01*
X130595538Y-93279803D01*
X132094156Y-91781185D01*
X132156468Y-91747159D01*
X132227283Y-91752224D01*
X132241919Y-91758772D01*
X132348305Y-91814744D01*
X132392834Y-91838172D01*
X132397242Y-91839711D01*
X132397248Y-91839714D01*
X132593212Y-91908148D01*
X132639590Y-91924344D01*
X132644183Y-91925216D01*
X132891785Y-91972224D01*
X132891788Y-91972224D01*
X132896374Y-91973095D01*
X133026959Y-91978226D01*
X133152875Y-91983174D01*
X133152881Y-91983174D01*
X133157543Y-91983357D01*
X133236977Y-91974657D01*
X133412707Y-91955412D01*
X133412712Y-91955411D01*
X133417360Y-91954902D01*
X133530116Y-91925216D01*
X133665594Y-91889548D01*
X133665596Y-91889547D01*
X133670117Y-91888357D01*
X133910262Y-91785182D01*
X134044204Y-91702297D01*
X134128547Y-91650104D01*
X134128548Y-91650104D01*
X134132519Y-91647646D01*
X134136082Y-91644629D01*
X134136087Y-91644626D01*
X134328439Y-91481787D01*
X134328440Y-91481786D01*
X134332005Y-91478768D01*
X134398318Y-91403153D01*
X134501257Y-91285774D01*
X134501261Y-91285769D01*
X134504339Y-91282259D01*
X134513813Y-91267531D01*
X134643205Y-91066367D01*
X134645733Y-91062437D01*
X134753083Y-90824129D01*
X134824030Y-90572572D01*
X134846883Y-90392928D01*
X134856616Y-90316421D01*
X134856616Y-90316417D01*
X134857014Y-90313291D01*
X134857933Y-90278221D01*
X134859348Y-90224160D01*
X134859431Y-90221000D01*
X134856648Y-90183548D01*
X134840407Y-89965000D01*
X134840406Y-89964996D01*
X134840061Y-89960348D01*
X134838796Y-89954754D01*
X134783408Y-89709980D01*
X134782377Y-89705423D01*
X134777382Y-89692577D01*
X134689340Y-89466176D01*
X134689339Y-89466173D01*
X134687647Y-89461823D01*
X134676966Y-89443134D01*
X134621107Y-89345402D01*
X134604500Y-89282879D01*
X134604500Y-87503565D01*
X134624529Y-87435402D01*
X134629368Y-87427880D01*
X134645733Y-87402437D01*
X134753083Y-87164129D01*
X134824030Y-86912572D01*
X134840832Y-86780496D01*
X134856616Y-86656421D01*
X134856616Y-86656417D01*
X134857014Y-86653291D01*
X134859431Y-86561000D01*
X134855655Y-86510185D01*
X134840407Y-86305000D01*
X134840406Y-86304996D01*
X134840061Y-86300348D01*
X134828725Y-86250248D01*
X134788218Y-86071236D01*
X134782377Y-86045423D01*
X134780684Y-86041069D01*
X134689340Y-85806176D01*
X134689339Y-85806173D01*
X134687647Y-85801823D01*
X134679738Y-85787984D01*
X134565276Y-85587718D01*
X134557951Y-85574902D01*
X134396138Y-85369643D01*
X134205763Y-85190557D01*
X134053437Y-85084884D01*
X133994851Y-85044241D01*
X133994848Y-85044239D01*
X133991009Y-85041576D01*
X133968815Y-85030631D01*
X133760781Y-84928040D01*
X133760778Y-84928039D01*
X133756593Y-84925975D01*
X133710449Y-84911204D01*
X133512123Y-84847720D01*
X133507665Y-84846293D01*
X133249693Y-84804279D01*
X133135942Y-84802790D01*
X132993022Y-84800919D01*
X132993019Y-84800919D01*
X132988345Y-84800858D01*
X132729362Y-84836104D01*
X132478433Y-84909243D01*
X132474180Y-84911203D01*
X132474179Y-84911204D01*
X132437659Y-84928040D01*
X132241072Y-85018668D01*
X132202067Y-85044241D01*
X132026404Y-85159410D01*
X132026399Y-85159414D01*
X132022491Y-85161976D01*
X131827494Y-85336018D01*
X131660363Y-85536970D01*
X131657934Y-85540973D01*
X131559233Y-85703628D01*
X131524771Y-85760419D01*
X131423697Y-86001455D01*
X131359359Y-86254783D01*
X131358891Y-86259434D01*
X131358890Y-86259438D01*
X131350325Y-86344500D01*
X131333173Y-86514839D01*
X131345713Y-86775908D01*
X131396704Y-87032256D01*
X131485026Y-87278252D01*
X131572494Y-87441039D01*
X131587500Y-87500674D01*
X131587500Y-88584167D01*
X131567498Y-88652288D01*
X131513842Y-88698781D01*
X131457983Y-88710118D01*
X131446851Y-88709807D01*
X131446848Y-88709807D01*
X131441795Y-88709666D01*
X131363902Y-88720059D01*
X131357361Y-88720758D01*
X131328668Y-88723067D01*
X131284077Y-88726654D01*
X131284073Y-88726655D01*
X131279035Y-88727060D01*
X131247122Y-88734899D01*
X131233742Y-88737426D01*
X131201180Y-88741771D01*
X131196339Y-88743232D01*
X131196337Y-88743233D01*
X131125971Y-88764478D01*
X131119610Y-88766219D01*
X131043294Y-88784963D01*
X131038634Y-88786941D01*
X131013049Y-88797801D01*
X131000239Y-88802438D01*
X130968792Y-88811933D01*
X130964244Y-88814151D01*
X130964237Y-88814154D01*
X130898182Y-88846371D01*
X130892180Y-88849107D01*
X130847496Y-88868075D01*
X130819844Y-88879812D01*
X130795532Y-88895123D01*
X130792044Y-88897319D01*
X130780140Y-88903945D01*
X130750612Y-88918346D01*
X130746475Y-88921265D01*
X130746474Y-88921265D01*
X130686403Y-88963641D01*
X130680914Y-88967301D01*
X130618714Y-89006471D01*
X130614433Y-89009167D01*
X130610644Y-89012508D01*
X130610638Y-89012512D01*
X130589783Y-89030898D01*
X130579088Y-89039344D01*
X130552253Y-89058274D01*
X130530750Y-89077909D01*
X130491034Y-89117625D01*
X130485264Y-89123044D01*
X130436142Y-89166350D01*
X130436139Y-89166353D01*
X130432345Y-89169698D01*
X130429135Y-89173606D01*
X130429134Y-89173607D01*
X130405821Y-89201989D01*
X130397551Y-89211108D01*
X126158064Y-93450595D01*
X126095752Y-93484621D01*
X126068969Y-93487500D01*
X125751904Y-93487500D01*
X125680084Y-93465027D01*
X125679599Y-93464690D01*
X125634457Y-93433374D01*
X125630264Y-93431306D01*
X125397564Y-93316551D01*
X125397561Y-93316550D01*
X125393376Y-93314486D01*
X125380334Y-93310311D01*
X125285026Y-93279803D01*
X125137370Y-93232538D01*
X125132763Y-93231788D01*
X125132760Y-93231787D01*
X124876674Y-93190081D01*
X124876675Y-93190081D01*
X124872063Y-93189330D01*
X124741719Y-93187624D01*
X124607961Y-93185873D01*
X124607958Y-93185873D01*
X124603284Y-93185812D01*
X124336937Y-93222060D01*
X124078874Y-93297278D01*
X124074621Y-93299238D01*
X124074620Y-93299239D01*
X124030836Y-93319424D01*
X123834763Y-93409815D01*
X123830854Y-93412378D01*
X123613881Y-93554631D01*
X123613876Y-93554635D01*
X123609968Y-93557197D01*
X123553819Y-93607312D01*
X123423790Y-93723368D01*
X123409426Y-93736188D01*
X123237544Y-93942854D01*
X123098096Y-94172656D01*
X123096287Y-94176970D01*
X123096285Y-94176974D01*
X123028804Y-94337900D01*
X122994148Y-94420545D01*
X122927981Y-94681077D01*
X122901050Y-94948526D01*
X118364500Y-94948526D01*
X118364500Y-91264134D01*
X122905500Y-91264134D01*
X122912255Y-91326316D01*
X122963385Y-91462705D01*
X123050739Y-91579261D01*
X123167295Y-91666615D01*
X123303684Y-91717745D01*
X123365866Y-91724500D01*
X126062134Y-91724500D01*
X126124316Y-91717745D01*
X126260705Y-91666615D01*
X126377261Y-91579261D01*
X126464615Y-91462705D01*
X126515745Y-91326316D01*
X126522500Y-91264134D01*
X126522500Y-88567866D01*
X126515745Y-88505684D01*
X126464615Y-88369295D01*
X126377261Y-88252739D01*
X126260705Y-88165385D01*
X126124316Y-88114255D01*
X126062134Y-88107500D01*
X123365866Y-88107500D01*
X123303684Y-88114255D01*
X123167295Y-88165385D01*
X123050739Y-88252739D01*
X122963385Y-88369295D01*
X122912255Y-88505684D01*
X122905500Y-88567866D01*
X122905500Y-91264134D01*
X118364500Y-91264134D01*
X118364500Y-83946500D01*
X118384502Y-83878379D01*
X118438158Y-83831886D01*
X118490500Y-83820500D01*
X119022481Y-83820500D01*
X119090602Y-83840502D01*
G37*
G04 #@! TD.AperFunction*
M02*
