M48
; DRILL file {KiCad (6.0.4)} date Sun Jun 19 17:23:49 2022
; FORMAT={-:-/ absolute / metric / decimal}
; #@! TF.CreationDate,2022-06-19T17:23:49+02:00
; #@! TF.GenerationSoftware,Kicad,Pcbnew,(6.0.4)
; #@! TF.FileFunction,Plated,1,2,PTH
FMAT,2
METRIC
; #@! TA.AperFunction,Plated,PTH,ViaDrill
T1C0.400
; #@! TA.AperFunction,Plated,PTH,ComponentDrill
T2C0.950
; #@! TA.AperFunction,Plated,PTH,ComponentDrill
T3C1.000
; #@! TA.AperFunction,Plated,PTH,ComponentDrill
T4C1.300
; #@! TA.AperFunction,Plated,PTH,ComponentDrill
T5C1.700
%
G90
G05
T1
X124.855Y-100.067
X127.0Y-100.076
X128.928Y-100.076
X130.941Y-96.545
X134.874Y-94.234
X140.97Y-94.006
X145.552Y-90.574
X148.825Y-94.337
X155.702Y-90.424
X167.64Y-95.861
X167.673Y-87.63
X173.761Y-89.596
X175.514Y-95.861
X180.34Y-91.4
T2
X177.817Y-89.916
X177.817Y-92.416
X177.817Y-94.916
T3
X139.446Y-84.836
X139.446Y-100.076
X140.716Y-88.646
X140.756Y-96.266
X141.986Y-84.836
X141.986Y-100.076
X143.216Y-88.646
X143.256Y-96.266
X144.526Y-84.836
X144.526Y-100.076
X147.066Y-84.836
X147.066Y-100.076
X149.606Y-84.836
X149.606Y-100.076
X150.916Y-88.646
X150.916Y-96.266
X152.146Y-84.836
X152.146Y-100.076
X153.416Y-88.646
X153.416Y-96.266
X154.686Y-84.836
X154.686Y-100.076
X157.226Y-84.836
X157.226Y-100.076
X159.766Y-84.836
X159.766Y-100.076
X161.036Y-88.646
X161.076Y-96.266
X162.306Y-84.836
X162.306Y-100.076
X163.536Y-88.646
X163.576Y-96.266
X164.846Y-84.836
X164.846Y-100.076
X167.386Y-84.836
X167.386Y-100.076
X169.926Y-84.836
X169.926Y-100.076
X170.959Y-91.46
X170.959Y-93.96
X172.466Y-84.836
X172.466Y-100.076
X175.006Y-84.836
X175.006Y-100.076
T4
X124.714Y-89.916
X124.714Y-94.996
T5
X133.096Y-86.561
X133.096Y-90.221
X133.096Y-94.691
X133.096Y-98.351
T0
M30
