%FSLAX45Y45*%
G04 Gerber Fmt 4.5, Leading zero omitted, Abs format (unit mm)*
G04 Created by KiCad (PCBNEW (6.0.4)) date 2022-06-19 17:23:50*
%MOMM*%
%LPD*%
G01*
G04 APERTURE LIST*
%TA.AperFunction,Profile*%
%ADD10C,0.100000*%
%TD*%
%ADD11C,0.200000*%
%ADD12C,0.178000*%
G04 APERTURE END LIST*
D10*
X18313400Y-8331200D02*
X11785600Y-8331200D01*
X11785600Y-8331200D02*
X11785600Y-10160000D01*
X11785600Y-10160000D02*
X18313400Y-10160000D01*
X18313400Y-10160000D02*
X18313400Y-8331200D01*
D11*
D12*
X13601600Y-8394600D02*
X13779600Y-8572600D01*
X13779600Y-8394600D02*
X13601600Y-8572600D01*
X13601600Y-9918600D02*
X13779600Y-10096600D01*
X13779600Y-9918600D02*
X13601600Y-10096600D01*
X17665600Y-8394600D02*
X17843600Y-8572600D01*
X17843600Y-8394600D02*
X17665600Y-8572600D01*
X17665600Y-9918600D02*
X17843600Y-10096600D01*
X17843600Y-9918600D02*
X17665600Y-10096600D01*
D11*
X12139600Y-8483600D02*
G75*
G03*
X12139600Y-8483600I-100000J0D01*
G01*
X12139600Y-10007600D02*
G75*
G03*
X12139600Y-10007600I-100000J0D01*
G01*
X18159400Y-8483600D02*
G75*
G03*
X18159400Y-8483600I-100000J0D01*
G01*
X18159400Y-9982200D02*
G75*
G03*
X18159400Y-9982200I-100000J0D01*
G01*
X12038219Y-10475476D02*
X12038219Y-10275476D01*
X12085838Y-10275476D01*
X12114409Y-10285000D01*
X12133457Y-10304048D01*
X12142981Y-10323095D01*
X12152505Y-10361190D01*
X12152505Y-10389762D01*
X12142981Y-10427857D01*
X12133457Y-10446905D01*
X12114409Y-10465952D01*
X12085838Y-10475476D01*
X12038219Y-10475476D01*
X12238219Y-10475476D02*
X12238219Y-10342143D01*
X12238219Y-10380238D02*
X12247743Y-10361190D01*
X12257267Y-10351667D01*
X12276314Y-10342143D01*
X12295362Y-10342143D01*
X12362028Y-10475476D02*
X12362028Y-10342143D01*
X12362028Y-10275476D02*
X12352505Y-10285000D01*
X12362028Y-10294524D01*
X12371552Y-10285000D01*
X12362028Y-10275476D01*
X12362028Y-10294524D01*
X12485838Y-10475476D02*
X12466790Y-10465952D01*
X12457267Y-10446905D01*
X12457267Y-10275476D01*
X12590600Y-10475476D02*
X12571552Y-10465952D01*
X12562028Y-10446905D01*
X12562028Y-10275476D01*
X12819171Y-10475476D02*
X12819171Y-10275476D01*
X12885838Y-10418333D01*
X12952505Y-10275476D01*
X12952505Y-10475476D01*
X13133457Y-10475476D02*
X13133457Y-10370714D01*
X13123933Y-10351667D01*
X13104886Y-10342143D01*
X13066790Y-10342143D01*
X13047743Y-10351667D01*
X13133457Y-10465952D02*
X13114409Y-10475476D01*
X13066790Y-10475476D01*
X13047743Y-10465952D01*
X13038219Y-10446905D01*
X13038219Y-10427857D01*
X13047743Y-10408810D01*
X13066790Y-10399286D01*
X13114409Y-10399286D01*
X13133457Y-10389762D01*
X13228695Y-10342143D02*
X13228695Y-10542143D01*
X13228695Y-10351667D02*
X13247743Y-10342143D01*
X13285838Y-10342143D01*
X13304886Y-10351667D01*
X13314409Y-10361190D01*
X13323933Y-10380238D01*
X13323933Y-10437381D01*
X13314409Y-10456429D01*
X13304886Y-10465952D01*
X13285838Y-10475476D01*
X13247743Y-10475476D01*
X13228695Y-10465952D01*
X13409648Y-10456429D02*
X13419171Y-10465952D01*
X13409648Y-10475476D01*
X13400124Y-10465952D01*
X13409648Y-10456429D01*
X13409648Y-10475476D01*
X13409648Y-10351667D02*
X13419171Y-10361190D01*
X13409648Y-10370714D01*
X13400124Y-10361190D01*
X13409648Y-10351667D01*
X13409648Y-10370714D01*
D12*
X11602600Y-10716000D02*
X11780600Y-10894000D01*
X11780600Y-10716000D02*
X11602600Y-10894000D01*
D11*
X12142981Y-10895476D02*
X12028695Y-10895476D01*
X12085838Y-10895476D02*
X12085838Y-10695476D01*
X12066790Y-10724048D01*
X12047743Y-10743095D01*
X12028695Y-10752619D01*
X12228695Y-10876429D02*
X12238219Y-10885952D01*
X12228695Y-10895476D01*
X12219171Y-10885952D01*
X12228695Y-10876429D01*
X12228695Y-10895476D01*
X12304886Y-10695476D02*
X12438219Y-10695476D01*
X12352505Y-10895476D01*
X12542981Y-10781190D02*
X12523933Y-10771667D01*
X12514409Y-10762143D01*
X12504886Y-10743095D01*
X12504886Y-10733571D01*
X12514409Y-10714524D01*
X12523933Y-10705000D01*
X12542981Y-10695476D01*
X12581076Y-10695476D01*
X12600124Y-10705000D01*
X12609648Y-10714524D01*
X12619171Y-10733571D01*
X12619171Y-10743095D01*
X12609648Y-10762143D01*
X12600124Y-10771667D01*
X12581076Y-10781190D01*
X12542981Y-10781190D01*
X12523933Y-10790714D01*
X12514409Y-10800238D01*
X12504886Y-10819286D01*
X12504886Y-10857381D01*
X12514409Y-10876429D01*
X12523933Y-10885952D01*
X12542981Y-10895476D01*
X12581076Y-10895476D01*
X12600124Y-10885952D01*
X12609648Y-10876429D01*
X12619171Y-10857381D01*
X12619171Y-10819286D01*
X12609648Y-10800238D01*
X12600124Y-10790714D01*
X12581076Y-10781190D01*
X12742981Y-10695476D02*
X12762028Y-10695476D01*
X12781076Y-10705000D01*
X12790600Y-10714524D01*
X12800124Y-10733571D01*
X12809648Y-10771667D01*
X12809648Y-10819286D01*
X12800124Y-10857381D01*
X12790600Y-10876429D01*
X12781076Y-10885952D01*
X12762028Y-10895476D01*
X12742981Y-10895476D01*
X12723933Y-10885952D01*
X12714409Y-10876429D01*
X12704886Y-10857381D01*
X12695362Y-10819286D01*
X12695362Y-10771667D01*
X12704886Y-10733571D01*
X12714409Y-10714524D01*
X12723933Y-10705000D01*
X12742981Y-10695476D01*
X12895362Y-10895476D02*
X12895362Y-10762143D01*
X12895362Y-10781190D02*
X12904886Y-10771667D01*
X12923933Y-10762143D01*
X12952505Y-10762143D01*
X12971552Y-10771667D01*
X12981076Y-10790714D01*
X12981076Y-10895476D01*
X12981076Y-10790714D02*
X12990600Y-10771667D01*
X13009648Y-10762143D01*
X13038219Y-10762143D01*
X13057267Y-10771667D01*
X13066790Y-10790714D01*
X13066790Y-10895476D01*
X13162028Y-10895476D02*
X13162028Y-10762143D01*
X13162028Y-10781190D02*
X13171552Y-10771667D01*
X13190600Y-10762143D01*
X13219171Y-10762143D01*
X13238219Y-10771667D01*
X13247743Y-10790714D01*
X13247743Y-10895476D01*
X13247743Y-10790714D02*
X13257267Y-10771667D01*
X13276314Y-10762143D01*
X13304886Y-10762143D01*
X13323933Y-10771667D01*
X13333457Y-10790714D01*
X13333457Y-10895476D01*
X13723933Y-10685952D02*
X13552505Y-10943095D01*
X13981076Y-10695476D02*
X14000124Y-10695476D01*
X14019171Y-10705000D01*
X14028695Y-10714524D01*
X14038219Y-10733571D01*
X14047743Y-10771667D01*
X14047743Y-10819286D01*
X14038219Y-10857381D01*
X14028695Y-10876429D01*
X14019171Y-10885952D01*
X14000124Y-10895476D01*
X13981076Y-10895476D01*
X13962028Y-10885952D01*
X13952505Y-10876429D01*
X13942981Y-10857381D01*
X13933457Y-10819286D01*
X13933457Y-10771667D01*
X13942981Y-10733571D01*
X13952505Y-10714524D01*
X13962028Y-10705000D01*
X13981076Y-10695476D01*
X14133457Y-10876429D02*
X14142981Y-10885952D01*
X14133457Y-10895476D01*
X14123933Y-10885952D01*
X14133457Y-10876429D01*
X14133457Y-10895476D01*
X14266790Y-10695476D02*
X14285838Y-10695476D01*
X14304886Y-10705000D01*
X14314409Y-10714524D01*
X14323933Y-10733571D01*
X14333457Y-10771667D01*
X14333457Y-10819286D01*
X14323933Y-10857381D01*
X14314409Y-10876429D01*
X14304886Y-10885952D01*
X14285838Y-10895476D01*
X14266790Y-10895476D01*
X14247743Y-10885952D01*
X14238219Y-10876429D01*
X14228695Y-10857381D01*
X14219171Y-10819286D01*
X14219171Y-10771667D01*
X14228695Y-10733571D01*
X14238219Y-10714524D01*
X14247743Y-10705000D01*
X14266790Y-10695476D01*
X14400124Y-10695476D02*
X14533457Y-10695476D01*
X14447743Y-10895476D01*
X14647743Y-10695476D02*
X14666790Y-10695476D01*
X14685838Y-10705000D01*
X14695362Y-10714524D01*
X14704886Y-10733571D01*
X14714409Y-10771667D01*
X14714409Y-10819286D01*
X14704886Y-10857381D01*
X14695362Y-10876429D01*
X14685838Y-10885952D01*
X14666790Y-10895476D01*
X14647743Y-10895476D01*
X14628695Y-10885952D01*
X14619171Y-10876429D01*
X14609648Y-10857381D01*
X14600124Y-10819286D01*
X14600124Y-10771667D01*
X14609648Y-10733571D01*
X14619171Y-10714524D01*
X14628695Y-10705000D01*
X14647743Y-10695476D01*
X14904886Y-10895476D02*
X14790600Y-10895476D01*
X14847743Y-10895476D02*
X14847743Y-10695476D01*
X14828695Y-10724048D01*
X14809648Y-10743095D01*
X14790600Y-10752619D01*
X14981076Y-10695476D02*
X14981076Y-10733571D01*
X15057267Y-10695476D02*
X15057267Y-10733571D01*
X15352505Y-10971667D02*
X15342981Y-10962143D01*
X15323933Y-10933571D01*
X15314409Y-10914524D01*
X15304886Y-10885952D01*
X15295362Y-10838333D01*
X15295362Y-10800238D01*
X15304886Y-10752619D01*
X15314409Y-10724048D01*
X15323933Y-10705000D01*
X15342981Y-10676429D01*
X15352505Y-10666905D01*
X15514409Y-10762143D02*
X15514409Y-10895476D01*
X15466790Y-10685952D02*
X15419171Y-10828810D01*
X15542981Y-10828810D01*
X15771552Y-10895476D02*
X15771552Y-10695476D01*
X15857267Y-10895476D02*
X15857267Y-10790714D01*
X15847743Y-10771667D01*
X15828695Y-10762143D01*
X15800124Y-10762143D01*
X15781076Y-10771667D01*
X15771552Y-10781190D01*
X15981076Y-10895476D02*
X15962028Y-10885952D01*
X15952505Y-10876429D01*
X15942981Y-10857381D01*
X15942981Y-10800238D01*
X15952505Y-10781190D01*
X15962028Y-10771667D01*
X15981076Y-10762143D01*
X16009648Y-10762143D01*
X16028695Y-10771667D01*
X16038219Y-10781190D01*
X16047743Y-10800238D01*
X16047743Y-10857381D01*
X16038219Y-10876429D01*
X16028695Y-10885952D01*
X16009648Y-10895476D01*
X15981076Y-10895476D01*
X16162028Y-10895476D02*
X16142981Y-10885952D01*
X16133457Y-10866905D01*
X16133457Y-10695476D01*
X16314409Y-10885952D02*
X16295362Y-10895476D01*
X16257267Y-10895476D01*
X16238219Y-10885952D01*
X16228695Y-10866905D01*
X16228695Y-10790714D01*
X16238219Y-10771667D01*
X16257267Y-10762143D01*
X16295362Y-10762143D01*
X16314409Y-10771667D01*
X16323933Y-10790714D01*
X16323933Y-10809762D01*
X16228695Y-10828810D01*
X16400124Y-10885952D02*
X16419171Y-10895476D01*
X16457267Y-10895476D01*
X16476314Y-10885952D01*
X16485838Y-10866905D01*
X16485838Y-10857381D01*
X16476314Y-10838333D01*
X16457267Y-10828810D01*
X16428695Y-10828810D01*
X16409648Y-10819286D01*
X16400124Y-10800238D01*
X16400124Y-10790714D01*
X16409648Y-10771667D01*
X16428695Y-10762143D01*
X16457267Y-10762143D01*
X16476314Y-10771667D01*
X16552505Y-10971667D02*
X16562028Y-10962143D01*
X16581076Y-10933571D01*
X16590600Y-10914524D01*
X16600124Y-10885952D01*
X16609648Y-10838333D01*
X16609648Y-10800238D01*
X16600124Y-10752619D01*
X16590600Y-10724048D01*
X16581076Y-10705000D01*
X16562028Y-10676429D01*
X16552505Y-10666905D01*
X16914410Y-10971667D02*
X16904886Y-10962143D01*
X16885838Y-10933571D01*
X16876314Y-10914524D01*
X16866790Y-10885952D01*
X16857267Y-10838333D01*
X16857267Y-10800238D01*
X16866790Y-10752619D01*
X16876314Y-10724048D01*
X16885838Y-10705000D01*
X16904886Y-10676429D01*
X16914410Y-10666905D01*
X16990600Y-10762143D02*
X16990600Y-10895476D01*
X16990600Y-10781190D02*
X17000124Y-10771667D01*
X17019171Y-10762143D01*
X17047743Y-10762143D01*
X17066790Y-10771667D01*
X17076314Y-10790714D01*
X17076314Y-10895476D01*
X17200124Y-10895476D02*
X17181076Y-10885952D01*
X17171552Y-10876429D01*
X17162029Y-10857381D01*
X17162029Y-10800238D01*
X17171552Y-10781190D01*
X17181076Y-10771667D01*
X17200124Y-10762143D01*
X17228695Y-10762143D01*
X17247743Y-10771667D01*
X17257267Y-10781190D01*
X17266790Y-10800238D01*
X17266790Y-10857381D01*
X17257267Y-10876429D01*
X17247743Y-10885952D01*
X17228695Y-10895476D01*
X17200124Y-10895476D01*
X17323933Y-10762143D02*
X17400124Y-10762143D01*
X17352505Y-10695476D02*
X17352505Y-10866905D01*
X17362029Y-10885952D01*
X17381076Y-10895476D01*
X17400124Y-10895476D01*
X17619171Y-10762143D02*
X17619171Y-10962143D01*
X17619171Y-10771667D02*
X17638219Y-10762143D01*
X17676314Y-10762143D01*
X17695362Y-10771667D01*
X17704886Y-10781190D01*
X17714410Y-10800238D01*
X17714410Y-10857381D01*
X17704886Y-10876429D01*
X17695362Y-10885952D01*
X17676314Y-10895476D01*
X17638219Y-10895476D01*
X17619171Y-10885952D01*
X17828695Y-10895476D02*
X17809648Y-10885952D01*
X17800124Y-10866905D01*
X17800124Y-10695476D01*
X17990600Y-10895476D02*
X17990600Y-10790714D01*
X17981076Y-10771667D01*
X17962029Y-10762143D01*
X17923933Y-10762143D01*
X17904886Y-10771667D01*
X17990600Y-10885952D02*
X17971552Y-10895476D01*
X17923933Y-10895476D01*
X17904886Y-10885952D01*
X17895362Y-10866905D01*
X17895362Y-10847857D01*
X17904886Y-10828810D01*
X17923933Y-10819286D01*
X17971552Y-10819286D01*
X17990600Y-10809762D01*
X18057267Y-10762143D02*
X18133457Y-10762143D01*
X18085838Y-10695476D02*
X18085838Y-10866905D01*
X18095362Y-10885952D01*
X18114410Y-10895476D01*
X18133457Y-10895476D01*
X18276314Y-10885952D02*
X18257267Y-10895476D01*
X18219171Y-10895476D01*
X18200124Y-10885952D01*
X18190600Y-10866905D01*
X18190600Y-10790714D01*
X18200124Y-10771667D01*
X18219171Y-10762143D01*
X18257267Y-10762143D01*
X18276314Y-10771667D01*
X18285838Y-10790714D01*
X18285838Y-10809762D01*
X18190600Y-10828810D01*
X18457267Y-10895476D02*
X18457267Y-10695476D01*
X18457267Y-10885952D02*
X18438219Y-10895476D01*
X18400124Y-10895476D01*
X18381076Y-10885952D01*
X18371552Y-10876429D01*
X18362029Y-10857381D01*
X18362029Y-10800238D01*
X18371552Y-10781190D01*
X18381076Y-10771667D01*
X18400124Y-10762143D01*
X18438219Y-10762143D01*
X18457267Y-10771667D01*
X18533457Y-10971667D02*
X18542981Y-10962143D01*
X18562029Y-10933571D01*
X18571552Y-10914524D01*
X18581076Y-10885952D01*
X18590600Y-10838333D01*
X18590600Y-10800238D01*
X18581076Y-10752619D01*
X18571552Y-10724048D01*
X18562029Y-10705000D01*
X18542981Y-10676429D01*
X18533457Y-10666905D01*
X11780600Y-11103000D02*
G75*
G03*
X11780600Y-11103000I-100000J0D01*
G01*
X12028695Y-11012524D02*
X12038219Y-11003000D01*
X12057267Y-10993476D01*
X12104886Y-10993476D01*
X12123933Y-11003000D01*
X12133457Y-11012524D01*
X12142981Y-11031571D01*
X12142981Y-11050619D01*
X12133457Y-11079190D01*
X12019171Y-11193476D01*
X12142981Y-11193476D01*
X12228695Y-11174429D02*
X12238219Y-11183952D01*
X12228695Y-11193476D01*
X12219171Y-11183952D01*
X12228695Y-11174429D01*
X12228695Y-11193476D01*
X12362028Y-10993476D02*
X12381076Y-10993476D01*
X12400124Y-11003000D01*
X12409648Y-11012524D01*
X12419171Y-11031571D01*
X12428695Y-11069667D01*
X12428695Y-11117286D01*
X12419171Y-11155381D01*
X12409648Y-11174429D01*
X12400124Y-11183952D01*
X12381076Y-11193476D01*
X12362028Y-11193476D01*
X12342981Y-11183952D01*
X12333457Y-11174429D01*
X12323933Y-11155381D01*
X12314409Y-11117286D01*
X12314409Y-11069667D01*
X12323933Y-11031571D01*
X12333457Y-11012524D01*
X12342981Y-11003000D01*
X12362028Y-10993476D01*
X12552505Y-10993476D02*
X12571552Y-10993476D01*
X12590600Y-11003000D01*
X12600124Y-11012524D01*
X12609648Y-11031571D01*
X12619171Y-11069667D01*
X12619171Y-11117286D01*
X12609648Y-11155381D01*
X12600124Y-11174429D01*
X12590600Y-11183952D01*
X12571552Y-11193476D01*
X12552505Y-11193476D01*
X12533457Y-11183952D01*
X12523933Y-11174429D01*
X12514409Y-11155381D01*
X12504886Y-11117286D01*
X12504886Y-11069667D01*
X12514409Y-11031571D01*
X12523933Y-11012524D01*
X12533457Y-11003000D01*
X12552505Y-10993476D01*
X12742981Y-10993476D02*
X12762028Y-10993476D01*
X12781076Y-11003000D01*
X12790600Y-11012524D01*
X12800124Y-11031571D01*
X12809648Y-11069667D01*
X12809648Y-11117286D01*
X12800124Y-11155381D01*
X12790600Y-11174429D01*
X12781076Y-11183952D01*
X12762028Y-11193476D01*
X12742981Y-11193476D01*
X12723933Y-11183952D01*
X12714409Y-11174429D01*
X12704886Y-11155381D01*
X12695362Y-11117286D01*
X12695362Y-11069667D01*
X12704886Y-11031571D01*
X12714409Y-11012524D01*
X12723933Y-11003000D01*
X12742981Y-10993476D01*
X12895362Y-11193476D02*
X12895362Y-11060143D01*
X12895362Y-11079190D02*
X12904886Y-11069667D01*
X12923933Y-11060143D01*
X12952505Y-11060143D01*
X12971552Y-11069667D01*
X12981076Y-11088714D01*
X12981076Y-11193476D01*
X12981076Y-11088714D02*
X12990600Y-11069667D01*
X13009648Y-11060143D01*
X13038219Y-11060143D01*
X13057267Y-11069667D01*
X13066790Y-11088714D01*
X13066790Y-11193476D01*
X13162028Y-11193476D02*
X13162028Y-11060143D01*
X13162028Y-11079190D02*
X13171552Y-11069667D01*
X13190600Y-11060143D01*
X13219171Y-11060143D01*
X13238219Y-11069667D01*
X13247743Y-11088714D01*
X13247743Y-11193476D01*
X13247743Y-11088714D02*
X13257267Y-11069667D01*
X13276314Y-11060143D01*
X13304886Y-11060143D01*
X13323933Y-11069667D01*
X13333457Y-11088714D01*
X13333457Y-11193476D01*
X13723933Y-10983952D02*
X13552505Y-11241095D01*
X13981076Y-10993476D02*
X14000124Y-10993476D01*
X14019171Y-11003000D01*
X14028695Y-11012524D01*
X14038219Y-11031571D01*
X14047743Y-11069667D01*
X14047743Y-11117286D01*
X14038219Y-11155381D01*
X14028695Y-11174429D01*
X14019171Y-11183952D01*
X14000124Y-11193476D01*
X13981076Y-11193476D01*
X13962028Y-11183952D01*
X13952505Y-11174429D01*
X13942981Y-11155381D01*
X13933457Y-11117286D01*
X13933457Y-11069667D01*
X13942981Y-11031571D01*
X13952505Y-11012524D01*
X13962028Y-11003000D01*
X13981076Y-10993476D01*
X14133457Y-11174429D02*
X14142981Y-11183952D01*
X14133457Y-11193476D01*
X14123933Y-11183952D01*
X14133457Y-11174429D01*
X14133457Y-11193476D01*
X14266790Y-10993476D02*
X14285838Y-10993476D01*
X14304886Y-11003000D01*
X14314409Y-11012524D01*
X14323933Y-11031571D01*
X14333457Y-11069667D01*
X14333457Y-11117286D01*
X14323933Y-11155381D01*
X14314409Y-11174429D01*
X14304886Y-11183952D01*
X14285838Y-11193476D01*
X14266790Y-11193476D01*
X14247743Y-11183952D01*
X14238219Y-11174429D01*
X14228695Y-11155381D01*
X14219171Y-11117286D01*
X14219171Y-11069667D01*
X14228695Y-11031571D01*
X14238219Y-11012524D01*
X14247743Y-11003000D01*
X14266790Y-10993476D01*
X14400124Y-10993476D02*
X14533457Y-10993476D01*
X14447743Y-11193476D01*
X14638219Y-11079190D02*
X14619171Y-11069667D01*
X14609648Y-11060143D01*
X14600124Y-11041095D01*
X14600124Y-11031571D01*
X14609648Y-11012524D01*
X14619171Y-11003000D01*
X14638219Y-10993476D01*
X14676314Y-10993476D01*
X14695362Y-11003000D01*
X14704886Y-11012524D01*
X14714409Y-11031571D01*
X14714409Y-11041095D01*
X14704886Y-11060143D01*
X14695362Y-11069667D01*
X14676314Y-11079190D01*
X14638219Y-11079190D01*
X14619171Y-11088714D01*
X14609648Y-11098238D01*
X14600124Y-11117286D01*
X14600124Y-11155381D01*
X14609648Y-11174429D01*
X14619171Y-11183952D01*
X14638219Y-11193476D01*
X14676314Y-11193476D01*
X14695362Y-11183952D01*
X14704886Y-11174429D01*
X14714409Y-11155381D01*
X14714409Y-11117286D01*
X14704886Y-11098238D01*
X14695362Y-11088714D01*
X14676314Y-11079190D01*
X14781076Y-10993476D02*
X14914409Y-10993476D01*
X14828695Y-11193476D01*
X14981076Y-10993476D02*
X14981076Y-11031571D01*
X15057267Y-10993476D02*
X15057267Y-11031571D01*
X15352505Y-11269667D02*
X15342981Y-11260143D01*
X15323933Y-11231571D01*
X15314409Y-11212524D01*
X15304886Y-11183952D01*
X15295362Y-11136333D01*
X15295362Y-11098238D01*
X15304886Y-11050619D01*
X15314409Y-11022048D01*
X15323933Y-11003000D01*
X15342981Y-10974429D01*
X15352505Y-10964905D01*
X15514409Y-11060143D02*
X15514409Y-11193476D01*
X15466790Y-10983952D02*
X15419171Y-11126810D01*
X15542981Y-11126810D01*
X15771552Y-11193476D02*
X15771552Y-10993476D01*
X15857267Y-11193476D02*
X15857267Y-11088714D01*
X15847743Y-11069667D01*
X15828695Y-11060143D01*
X15800124Y-11060143D01*
X15781076Y-11069667D01*
X15771552Y-11079190D01*
X15981076Y-11193476D02*
X15962028Y-11183952D01*
X15952505Y-11174429D01*
X15942981Y-11155381D01*
X15942981Y-11098238D01*
X15952505Y-11079190D01*
X15962028Y-11069667D01*
X15981076Y-11060143D01*
X16009648Y-11060143D01*
X16028695Y-11069667D01*
X16038219Y-11079190D01*
X16047743Y-11098238D01*
X16047743Y-11155381D01*
X16038219Y-11174429D01*
X16028695Y-11183952D01*
X16009648Y-11193476D01*
X15981076Y-11193476D01*
X16162028Y-11193476D02*
X16142981Y-11183952D01*
X16133457Y-11164905D01*
X16133457Y-10993476D01*
X16314409Y-11183952D02*
X16295362Y-11193476D01*
X16257267Y-11193476D01*
X16238219Y-11183952D01*
X16228695Y-11164905D01*
X16228695Y-11088714D01*
X16238219Y-11069667D01*
X16257267Y-11060143D01*
X16295362Y-11060143D01*
X16314409Y-11069667D01*
X16323933Y-11088714D01*
X16323933Y-11107762D01*
X16228695Y-11126810D01*
X16400124Y-11183952D02*
X16419171Y-11193476D01*
X16457267Y-11193476D01*
X16476314Y-11183952D01*
X16485838Y-11164905D01*
X16485838Y-11155381D01*
X16476314Y-11136333D01*
X16457267Y-11126810D01*
X16428695Y-11126810D01*
X16409648Y-11117286D01*
X16400124Y-11098238D01*
X16400124Y-11088714D01*
X16409648Y-11069667D01*
X16428695Y-11060143D01*
X16457267Y-11060143D01*
X16476314Y-11069667D01*
X16552505Y-11269667D02*
X16562028Y-11260143D01*
X16581076Y-11231571D01*
X16590600Y-11212524D01*
X16600124Y-11183952D01*
X16609648Y-11136333D01*
X16609648Y-11098238D01*
X16600124Y-11050619D01*
X16590600Y-11022048D01*
X16581076Y-11003000D01*
X16562028Y-10974429D01*
X16552505Y-10964905D01*
X16914410Y-11269667D02*
X16904886Y-11260143D01*
X16885838Y-11231571D01*
X16876314Y-11212524D01*
X16866790Y-11183952D01*
X16857267Y-11136333D01*
X16857267Y-11098238D01*
X16866790Y-11050619D01*
X16876314Y-11022048D01*
X16885838Y-11003000D01*
X16904886Y-10974429D01*
X16914410Y-10964905D01*
X16990600Y-11060143D02*
X16990600Y-11193476D01*
X16990600Y-11079190D02*
X17000124Y-11069667D01*
X17019171Y-11060143D01*
X17047743Y-11060143D01*
X17066790Y-11069667D01*
X17076314Y-11088714D01*
X17076314Y-11193476D01*
X17200124Y-11193476D02*
X17181076Y-11183952D01*
X17171552Y-11174429D01*
X17162029Y-11155381D01*
X17162029Y-11098238D01*
X17171552Y-11079190D01*
X17181076Y-11069667D01*
X17200124Y-11060143D01*
X17228695Y-11060143D01*
X17247743Y-11069667D01*
X17257267Y-11079190D01*
X17266790Y-11098238D01*
X17266790Y-11155381D01*
X17257267Y-11174429D01*
X17247743Y-11183952D01*
X17228695Y-11193476D01*
X17200124Y-11193476D01*
X17323933Y-11060143D02*
X17400124Y-11060143D01*
X17352505Y-10993476D02*
X17352505Y-11164905D01*
X17362029Y-11183952D01*
X17381076Y-11193476D01*
X17400124Y-11193476D01*
X17619171Y-11060143D02*
X17619171Y-11260143D01*
X17619171Y-11069667D02*
X17638219Y-11060143D01*
X17676314Y-11060143D01*
X17695362Y-11069667D01*
X17704886Y-11079190D01*
X17714410Y-11098238D01*
X17714410Y-11155381D01*
X17704886Y-11174429D01*
X17695362Y-11183952D01*
X17676314Y-11193476D01*
X17638219Y-11193476D01*
X17619171Y-11183952D01*
X17828695Y-11193476D02*
X17809648Y-11183952D01*
X17800124Y-11164905D01*
X17800124Y-10993476D01*
X17990600Y-11193476D02*
X17990600Y-11088714D01*
X17981076Y-11069667D01*
X17962029Y-11060143D01*
X17923933Y-11060143D01*
X17904886Y-11069667D01*
X17990600Y-11183952D02*
X17971552Y-11193476D01*
X17923933Y-11193476D01*
X17904886Y-11183952D01*
X17895362Y-11164905D01*
X17895362Y-11145857D01*
X17904886Y-11126810D01*
X17923933Y-11117286D01*
X17971552Y-11117286D01*
X17990600Y-11107762D01*
X18057267Y-11060143D02*
X18133457Y-11060143D01*
X18085838Y-10993476D02*
X18085838Y-11164905D01*
X18095362Y-11183952D01*
X18114410Y-11193476D01*
X18133457Y-11193476D01*
X18276314Y-11183952D02*
X18257267Y-11193476D01*
X18219171Y-11193476D01*
X18200124Y-11183952D01*
X18190600Y-11164905D01*
X18190600Y-11088714D01*
X18200124Y-11069667D01*
X18219171Y-11060143D01*
X18257267Y-11060143D01*
X18276314Y-11069667D01*
X18285838Y-11088714D01*
X18285838Y-11107762D01*
X18190600Y-11126810D01*
X18457267Y-11193476D02*
X18457267Y-10993476D01*
X18457267Y-11183952D02*
X18438219Y-11193476D01*
X18400124Y-11193476D01*
X18381076Y-11183952D01*
X18371552Y-11174429D01*
X18362029Y-11155381D01*
X18362029Y-11098238D01*
X18371552Y-11079190D01*
X18381076Y-11069667D01*
X18400124Y-11060143D01*
X18438219Y-11060143D01*
X18457267Y-11069667D01*
X18533457Y-11269667D02*
X18542981Y-11260143D01*
X18562029Y-11231571D01*
X18571552Y-11212524D01*
X18581076Y-11183952D01*
X18590600Y-11136333D01*
X18590600Y-11098238D01*
X18581076Y-11050619D01*
X18571552Y-11022048D01*
X18562029Y-11003000D01*
X18542981Y-10974429D01*
X18533457Y-10964905D01*
M02*
