G04 #@! TF.GenerationSoftware,KiCad,Pcbnew,(6.0.4)*
G04 #@! TF.CreationDate,2022-06-19T17:23:47+02:00*
G04 #@! TF.ProjectId,Klipper nano expander,4b6c6970-7065-4722-906e-616e6f206578,1.0*
G04 #@! TF.SameCoordinates,Original*
G04 #@! TF.FileFunction,Soldermask,Bot*
G04 #@! TF.FilePolarity,Negative*
%FSLAX46Y46*%
G04 Gerber Fmt 4.6, Leading zero omitted, Abs format (unit mm)*
G04 Created by KiCad (PCBNEW (6.0.4)) date 2022-06-19 17:23:47*
%MOMM*%
%LPD*%
G01*
G04 APERTURE LIST*
G04 Aperture macros list*
%AMRoundRect*
0 Rectangle with rounded corners*
0 $1 Rounding radius*
0 $2 $3 $4 $5 $6 $7 $8 $9 X,Y pos of 4 corners*
0 Add a 4 corners polygon primitive as box body*
4,1,4,$2,$3,$4,$5,$6,$7,$8,$9,$2,$3,0*
0 Add four circle primitives for the rounded corners*
1,1,$1+$1,$2,$3*
1,1,$1+$1,$4,$5*
1,1,$1+$1,$6,$7*
1,1,$1+$1,$8,$9*
0 Add four rect primitives between the rounded corners*
20,1,$1+$1,$2,$3,$4,$5,0*
20,1,$1+$1,$4,$5,$6,$7,0*
20,1,$1+$1,$6,$7,$8,$9,0*
20,1,$1+$1,$8,$9,$2,$3,0*%
G04 Aperture macros list end*
%ADD10RoundRect,0.250000X-0.600000X-0.750000X0.600000X-0.750000X0.600000X0.750000X-0.600000X0.750000X0*%
%ADD11O,1.700000X2.000000*%
%ADD12RoundRect,0.250000X-0.725000X0.600000X-0.725000X-0.600000X0.725000X-0.600000X0.725000X0.600000X0*%
%ADD13O,1.950000X1.700000*%
%ADD14C,2.000000*%
%ADD15C,2.500000*%
%ADD16RoundRect,0.250000X0.600000X0.750000X-0.600000X0.750000X-0.600000X-0.750000X0.600000X-0.750000X0*%
%ADD17R,2.600000X2.600000*%
%ADD18C,2.600000*%
%ADD19RoundRect,0.250000X-0.750000X0.600000X-0.750000X-0.600000X0.750000X-0.600000X0.750000X0.600000X0*%
%ADD20O,2.000000X1.700000*%
%ADD21RoundRect,0.250000X0.450000X-0.262500X0.450000X0.262500X-0.450000X0.262500X-0.450000X-0.262500X0*%
%ADD22RoundRect,0.250000X0.250000X0.475000X-0.250000X0.475000X-0.250000X-0.475000X0.250000X-0.475000X0*%
%ADD23RoundRect,0.250000X-0.250000X-0.475000X0.250000X-0.475000X0.250000X0.475000X-0.250000X0.475000X0*%
%ADD24RoundRect,0.150000X0.587500X0.150000X-0.587500X0.150000X-0.587500X-0.150000X0.587500X-0.150000X0*%
%ADD25RoundRect,0.250000X-0.450000X0.262500X-0.450000X-0.262500X0.450000X-0.262500X0.450000X0.262500X0*%
%ADD26RoundRect,0.250000X0.262500X0.450000X-0.262500X0.450000X-0.262500X-0.450000X0.262500X-0.450000X0*%
%ADD27RoundRect,0.250000X-0.262500X-0.450000X0.262500X-0.450000X0.262500X0.450000X-0.262500X0.450000X0*%
%ADD28C,1.780000*%
%ADD29R,1.600000X1.600000*%
%ADD30O,1.600000X1.600000*%
%ADD31RoundRect,0.250000X0.475000X-0.250000X0.475000X0.250000X-0.475000X0.250000X-0.475000X-0.250000X0*%
%ADD32RoundRect,0.150000X-0.587500X-0.150000X0.587500X-0.150000X0.587500X0.150000X-0.587500X0.150000X0*%
G04 APERTURE END LIST*
D10*
X140716000Y-88646000D03*
D11*
X143216000Y-88646000D03*
D10*
X150916000Y-88646000D03*
D11*
X153416000Y-88646000D03*
D12*
X177817000Y-89916000D03*
D13*
X177817000Y-92416000D03*
X177817000Y-94916000D03*
D14*
X120396000Y-100076000D03*
X120396000Y-84836000D03*
D15*
X133096000Y-98351000D03*
X133096000Y-94691000D03*
X133096000Y-90221000D03*
X133096000Y-86561000D03*
D10*
X161036000Y-88646000D03*
D11*
X163536000Y-88646000D03*
D16*
X163576000Y-96266000D03*
D11*
X161076000Y-96266000D03*
D17*
X124714000Y-89916000D03*
D18*
X124714000Y-94996000D03*
D14*
X180594000Y-99822000D03*
D16*
X153416000Y-96266000D03*
D11*
X150916000Y-96266000D03*
D19*
X170959000Y-91460000D03*
D20*
X170959000Y-93960000D03*
D16*
X143256000Y-96266000D03*
D11*
X140756000Y-96266000D03*
D14*
X180594000Y-84836000D03*
D21*
X156972000Y-96162500D03*
X156972000Y-94337500D03*
D22*
X142936000Y-93980000D03*
X141036000Y-93980000D03*
D23*
X151196000Y-90932000D03*
X153096000Y-90932000D03*
D24*
X165529500Y-92268000D03*
X165529500Y-94168000D03*
X163654500Y-93218000D03*
D25*
X175514000Y-95861500D03*
X175514000Y-97686500D03*
D21*
X148844000Y-96162500D03*
X148844000Y-94337500D03*
D26*
X173718122Y-87657721D03*
X171893122Y-87657721D03*
D21*
X167640000Y-94027000D03*
X167640000Y-92202000D03*
D22*
X169606000Y-87630000D03*
X167706000Y-87630000D03*
D27*
X173761000Y-89596000D03*
X175586000Y-89596000D03*
D23*
X136972000Y-87376000D03*
X138872000Y-87376000D03*
D21*
X159004000Y-96162500D03*
X159004000Y-94337500D03*
X138430000Y-96162500D03*
X138430000Y-94337500D03*
D28*
X136906000Y-84836000D03*
X177546000Y-84836000D03*
X177546000Y-100076000D03*
X136906000Y-100076000D03*
D29*
X175006000Y-100076000D03*
D30*
X172466000Y-100076000D03*
X169926000Y-100076000D03*
X167386000Y-100076000D03*
X164846000Y-100076000D03*
X162306000Y-100076000D03*
X159766000Y-100076000D03*
X157226000Y-100076000D03*
X154686000Y-100076000D03*
X152146000Y-100076000D03*
X149606000Y-100076000D03*
X147066000Y-100076000D03*
X144526000Y-100076000D03*
X141986000Y-100076000D03*
X139446000Y-100076000D03*
X139446000Y-84836000D03*
X141986000Y-84836000D03*
X144526000Y-84836000D03*
X147066000Y-84836000D03*
X149606000Y-84836000D03*
X152146000Y-84836000D03*
X154686000Y-84836000D03*
X157226000Y-84836000D03*
X159766000Y-84836000D03*
X162306000Y-84836000D03*
X164846000Y-84836000D03*
X167386000Y-84836000D03*
X169926000Y-84836000D03*
X172466000Y-84836000D03*
X175006000Y-84836000D03*
D31*
X180340000Y-93300000D03*
X180340000Y-91400000D03*
D24*
X175435500Y-92014000D03*
X175435500Y-93914000D03*
X173560500Y-92964000D03*
D25*
X145542000Y-88749500D03*
X145542000Y-90574500D03*
D27*
X127103500Y-100076000D03*
X128928500Y-100076000D03*
D32*
X159082500Y-92644000D03*
X159082500Y-90744000D03*
X160957500Y-91694000D03*
D23*
X129032000Y-96520000D03*
X130932000Y-96520000D03*
D25*
X155702000Y-88599000D03*
X155702000Y-90424000D03*
D23*
X141036000Y-90932000D03*
X142936000Y-90932000D03*
D22*
X153096000Y-93980000D03*
X151196000Y-93980000D03*
D25*
X167640000Y-95861500D03*
X167640000Y-97686500D03*
M02*
